<svg width="141" height="149" viewBox="0 0 141 149" fill="none" xmlns="http://www.w3.org/2000/svg">
<g id="Group 1410127389">
<path id="Vector" d="M64.6786 144.15C56.5057 146.417 47.8464 146.23 39.7794 143.611C31.4244 141.046 23.9261 136.254 18.0903 129.748C15.3406 126.653 13.1534 123.1 11.6276 119.251C13.3992 122.818 15.6711 126.113 18.3744 129.038C18.6443 129.322 19.3118 128.896 19.0704 128.541C16.3877 124.81 13.9808 120.889 11.8691 116.808C11.7696 116.624 11.6844 116.425 11.5992 116.24C11.7394 116.172 11.8569 116.064 11.9376 115.931C12.0182 115.797 12.0586 115.643 12.0537 115.487C10.4345 107.945 8.31814 100.517 6.89777 92.9176C6.50006 90.8296 6.14497 88.6564 5.8751 86.5685C5.77274 78.9874 6.90983 71.4404 9.2414 64.226C10.6155 59.8747 12.7088 55.7842 15.4342 52.1244C15.6899 51.7977 15.1501 51.6273 14.9371 51.8972C9.61069 58.6582 6.86936 67.0668 5.56261 75.4896C5.43478 76.285 5.33536 77.0946 5.23593 77.9042C5.23593 77.0946 5.23593 76.2992 5.23593 75.4896C5.23593 74.68 5.44898 74.2823 5.56261 73.6715C6.09367 70.749 6.86326 67.875 7.86363 65.0783C9.01029 62.455 9.90904 59.7302 10.5481 56.9395C10.6618 56.2719 9.65329 56.6128 9.46864 56.9395C6.05953 62.5986 4.19819 69.0546 4.07124 75.66C3.31268 79.8157 2.95594 84.0347 3.00596 88.2587C3.38608 97.8194 5.73105 107.199 9.89476 115.814L10.7186 117.533C10.5907 117.533 10.4771 117.717 10.5055 117.845C13.1405 126.106 18.4596 133.25 25.6183 138.142C32.8962 143.307 41.4579 146.364 50.3612 146.977C55.216 147.335 60.0921 146.677 64.6786 145.045C65.2467 144.861 65.3462 143.966 64.6786 144.15ZM4.34111 89.4945C4.23463 87.4979 4.23463 85.4971 4.34111 83.5005C4.42633 84.5658 4.53996 85.6311 4.66779 86.6821C4.63636 90.2534 4.85467 93.8225 5.32115 97.3633C4.80363 94.7677 4.47609 92.1378 4.34111 89.4945ZM6.84096 98.6985C7.19606 100.247 7.55114 101.809 7.92044 103.357C8.28974 104.906 8.67324 106.553 9.05674 108.144C8.06949 105.059 7.32857 101.901 6.84096 98.6985Z" fill="#FBC820"/>
<path id="Vector_2" d="M114.804 74.9218C114.804 74.5525 114.236 74.7513 114.179 75.0638C113.017 81.6354 111.007 88.0284 108.199 94.0826C105.381 100.374 102.208 106.501 98.6967 112.434C97.5746 114.366 96.4241 116.283 95.2736 118.186C94.5066 119.379 93.7538 120.587 93.0578 121.822C92.5891 122.632 93.7822 122.746 94.1515 122.135C96.7508 117.647 99.833 113.428 102.674 109.124C101.128 113.122 99.3204 117.012 97.2621 120.771C95.6973 123.493 93.9261 126.09 91.9641 128.541C91.4812 129.152 92.234 129.521 92.6885 129.038C96.3851 124.897 99.3402 120.15 101.424 115.005C103.057 111.411 104.478 107.747 105.969 104.096C107.162 102.165 108.298 100.19 109.321 98.1591C110.487 95.8404 111.465 93.4323 112.247 90.9578C112.489 90.1624 111.366 90.3186 111.082 90.7873C110.415 91.881 109.804 93.0031 109.207 94.1394C110.401 91.3549 111.448 88.5103 112.346 85.6172C113.435 82.1193 114.256 78.5439 114.804 74.9218ZM104.861 103.954L103.583 105.957C103.838 105.46 104.108 104.977 104.364 104.537C104.861 103.585 105.344 102.633 105.784 101.696C105.429 102.406 105.103 103.244 104.733 103.954H104.861Z" fill="#FBC820"/>
<path id="Vector_3" d="M49.0687 37.5799C41.6259 42.5512 35.5609 49.1986 29.8936 56.0448L29.2261 56.8686C29.567 56.3147 29.8794 55.7465 30.2345 55.1926C31.6549 52.8774 33.2599 50.5906 34.8508 48.3606C36.6972 45.7613 38.9982 43.5171 41.0436 41.074C43.7423 39.5827 46.5404 38.3327 49.3244 37.0118C49.8783 36.7419 49.8073 35.9749 49.1255 36.2022C46.9114 36.9495 44.7599 37.8709 42.6912 38.9577C43.1646 38.3008 43.6008 37.618 43.998 36.9124C44.3673 36.259 43.6287 35.9607 43.1315 36.3158C40.0396 38.5254 37.2132 41.0849 34.7087 43.9432C33.7286 44.696 32.7486 45.4772 31.868 46.3294C29.7366 48.3376 27.7746 50.5181 26.0018 52.849C24.1971 55.0425 22.5816 57.385 21.1725 59.8514C19.8374 62.3086 18.5733 65.2346 19.2124 68.0754C19.3403 68.6861 20.2493 68.3168 20.4339 67.9475C24.9081 59.7378 29.6096 51.4286 35.8734 44.4261C36.5978 43.8864 37.2938 43.3751 38.0892 42.8779C36.573 44.5101 35.1504 46.2268 33.8281 48.0197C30.5074 52.4587 27.5708 57.1724 25.0502 62.1098C24.6525 62.9478 25.7177 62.962 26.1154 62.4223C31.1503 55.2385 36.9511 48.6234 43.4156 42.6933C45.3301 41.0012 47.3563 39.44 49.4806 38.0203C49.7647 37.7646 49.4522 37.3243 49.0687 37.5799ZM20.3771 65.6039C20.6117 63.8526 21.1859 62.1639 22.0674 60.6326C23.3846 58.2365 24.9153 55.9642 26.641 53.8432C27.9051 52.2524 29.1834 50.6616 30.5754 49.1702C28.0143 52.7401 25.6437 56.443 23.4735 60.2633C22.3514 62.053 21.3714 63.7858 20.3771 65.6039Z" fill="#FBC820"/>
<path id="Vector_4" d="M138.936 1.31774C136.961 3.20683 134.93 5.03912 132.885 6.8572C132.999 6.43108 132.658 6.1044 132.09 6.30325C129.53 7.37331 127.215 8.95365 125.286 10.9479C123.029 13.1095 120.9 15.4001 118.908 17.8083L117.971 18.9162C116.295 20.1661 114.605 21.3876 112.957 22.6375C109.733 25.038 106.651 27.5804 103.568 30.1513L101.821 31.5717C103.666 29.7075 105.63 27.9662 107.702 26.3589C108.455 25.7766 107.815 24.8533 107.048 25.4357C106.807 25.6203 106.565 25.8334 106.324 26.0322C108.795 23.1915 111.276 20.3839 113.767 17.6094C116.437 14.5982 119.126 11.6107 121.834 8.64687C122.147 8.29178 121.664 8.05031 121.394 8.33439C114.789 15.5215 108.284 22.7654 101.765 30.0235C99.9465 31.7705 98.171 33.5886 96.3671 35.3641C93.5215 38.3722 90.2933 40.9939 86.7654 43.1619C90.643 37.2248 96.5234 32.7932 101.296 27.6089C101.765 27.0975 101.296 26.3163 100.642 26.6856C98.3161 27.9826 96.0766 29.4297 93.9383 31.0178C94.3644 30.478 94.8047 29.9383 95.2024 29.3701C95.6001 28.802 94.7763 28.4469 94.3076 28.7594C86.4955 33.8301 80.1038 40.6621 72.7037 46.3152C71.8373 46.9827 70.9424 47.6219 70.0476 48.2469C75.4308 42.8069 81.4106 37.9208 87.2199 32.9495C89.1801 31.2876 91.1402 29.6116 93.0719 27.8929C93.64 27.3816 92.9156 26.785 92.3759 27.2112C80.7146 36.1311 68.3858 44.2556 57.2216 53.7579C54.111 56.4282 51.0856 59.2122 48.2023 62.1381C47.8614 62.479 48.3727 62.7347 48.6568 62.4506C58.8693 52.3091 70.7152 44.0852 82.3765 35.7334C78.7261 38.8156 75.0899 41.9262 71.6384 45.2215C69.7493 47.0254 67.9028 48.886 66.1416 50.8178C65.5734 51.4427 66.2694 51.8973 66.8802 51.5422C74.9195 46.8407 81.4248 40.0655 88.6261 34.2562C89.6914 33.404 90.785 32.566 91.8929 31.7563C90.4952 33.334 89.0009 34.8236 87.4188 36.2163C86.5381 36.9549 85.6717 37.6367 84.8053 38.4605C81.9645 40.7899 79.1238 43.0483 76.5813 45.5624C75.9706 46.1589 76.7518 46.8549 77.3767 46.3578C83.9246 41.0172 90.0038 34.8954 97.0773 30.2223C92.4895 34.6823 87.5608 38.915 84.4502 44.5539C84.1377 45.122 84.6491 45.5766 85.2172 45.3209C86.788 44.5849 88.2901 43.7102 89.7056 42.7074C87.838 44.7123 86.1284 46.8587 84.5922 49.1275C84.1519 49.8093 85.1462 50.0224 85.5581 49.5678C88.7823 45.9743 91.9924 42.3381 95.1882 38.7162C97.9011 36.2305 100.728 33.8727 103.526 31.6143C106.608 29.0434 109.676 26.4726 112.886 24.0579L114.96 22.5381C113.539 24.2284 112.119 25.9328 110.699 27.6515C108.085 30.3076 105.529 33.0205 103.171 35.8896C100.519 38.9412 98.358 42.3865 96.7649 46.1021C96.738 46.1672 96.7266 46.2376 96.7317 46.3078C96.7367 46.378 96.7579 46.4461 96.7937 46.5067C96.8295 46.5672 96.8789 46.6187 96.938 46.6569C96.9971 46.6952 97.0642 46.7192 97.1341 46.7271C97.3098 46.7471 97.4875 46.7162 97.6461 46.6381C97.8048 46.5601 97.9376 46.4381 98.029 46.2868C102.29 40.3354 106.707 34.3982 111.324 28.6883C116.039 23.9159 120.812 19.2145 125.755 14.6977C124.647 15.8529 123.553 17.0176 122.474 18.1918C117.336 24.0081 112.613 30.1782 108.341 36.6566C105.898 40.2502 103.512 43.8579 101.054 47.4089C101.004 47.4693 100.968 47.5408 100.951 47.6175C100.934 47.6943 100.935 47.774 100.954 47.8503C100.973 47.9266 101.011 47.9972 101.063 48.0562C101.115 48.1153 101.18 48.1612 101.253 48.1901C101.438 48.2243 101.63 48.2019 101.802 48.1259C101.974 48.0499 102.12 47.9238 102.219 47.764C108.356 38.6406 115.296 30.0843 122.957 22.1972C123.993 21.132 125.059 20.0667 126.11 19.0156C120.3 27.5378 112.389 34.5261 106.892 43.304C105.136 46.0548 103.706 49.0005 102.631 52.0819C102.347 52.9625 103.568 52.7069 103.881 52.2665C108.142 46.372 111.636 39.7815 116.323 34.1852C114.903 36.5998 113.483 39.0713 112.204 41.5569C110.429 44.9658 108.128 48.0764 106.523 51.4995C105.586 53.2615 105.011 55.1933 104.833 57.181C104.833 57.7918 105.642 57.6924 105.912 57.3515C108.093 54.2751 109.958 50.9869 111.48 47.5367C112.625 44.9993 114.08 42.6138 115.812 40.4348C111.792 48.9571 107.759 57.4793 104.023 66.1578C103.682 66.939 104.932 66.8112 105.216 66.3282C108.611 60.6467 110.727 54.2267 114.306 48.6588C111.963 57.181 107.957 65.1493 106.267 73.842C106.111 74.6232 107.29 74.1829 107.517 73.842C108.213 72.8194 108.852 71.7541 109.449 70.6746C108.625 75.0209 108.028 79.4099 107.233 83.742C107.091 84.509 108.412 84.1823 108.54 83.6142C109.236 80.5746 109.662 77.4782 110.386 74.4386C110.839 72.1264 111.669 69.9045 112.843 67.8622C111.984 72.5385 110.744 77.1369 109.136 81.6115C107.716 86.3981 106.565 91.2984 105.003 96.0567C104.131 98.8213 103.024 101.506 101.694 104.082C101.267 104.891 102.432 105.019 102.773 104.394C105.056 99.7893 106.819 94.9444 108.028 89.9491C108.696 87.4776 109.335 85.0061 110.074 82.5489C110.812 80.0916 111.75 77.3361 112.531 74.7084C113.42 71.8297 114.024 68.8706 114.335 65.8737C114.335 65.2061 113.525 65.4476 113.241 65.7033C112.42 66.4848 111.734 67.3966 111.21 68.402C111.38 67.635 111.551 66.8538 111.736 66.0868C111.92 65.3198 112.233 64.9647 112.46 64.3965C113.801 61.1878 114.833 57.8585 115.542 54.4539C115.548 54.402 115.548 54.3496 115.542 54.2977C115.613 53.9568 115.244 53.8148 114.988 53.829C114.818 53.8488 114.657 53.9149 114.521 54.0201C114.386 54.1253 114.282 54.2655 114.221 54.4255C112.577 58.1861 111.297 62.0959 110.4 66.101C109.79 67.5214 109.108 68.9417 108.369 70.2201C110.542 61.9393 114.448 54.1698 116.309 45.7754C116.465 45.0794 115.585 44.9942 115.215 45.463C114.846 45.9317 114.221 46.8123 113.795 47.4941C115.272 44.3409 116.759 41.1829 118.255 38.0202C118.539 37.4236 117.659 37.31 117.318 37.5799C115.642 38.9119 114.202 40.5155 113.057 42.3239C113.98 40.6195 114.846 38.8724 115.798 37.1822C117.228 34.5926 118.822 32.0971 120.57 29.711C120.612 29.6598 120.642 29.6001 120.658 29.5361C120.674 29.4721 120.677 29.4054 120.664 29.3405C120.652 29.2756 120.626 29.2141 120.588 29.1604C120.549 29.1066 120.5 29.0619 120.442 29.0292C120.294 28.9807 120.134 28.9763 119.983 29.0166C119.831 29.0569 119.695 29.1403 119.59 29.2565C119.107 29.6968 118.653 30.1655 118.17 30.6769C120.215 28.319 122.246 25.9754 124.15 23.575C124.869 22.6281 125.58 21.6812 126.28 20.7343C126.039 21.4302 125.811 22.1546 125.584 22.8222C124.831 25.109 124.164 27.41 123.312 29.6684C122.459 31.9268 121.707 33.9295 121.096 36.0885C120.405 38.3397 120.14 40.7 120.315 43.0483C120.315 43.375 120.826 43.375 121.039 43.2756C125.584 41.1166 126.351 35.634 128.681 31.5433C127.927 35.4369 126.78 39.244 125.258 42.9063C123.61 47.5083 122.417 52.2807 120.996 56.968C120.163 59.8087 119.349 62.6495 118.553 65.4902C118.326 66.2998 119.548 66.1152 119.732 65.4902C121.266 60.4905 122.772 55.5476 124.178 50.4485C124.817 48.1333 125.428 45.818 126.223 43.5596C127.019 41.3013 127.857 39.0997 128.567 36.8271C129.398 34.3601 129.909 31.7967 130.087 29.1997C130.087 28.5889 129.291 28.7167 129.007 29.0434C127.436 31.2218 126.182 33.6131 125.286 36.1453C124.53 38.3786 123.191 40.3694 121.408 41.912C121.096 37.8498 122.829 33.8159 124.093 30.0661C125.357 26.3163 126.621 22.3109 127.814 18.419C128.439 17.4816 129.036 16.5441 129.59 15.5783C129.945 14.9533 129.405 14.7403 128.922 14.8823C129.192 13.9733 129.476 13.0784 129.746 12.1836L130.541 11.374C133.624 8.26337 136.748 5.19536 139.788 2.02792C140.583 1.23251 139.546 0.735383 138.936 1.31774ZM106.551 46.23C108.114 43.3708 109.915 40.6482 111.934 38.0912C110.06 40.7473 108.312 43.5028 106.551 46.23ZM106.551 54.596C107.006 53.1158 107.616 51.6876 108.369 50.3348C109.278 48.6588 110.287 47.0396 111.281 45.4203C109.662 48.4741 108.327 51.6984 106.509 54.596H106.551ZM122.63 15.3794C123.425 14.4988 124.221 13.6182 125.073 12.7802C126.551 11.2185 128.199 9.8273 129.987 8.63266C127.695 11.0652 125.221 13.3206 122.587 15.3794H122.63ZM127.999 15.6635C123.397 20.0383 118.994 24.6261 114.846 29.4269L115.343 28.7309C119.463 23.2775 123.947 18.1097 128.766 13.2631L127.999 15.6635Z" fill="#FBC820"/>
<path id="Vector_5" d="M94.0803 54.6669C90.623 56.6656 87.3524 58.9712 84.3081 61.5557C85.5121 60.0995 86.4366 58.4334 87.0353 56.6412C87.2483 55.9453 86.4529 55.8885 86.0268 56.1583C78.3568 60.8598 73.1156 68.4019 67.221 74.9925C66.454 75.8589 65.6586 76.6969 64.849 77.5349C66.6454 74.8815 68.5947 72.3347 70.6867 69.9075C71.9225 68.4019 73.0588 66.8253 74.3229 65.3481C75.587 63.871 76.7375 62.621 77.8596 61.1864C79.1459 59.7289 80.0662 57.9857 80.5441 56.1015C80.6436 55.6044 79.976 55.5333 79.6635 55.6754C75.9074 57.5668 72.607 60.2517 69.9908 63.5443C71.8214 61.0232 73.5233 58.4111 75.0899 55.718C75.3314 55.3061 75.0899 54.7521 74.5218 54.9226C70.8004 56.0731 68.1017 59.3968 65.7865 62.3512C62.9457 66.0157 60.0292 69.6613 57.037 73.288C55.9859 74.5664 54.949 75.8731 53.9121 77.1798C57.0086 71.1432 62.1929 66.2856 65.5734 60.4052C66.702 58.5098 67.5669 56.4693 68.1443 54.3402C68.1731 54.2717 68.1842 54.197 68.1764 54.1231C68.1686 54.0491 68.1421 53.9784 68.0996 53.9174C68.0571 53.8564 67.9998 53.8072 67.9331 53.7743C67.8664 53.7415 67.7924 53.726 67.7182 53.7295C65.9337 53.8982 64.2459 54.618 62.8889 55.789C61.1952 57.142 59.6309 58.6494 58.2159 60.2916L56.6393 62.0529L56.9517 61.5841C57.1648 61.2717 56.6819 61.2148 56.5256 61.4563C55.8012 62.4932 55.1052 63.5442 54.4377 64.5953C53.7701 65.6464 52.719 66.6265 51.881 67.6633C48.9124 70.8592 46.0291 74.2255 42.2935 76.4981C42.5775 73.8988 44.4098 71.5836 45.9296 69.5808C47.8497 67.4119 49.4692 64.9945 50.7447 62.3938C51.0288 61.712 50.0345 61.9392 49.7931 62.2517C47.5631 65.0925 45.5319 68.1463 43.5576 71.1575C44.1118 69.8577 44.4754 68.4847 44.6371 67.081C44.6371 66.598 44.2252 66.5838 43.8559 66.7259C44.353 66.4276 44.8502 66.1435 45.3757 65.8879C45.9012 65.6322 45.8444 64.7374 45.1626 65.0499C42.5138 66.3002 40.1089 68.0124 38.0608 70.1064C38.0464 69.8635 38.0179 69.6216 37.9755 69.382C37.8761 68.8423 37.0949 69.1121 36.8677 69.382C35.1583 71.3793 33.8252 73.67 32.9332 76.143C33.1416 75.095 33.251 74.0298 33.2599 72.9613C33.2599 72.1801 32.1094 72.5494 31.9674 73.0892C30.8879 77.052 29.5953 80.958 28.5017 84.9209C28.3312 85.5459 28.9562 85.6027 29.3823 85.3612C29.5662 85.4184 29.7637 85.4148 29.9454 85.3508C30.1271 85.2868 30.2833 85.166 30.3908 85.0061C31.3633 83.2395 32.1898 81.3963 32.8622 79.495C33.8423 77.748 34.8507 76.0009 35.9728 74.3391C36.1433 74.0834 36.3279 73.842 36.5126 73.5863C35.987 76.0435 34.8365 78.4724 34.6661 80.9438C34.6661 81.7108 35.6177 81.2989 35.8592 80.9438C38.5011 77.2509 40.1203 72.8761 42.9611 69.2542C41.981 72.9471 39.4527 76.2708 37.4358 79.3956C37.0097 80.0632 37.9897 80.3189 38.3874 79.8359C39.4953 78.5292 40.518 77.1656 41.5123 75.7879C41.4011 76.2768 41.3533 76.7781 41.3702 77.2793C41.3702 77.6344 41.7537 77.606 41.9952 77.4639C44.3427 75.9216 46.4979 74.1049 48.4153 72.0523C46.6256 74.4385 44.9212 76.8958 43.3446 79.4382C42.9753 80.0206 43.7991 80.1626 44.14 79.8075C46.6397 77.0922 48.8795 74.1487 50.8299 71.0154L52.3923 68.5866C52.9747 67.8906 53.557 67.1662 54.1536 66.4986C56.6767 63.3752 59.385 60.406 62.2639 57.6071C63.4767 56.3551 64.994 55.4398 66.6671 54.951C64.3945 62.5642 58.017 68.1463 53.8837 74.751C52.6943 76.6449 51.7403 78.6768 51.043 80.8018C50.8015 81.5404 51.8242 81.583 52.1651 81.1427C55.4177 77.0378 58.7272 72.9755 62.1077 68.9275C64.6076 65.8595 66.8944 62.55 69.6215 59.6808C70.6302 58.5427 71.8031 57.5613 73.1014 56.7691C68.3857 64.5811 62.2071 71.3989 57.3636 79.1258C56.8239 79.9638 57.9744 80.0916 58.4573 79.6371C64.6075 73.9556 68.3289 66.2714 74.4507 60.6183C75.7906 59.3831 77.268 58.306 78.8539 57.4082C78.3042 58.6437 77.5768 59.7921 76.6949 60.8171C75.5871 62.2375 74.3655 63.4874 73.2292 64.851C72.0929 66.2146 70.8004 67.9616 69.5363 69.4956C68.2721 71.0296 66.8375 72.7767 65.5592 74.4811C64.0885 76.4116 62.8178 78.4865 61.7668 80.674C61.7399 80.7351 61.7263 80.8012 61.727 80.868C61.7278 80.9348 61.7427 81.0007 61.771 81.0612C61.7992 81.1217 61.8401 81.1755 61.8908 81.219C61.9415 81.2624 62.0009 81.2945 62.0651 81.3131C62.2251 81.3429 62.3901 81.3311 62.5443 81.2789C62.6985 81.2266 62.8367 81.1357 62.9457 81.0149C69.5647 75.1629 74.3939 67.6065 80.8566 61.5983C82.1921 60.3381 83.6161 59.1751 85.1178 58.1184C83.5349 60.9434 81.4841 63.4792 79.0528 65.618C76.0984 68.5582 73.3713 71.6546 70.5305 74.8362C68.7955 76.8403 67.1692 78.936 65.6586 81.1143C65.1331 81.8671 66.2978 82.1796 66.7523 81.6256C73.1014 73.8562 79.8908 66.2572 87.8875 60.1354C89.3931 58.9848 90.9555 57.8912 92.5605 56.8827C91.3958 58.6723 90.1296 60.3938 88.7681 62.0387C85.0202 65.4445 81.5659 69.16 78.442 73.146C77.7602 73.842 77.0216 74.5664 76.3966 75.2623C74.6496 77.0946 72.9594 78.9553 71.3401 80.9438C70.6726 81.7677 71.6952 82.2222 72.3344 81.6256C74.852 79.1923 77.2234 76.6122 79.4363 73.8988C82.9304 70.3052 86.5381 66.7969 89.663 62.9051C90.2453 62.408 90.8561 61.9392 91.481 61.4847C90.5768 64.5656 88.9559 67.3886 86.7512 69.7229C84.0906 72.5325 81.7119 75.5962 79.6493 78.8701C78.6556 80.6102 78.0681 82.5524 77.9307 84.5516C77.9307 85.1481 78.6551 85.1481 79.0102 84.8783C81.2712 82.9047 83.0455 80.4353 84.1945 77.6628C85.1014 75.5385 86.2602 73.5308 87.646 71.683C85.8705 79.1684 81.2259 85.6453 78.8113 92.9176C78.5414 93.7272 79.6209 93.642 79.9902 93.2585C81.9304 91.1022 83.5563 88.6826 84.8195 86.0714C85.8157 84.0284 87.0661 82.1195 88.5409 80.3899C87.0353 86.3271 83.2145 91.4546 81.3112 97.2639C81.0271 98.1587 82.3196 98.0167 82.6321 97.4628C85.1643 92.8383 87.9575 88.3617 90.9981 84.0545C90.682 86.9069 89.8034 89.6684 88.413 92.179C86.7389 95.1962 85.3504 98.3631 84.2655 101.639C84.0525 102.448 85.0609 102.42 85.4728 101.994C88.4982 98.7269 89.6061 93.9829 92.6457 90.7586C92.1862 93.0539 91.3817 95.2664 90.2595 97.3207C88.9954 99.7922 87.646 102.207 86.3535 104.636C84.2836 108.697 81.9541 112.621 79.3794 116.382L77.1353 119.322C76.5955 120.033 77.746 120.373 78.2005 119.819L78.3142 119.677V119.592C79.1522 118.57 79.9334 117.518 80.7004 116.439C83.186 113.101 85.6717 109.763 88.3278 106.496C87.767 108.804 86.8873 111.022 85.7143 113.087C84.263 115.685 82.6648 118.198 80.9276 120.615C79.5073 122.689 77.9733 124.734 76.6665 126.865C75.3598 128.995 74.0956 130.984 72.6611 132.929C71.2265 134.875 69.3374 137.191 66.8802 138.071C66.1416 138.327 66.2836 139.364 67.1358 139.066C69.3451 138.116 71.2513 136.578 72.6469 134.62C74.2262 132.576 75.6778 130.437 76.9932 128.214C79.9618 123.385 83.5127 118.939 86.2682 114.01C87.9473 111.171 89.102 108.054 89.6771 104.806C89.7624 104.295 89.0096 104.451 88.8107 104.678C87.7739 105.829 86.7654 107.008 85.7711 108.201C86.8648 106.198 87.9301 104.153 89.0096 102.136C90.089 100.119 91.1685 98.2298 92.1202 96.2129C93.2759 93.9804 93.9852 91.5439 94.2081 89.04C94.2081 88.4576 93.498 88.4576 93.1571 88.7133C90.5578 90.7444 89.1942 93.6136 87.7028 96.3975C88.4556 94.8351 89.2652 93.3011 90.0038 91.7529C91.4242 88.6423 92.8446 85.276 92.3474 81.8103C92.248 81.0717 91.2253 81.6682 90.9981 81.9523C89.5777 83.7846 88.2994 85.6879 87.0494 87.6338C88.5687 84.766 89.6689 81.6951 90.3163 78.515C90.43 77.9042 89.5635 77.961 89.251 78.1883C85.5439 81.0291 83.9673 85.4748 81.5384 89.2956C84.3082 82.7903 88.1857 76.6969 89.4073 69.6377C89.4925 69.1689 88.967 69.0979 88.5977 69.2115C89.5314 68.0521 90.381 66.8275 91.1401 65.547C92.183 63.8165 92.8282 61.8759 93.0292 59.8655C93.0292 59.3826 92.6031 59.3257 92.2338 59.4252C93.2275 58.0873 94.1428 56.693 94.9752 55.2493C95.4439 54.5675 94.6058 54.3544 94.0803 54.6669ZM36.5552 78.0321C37.2878 75.9561 37.8251 73.8162 38.1602 71.6404C39.7246 69.8292 41.5481 68.2592 43.5718 66.9816C40.4612 70.1774 38.7283 74.2681 36.5552 78.0321ZM83.4275 76.6117C82.4794 78.8263 81.2321 80.9004 79.7203 82.7761C80.5294 79.7686 82.0603 77.0041 84.1803 74.7226C84.3934 74.4385 84.6206 74.1829 84.8479 73.913C84.2229 74.7368 83.7684 75.6458 83.3139 76.5549L83.4275 76.6117Z" fill="#FBC820"/>
<path id="Vector_6" d="M106.338 68.5724C104.807 68.7671 103.346 69.3274 102.077 70.2059C101.88 70.2437 101.694 70.3228 101.53 70.4378C101.366 70.5529 101.228 70.7013 101.125 70.8734C100.472 71.3564 99.8613 71.8819 99.2789 72.3932C98.6966 72.9046 98.4835 73.1602 98.0858 73.5437C98.5403 72.4784 98.9238 71.3848 99.2789 70.2911C100.393 66.7775 101.122 63.1532 101.452 59.482C101.601 57.6955 101.601 55.8996 101.452 54.113C101.451 54.0366 101.43 53.9616 101.393 53.8948C101.356 53.828 101.303 53.7712 101.239 53.7295C101.492 52.455 101.654 51.1638 101.722 49.8661C101.722 49.1275 100.827 49.3832 100.5 49.6814L100.032 50.1502C100.032 50.065 100.032 49.9655 100.032 49.8661C100.459 49.5968 100.868 49.2978 101.253 48.9713C101.551 48.7156 101.878 47.8634 101.154 47.9344C100.799 47.9344 100.444 48.0196 100.103 48.0622V47.6503C100.103 47.3236 99.8897 47.1816 99.5914 47.1532C96.0379 46.935 92.4763 47.4176 89.109 48.5736C85.5855 49.5037 82.1996 50.8934 79.0386 52.7069C79.5195 51.2356 79.6125 49.6652 79.3085 48.1475C79.1806 47.6361 78.5131 47.7924 78.2006 47.977L78.0727 48.0622C78.229 47.6077 77.9449 47.1106 77.2631 47.3804C73.2792 48.9466 69.3818 50.7246 65.5876 52.7069C67.008 51.7978 68.5278 50.903 70.0192 50.0365C72.7463 48.4457 75.5161 46.9401 78.3284 45.4913C78.9818 45.1505 79.2516 44.071 78.2147 44.1846C72.1238 45.2409 66.3193 47.553 61.1703 50.974C55.5723 54.4972 50.4746 58.7588 46.0149 63.6437C44.8502 64.9221 43.7281 66.2572 42.6628 67.635C43.5292 64.5244 44.0832 61.3143 44.6371 58.1469C44.907 57.2947 45.1627 56.4282 45.3757 55.5618C45.5888 54.6954 44.8076 54.7806 44.3389 55.0789C43.8701 55.3771 43.6713 55.5334 43.3588 55.7749C43.3588 55.6186 43.4866 55.4766 43.5576 55.3203C43.9127 54.4823 42.7054 54.6528 42.3503 54.9652C36.3564 60.249 33.4446 67.7486 30.1777 74.8505C30.334 70.149 30.6181 65.4618 30.5044 60.7604C30.5044 59.8797 29.3823 60.4195 29.0841 60.8882C28.7858 61.3569 28.6153 62.0103 28.3881 62.5784C28.1608 63.1466 27.8483 63.6437 27.5642 64.1693C27.9193 63.3455 28.246 62.5074 28.5301 61.641C28.8142 60.7746 27.6211 61.0302 27.3086 61.4706C20.7538 70.6866 16.7327 81.4617 15.6473 92.7188C15.3206 96.0424 15.2212 99.3945 15.2212 102.661C15.2212 103.002 15.7467 102.818 15.7467 102.562C15.7467 101.312 15.7467 100.062 15.8604 98.8264C16.0762 98.8576 16.2966 98.8244 16.4936 98.7309C16.6907 98.6374 16.8558 98.4878 16.9683 98.3009C18.6443 93.7699 19.2409 88.9264 20.2919 84.2249C21.5198 79.2781 23.3667 74.5059 25.7888 70.0212C26.2149 69.169 26.6694 68.331 27.1097 67.4788C27.2255 67.4619 27.3362 67.4201 27.4343 67.3564C27.5324 67.2926 27.6155 67.2084 27.6779 67.1094C28.104 66.3708 28.6153 65.6038 29.0982 64.8084C29.0272 69.2116 28.7289 73.6148 28.6437 78.0179C28.6437 78.7707 29.709 78.515 29.9363 78.0179C30.5044 76.8674 31.0442 75.7169 31.5839 74.538C31.7477 74.5375 31.9094 74.5003 32.0569 74.429C32.2044 74.3577 32.334 74.2542 32.4361 74.1261C36.2332 69.2245 39.5172 63.9462 42.2367 58.3741C42.6859 57.9129 43.1601 57.4767 43.6571 57.0674C43.6127 57.1932 43.5748 57.3212 43.5434 57.4509C43.4776 57.519 43.4289 57.6017 43.4014 57.6924C41.9675 61.3363 40.3217 64.8933 38.4727 68.3452C37.9614 69.2684 39.2965 69.3962 39.7084 68.7145C40.5607 67.2941 41.3845 65.8737 42.1373 64.3397C41.6499 66.8426 40.9074 69.2889 39.9215 71.6404C39.8922 71.7101 39.8797 71.7857 39.885 71.8611C39.8903 71.9365 39.9132 72.0097 39.9519 72.0746C39.9906 72.1395 40.0439 72.1945 40.1077 72.235C40.1715 72.2756 40.244 72.3006 40.3192 72.308C40.5034 72.3233 40.6883 72.2877 40.8536 72.205C41.0189 72.1223 41.1583 71.9958 41.2566 71.8393C41.768 71.0297 42.3219 70.2343 42.8759 69.4531C42.9694 69.4226 43.0562 69.3743 43.1315 69.311L43.5292 68.9843C43.571 69.049 43.6251 69.1047 43.6885 69.1483C43.7518 69.1919 43.8232 69.2225 43.8985 69.2383C43.9738 69.2542 44.0515 69.2549 44.127 69.2406C44.2026 69.2263 44.2746 69.1971 44.3389 69.1548C51.81 65.4476 58.2443 60.107 65.1189 55.434L68.8687 53.8573C72.0063 52.5974 75.0615 51.141 78.0159 49.4968C78.1262 51.0339 77.8272 52.5728 77.1495 53.9568C76.0307 54.7147 75.0667 55.6788 74.3087 56.7975C74.256 56.8618 74.2203 56.9382 74.2048 57.0199C74.1892 57.1015 74.1944 57.1858 74.2199 57.2649C74.2453 57.344 74.2902 57.4155 74.3504 57.4728C74.4105 57.5301 74.4841 57.5714 74.5644 57.5929L74.3087 57.8486C73.2435 58.5588 72.2066 59.269 71.2123 60.107C70.8288 60.4053 71.1413 60.8882 71.539 60.5757L72.5759 59.8371C71.9951 60.5996 71.5176 61.4354 71.1555 62.3228C71.1269 62.3933 71.1165 62.4698 71.1251 62.5454C71.1338 62.621 71.1613 62.6932 71.2051 62.7554C71.249 62.8176 71.3077 62.8678 71.3759 62.9014C71.4442 62.935 71.5198 62.951 71.5958 62.9478C76.0984 62.8057 80.1181 59.7519 83.74 57.4083C85.4272 56.296 87.2153 55.3449 89.0806 54.5675C91.1402 53.7153 93.2423 53.0193 95.3018 52.1955C96.3813 51.7694 97.4608 51.3149 98.5119 50.7751C98.5119 51.2675 98.4551 51.741 98.3415 52.1955C97.2135 54.0267 96.3211 55.9928 95.6854 58.0474C94.5491 61.5132 93.8105 65.0783 92.8446 68.6008C92.4085 70.3801 91.8484 72.1267 91.1686 73.8278C91.1382 73.9038 91.127 73.9861 91.136 74.0675C91.1451 74.1488 91.1741 74.2267 91.2205 74.2941C91.2668 74.3616 91.3292 74.4165 91.4019 74.4541C91.4746 74.4917 91.5555 74.5108 91.6373 74.5096C91.8375 74.5 92.0307 74.4334 92.1943 74.3177C92.3579 74.2019 92.4849 74.0418 92.5605 73.8562C93.9809 70.0212 95.7422 66.1294 97.1767 62.1523C97.1057 62.3796 97.0347 62.6211 96.9779 62.8625C96.2843 65.4265 95.8091 68.0446 95.5575 70.6888C95.5575 71.2285 95.4723 71.7683 95.4581 72.308C95.4581 73.1886 96.8785 72.7199 96.8785 71.9955C96.8785 71.4984 96.9495 70.9871 96.9779 70.4757C97.6234 66.2554 98.66 62.1042 100.074 58.0759C99.8962 61.0934 99.4205 64.086 98.6539 67.01C97.8527 70.9919 96.2534 74.7702 93.9525 78.1173L93.5406 78.6713C93.0008 79.4099 94.1656 79.7366 94.6201 79.1826C94.6658 79.1367 94.7041 79.084 94.7337 79.0264C96.1717 77.0156 97.8035 75.1507 99.6056 73.4585L100.06 73.0466C99.6766 74.0267 99.3073 75.0209 98.9522 76.0152C98.7878 76.0849 98.642 76.1919 98.5261 76.3277C97.0544 78.5051 95.9374 80.9022 95.2166 83.4295C94.3786 85.972 93.7253 88.5713 93.0293 91.1564C92.8162 91.9376 93.7252 91.966 94.2082 91.5541C93.9667 92.5625 93.7394 93.5568 93.5406 94.5653C93.3417 95.5737 94.7195 95.3039 94.961 94.5653C96.1115 91.2274 97.4466 87.8753 98.4409 84.4664C98.2562 85.3186 98.0716 86.1709 97.9154 87.0373C96.5922 90.5412 96.1058 94.3058 96.495 98.031C96.6086 98.7412 97.6455 98.244 97.9154 97.9032C99.7589 94.7133 101.159 91.2871 102.077 87.7191C103.15 83.8803 103.971 79.9753 104.534 76.0294C104.634 75.3618 104.705 74.6942 104.79 74.0125C105.358 72.379 105.969 70.774 106.693 69.1974C106.713 69.133 106.719 69.0654 106.711 68.9987C106.704 68.9319 106.682 68.8674 106.649 68.809C106.616 68.7506 106.571 68.6995 106.518 68.6589C106.464 68.6182 106.403 68.5888 106.338 68.5724ZM21.7407 74.2539C19.8111 79.1485 18.3834 84.2263 17.4796 89.4093C16.9825 91.9092 16.5422 94.4232 16.0592 96.9231C16.6471 87.5903 19.1312 78.4753 23.3599 70.1348C23.8997 69.1122 24.4678 68.1037 25.0644 67.1094C23.9849 69.4531 22.7634 71.7967 21.7407 74.2113V74.2539ZM51.4265 63.6579C49.6653 64.8226 47.8614 65.9447 46.0149 66.9674V66.8964C49.2818 64.2829 52.6623 61.8351 56.1564 59.5531C57.2501 58.9849 58.3579 58.4452 59.4658 57.9338C56.8382 59.8229 54.1678 61.783 51.4265 63.6153V63.6579ZM52.8469 60.0218C51.4554 60.839 50.1089 61.7304 48.813 62.6921L47.6625 63.6437C49.3386 61.873 51.0951 60.1875 52.9321 58.5872C57.6762 54.3809 63.0241 50.9097 68.7977 48.2895C70.4268 47.5768 72.1018 46.9741 73.8116 46.4856C66.5208 50.4875 59.5201 54.9964 52.8611 59.9792L52.8469 60.0218ZM90.0607 52.3802C86.7105 53.6762 83.2684 54.7206 79.763 55.505C84.3149 53.1899 89.1324 51.4393 94.1087 50.2922C94.3786 50.2212 94.6627 50.1786 94.9326 50.1218C93.3723 50.9833 91.7483 51.724 90.0749 52.3376L90.0607 52.3802ZM92.2765 49.6246C92.9583 49.4542 93.6968 49.2979 94.336 49.1701C92.5321 49.6246 90.7282 50.1502 88.967 50.7609C87.2057 51.3717 85.757 51.9541 84.1945 52.6216C86.7847 51.34 89.497 50.3217 92.2906 49.582L92.2765 49.6246ZM78.7829 59.3542C76.9731 60.5332 74.9442 61.3351 72.8173 61.712C73.6828 60.05 74.8993 58.596 76.3825 57.4509C79.0887 56.9908 81.7641 56.3647 84.3934 55.576L85.2314 55.3061C85.0041 55.434 84.7769 55.5618 84.5638 55.7038C82.6321 56.8543 80.7572 58.1611 78.7971 59.3116L78.7829 59.3542ZM96.2109 50.6899C96.7447 50.358 97.2571 49.9927 97.7449 49.5962C98.0574 49.5962 98.3841 49.511 98.6965 49.4684C97.8913 49.9213 97.0615 50.3292 96.2109 50.6899ZM98.8244 57.4793C99.2923 55.7811 99.6482 54.054 99.8897 52.3091C99.9891 52.1671 100.103 52.0393 100.216 51.8972C100.056 53.1969 99.8234 54.4867 99.5203 55.7607C99.2221 56.2862 99.0516 56.8543 98.7676 57.4367L98.8244 57.4793ZM102.816 72.4643C102.816 72.0665 102.73 71.6546 102.674 71.2427C103.033 71.0056 103.408 70.7921 103.796 70.6036C103.398 71.1859 103.071 71.7967 102.759 72.4216L102.816 72.4643ZM99.9891 77.677C100.415 76.4839 100.841 75.2908 101.282 74.1119C101.284 74.8245 101.236 75.5364 101.14 76.2425C100.685 77.4356 100.259 78.6429 99.8897 79.8644C99.7192 80.4041 99.5772 80.9439 99.421 81.4836C99.6876 80.2275 99.8773 78.9563 99.9891 77.677ZM99.2931 92.3069C98.9096 93.358 98.4693 94.3806 97.9864 95.3891C97.9821 93.7288 98.1776 92.074 98.5687 90.4604C98.7585 90.3945 98.9226 90.2702 99.0374 90.1053C100.201 87.8524 101.184 85.511 101.978 83.1029C101.302 86.2213 100.405 89.2876 99.2931 92.2785V92.3069Z" fill="#FF000B"/>
<path id="Vector_7" d="M100.685 105.033C99.3358 105.459 98.0717 106.099 96.7649 106.638C96.6591 106.563 96.5325 106.523 96.4027 106.523C96.2729 106.523 96.1463 106.563 96.0405 106.638C95.4582 106.951 94.8758 107.278 94.3077 107.633C93.7731 107.812 93.1945 107.812 92.66 107.633C92.2907 107.462 91.5947 108.059 92.0208 108.3C92.3054 108.458 92.6199 108.555 92.9441 108.584C90.866 110.05 88.9003 111.669 87.0637 113.428C84.2824 115.896 81.8883 118.769 79.9619 121.95C79.692 122.419 79.9619 122.916 80.5442 122.788C84.0235 121.767 87.2212 119.959 89.8903 117.504C92.2917 115.5 94.5819 113.366 96.7507 111.113C96.9069 110.971 97.049 110.814 97.191 110.672L97.9722 109.877C99.1528 108.647 100.236 107.327 101.211 105.928C101.329 105.859 101.415 105.745 101.45 105.611C101.485 105.478 101.465 105.337 101.395 105.218C101.326 105.099 101.212 105.013 101.078 104.979C100.945 104.944 100.804 104.964 100.685 105.033ZM86.4814 115.473C86.5183 115.548 86.5705 115.614 86.6347 115.668C86.6989 115.721 86.7735 115.761 86.8538 115.783C86.9341 115.806 87.0184 115.812 87.101 115.8C87.1837 115.788 87.2629 115.759 87.3336 115.715C90.288 114.465 92.3901 112.093 94.5207 109.777C94.6912 109.777 94.8474 109.65 95.0321 109.607C95.515 109.465 95.8275 108.868 95.6428 108.57L96.4808 107.718C97.3615 107.377 98.2421 106.993 99.1227 106.653C98.5261 107.391 97.9154 108.073 97.262 108.812C97.181 108.838 97.1044 108.876 97.0348 108.925C93.6543 111.255 91.1118 114.72 87.4331 116.652C87.1348 116.808 86.7655 117.149 86.8649 117.533C86.8972 117.622 86.9545 117.701 87.0301 117.758C87.1056 117.816 87.1962 117.851 87.291 117.859C85.6547 119.156 83.8297 120.196 81.8794 120.942C83.2291 118.959 84.786 117.126 86.524 115.473H86.4814Z" fill="#FF000B"/>
<path id="Vector_8" d="M95.1173 122.021C93.5597 123.264 91.857 124.313 90.0466 125.146C91.3502 124.116 92.5839 123.001 93.7395 121.808C94.052 121.481 93.5975 121.282 93.3134 121.524C91.0958 123.486 88.7205 125.263 86.2115 126.836C82.6051 128.07 79.169 129.755 75.9848 131.85C75.3315 132.333 75.6013 133.27 76.4536 132.901C79.5573 131.687 82.5471 130.199 85.3877 128.455C87.078 127.774 88.7682 127.106 90.4159 126.325C87.8856 128.414 85.1435 130.233 82.2345 131.751C77.7887 134.052 72.576 134.591 68.3432 137.432C67.9597 137.688 67.6757 138.412 68.3432 138.611C71.4397 139.605 74.7491 137.517 77.2774 135.941C77.3519 135.902 77.4163 135.847 77.4656 135.779C77.515 135.711 77.5478 135.633 77.5616 135.55C77.5754 135.467 77.5698 135.383 77.5451 135.303C77.5204 135.222 77.4773 135.149 77.4194 135.088C79.447 134.447 81.4147 133.63 83.2998 132.645C88.0233 130.054 92.3322 126.769 96.0831 122.902C96.6371 122.206 95.7991 121.467 95.1173 122.021ZM75.5587 135.642C74.1195 136.503 72.5362 137.095 70.8857 137.389C72.4048 136.709 73.9657 136.125 75.5587 135.642Z" fill="#FF000B"/>
<path id="Vector_9" d="M120.542 33.5176C120.031 36.7276 119.557 39.9472 119.122 43.1761C119.193 41.2018 119.193 39.2275 119.122 37.2674C119.122 36.4862 118.141 36.8129 117.843 37.2674C116.572 39.3798 115.781 41.7463 115.528 44.1988C115.133 47.0797 114.929 49.9836 114.917 52.8915C114.846 55.505 114.917 58.1469 114.69 60.7603C114.576 62.3085 114.463 63.871 114.363 65.4334C114.108 66.4845 113.866 67.5497 113.681 68.615C113.15 71.0212 113.049 73.5027 113.383 75.9441C113.377 75.9865 113.377 76.0296 113.383 76.072C113.213 77.2793 112.986 78.4866 112.701 79.6797C112.581 78.3827 112.692 77.0746 113.028 75.8163C113.227 75.1203 112.19 75.305 112.005 75.8163C111.239 78.2205 111.136 80.787 111.707 83.2449C111.849 83.9977 112.915 83.3585 113.128 82.9466C114.045 80.3988 114.664 77.7536 114.974 75.0635C117.09 71.0581 117.474 66.243 117.815 61.8256C118.34 56.0447 119.15 50.2922 119.789 44.5255C120.187 40.8183 120.556 37.1253 121.11 33.4324C121.153 33.0631 120.585 33.2477 120.542 33.5176ZM117.786 39.9945C117.803 44.8902 117.414 49.7789 116.622 54.6101C116.494 55.3913 116.352 56.1725 116.21 56.9395C116.309 53.1755 116.21 49.3974 116.65 45.5765C116.811 43.678 117.192 41.8047 117.786 39.9945ZM115.897 68.0185C115.741 68.8991 115.571 69.7797 115.343 70.6603C115.485 68.7144 115.585 66.7685 115.713 64.8226C115.968 63.8426 116.224 62.8625 116.465 61.9819C116.607 61.4137 116.721 60.8314 116.849 60.249V60.6609C116.565 63.0614 116.323 65.5612 115.897 68.0185Z" fill="#FF000B"/>
<path id="Vector_10" d="M120.031 76.1714C119.605 77.7054 119.164 79.2678 118.724 80.816C118.534 80.8627 118.358 80.9554 118.213 81.0859C118.333 79.892 118.362 78.6906 118.298 77.4923C118.298 76.6685 117.076 77.0378 116.877 77.6344C115.372 83.3159 114.037 89.253 112.048 94.8493C110.756 97.5338 109.463 100.233 108.313 102.988C107.986 103.755 109.037 103.727 109.491 103.329C109.349 103.741 109.207 104.139 109.08 104.565C108.824 105.403 109.974 105.204 110.273 104.735C111.068 103.499 111.778 102.221 112.46 100.914C112.62 100.94 112.784 100.93 112.939 100.883C113.094 100.836 113.236 100.754 113.355 100.644C114.179 99.5934 114.903 98.4713 115.67 97.3918C115.749 98.0312 115.72 98.6794 115.585 99.3093C115.291 100.747 114.814 102.141 114.165 103.457C112.835 106.484 111.096 109.313 108.994 111.865C108.273 112.871 107.384 113.746 106.367 114.45C105.713 114.806 105.827 115.871 106.622 115.445C109.222 114.024 111.04 111.354 112.602 108.939C114.58 106.043 116.024 102.815 116.863 99.4087C117.246 98.1198 117.124 96.7336 116.522 95.5311C116.281 95.1476 115.613 95.3606 115.386 95.6447C114.932 96.2413 114.491 96.8662 114.065 97.4912C114.065 97.3208 114.165 97.1503 114.207 96.9799C116.082 92.2661 117.666 87.442 118.951 82.5347C119.534 80.4325 120.102 78.2736 120.67 76.1856C120.968 75.6459 120.144 75.7737 120.031 76.1714Z" fill="#FF000B"/>
<path id="Vector_11" d="M74.5786 28.5322C65.8149 30.89 59.1818 37.5374 51.5117 42.0115C50.0309 42.8774 48.488 43.6323 46.8955 44.2699C53.7559 38.2049 61.8237 33.6882 69.096 28.1203C69.4511 28.0209 69.8062 27.893 70.1754 27.8078C70.5447 27.7226 70.63 27.1828 70.2465 27.2397L70.7436 26.8562C71.1271 26.5579 71.2265 25.6631 70.4879 25.8903C61.0709 28.8731 53.4435 35.0801 45.3757 40.577C43.0889 42.1678 40.8163 43.5882 38.3591 45.0085C37.7767 45.3352 38.1034 46.2301 38.7568 45.875C42.5139 43.7213 46.1421 41.35 49.6226 38.7731C53.681 35.7922 57.9538 33.1146 62.406 30.7622C63.5565 30.194 64.7212 29.6827 65.9001 29.1998C58.571 34.4836 50.6879 39.0146 44.14 45.3068C43.7707 45.6619 43.9695 46.3437 44.5377 46.1733C53.202 43.6592 59.7357 37.0402 67.4341 32.6797C69.6501 31.3972 72.0101 30.3817 74.465 29.6543C74.7775 29.5691 75.1468 29.3134 75.1468 28.9583C75.1447 28.8901 75.1273 28.8233 75.0958 28.7628C75.0644 28.7022 75.0197 28.6495 74.9652 28.6086C74.9106 28.5677 74.8475 28.5396 74.7806 28.5263C74.7137 28.5131 74.6447 28.5151 74.5786 28.5322Z" fill="#FF000B"/>
<path id="Vector_12" d="M114.534 13.0642C111.238 13.8454 108.682 16.2174 106.139 18.4048C99.3215 22.5665 93.2565 27.8929 86.3961 31.9978C85.0752 32.7932 83.7116 33.5318 82.3197 34.1993C88.7255 27.5804 96.9779 22.9926 104.492 17.7656C105.259 17.2259 104.648 16.4447 103.881 16.885C95.5717 21.6432 86.8365 25.5777 79.0102 31.245C76.8837 32.7828 74.8753 34.4778 73.002 36.3157C72.6753 36.6424 72.8458 37.2531 73.3713 37.0969C75.593 36.296 77.6701 35.14 79.5215 33.6738C81.5385 32.2534 83.5696 30.9751 85.5865 29.6257C83.3942 31.4272 81.3561 33.4084 79.4931 35.5487C79.0244 36.0884 79.4931 36.7134 80.1181 36.4435C83.7689 34.9102 87.2529 33.0064 90.5152 30.762C89.7482 31.529 89.0096 32.3387 88.2994 33.1767C87.5892 34.0147 88.6829 34.5118 89.2795 33.8442C93.1486 29.9174 97.376 26.3605 101.907 23.2199C102.986 22.4244 104.051 21.6148 105.102 20.7768C106.154 19.9388 107.489 19.1292 108.653 18.277C108.781 18.2122 108.884 18.1082 108.948 17.9804C109.012 17.8525 109.033 17.7076 109.008 17.5668C110.57 16.1144 112.425 15.0148 114.449 14.3425C114.789 14.2573 115.187 13.9732 115.201 13.5897C115.212 13.505 115.2 13.419 115.167 13.3401C115.135 13.2612 115.082 13.192 115.015 13.1392C114.948 13.0864 114.869 13.0518 114.784 13.0386C114.7 13.0255 114.614 13.0343 114.534 13.0642ZM75.6439 35.2078C80.9454 30.8347 86.731 27.0841 92.8872 24.0295C90.6857 25.4498 88.4983 26.9554 86.2825 28.4042C84.0667 29.853 82.0214 31.245 79.8056 32.6653C78.4421 33.4749 77.0927 34.455 75.6439 35.2078Z" fill="#FF000B"/>
<path id="Vector_13" d="M119.448 13.9876C121.437 11.9565 123.411 9.92532 125.414 7.90839C125.755 7.55329 125.243 7.28343 124.945 7.58171C117.843 14.5699 110.741 21.4303 103.852 28.5322C101.864 30.5776 99.8991 32.6324 97.9579 34.6966C97.3898 35.2932 98.0858 35.8187 98.6965 35.421C101.409 33.5786 104.017 31.587 106.509 29.4555C105.756 30.5481 105.063 31.6814 104.435 32.8502C104.151 33.3899 104.619 33.8444 105.173 33.5887C107.247 32.5945 108.597 30.819 110.358 29.4128C110.869 29.0151 110.486 28.4612 109.932 28.7879C108.813 29.5565 107.741 30.3913 106.722 31.2877C108.072 29.1269 109.602 27.0838 111.295 25.1801C113.838 22.8223 116.338 20.3935 118.837 18.0072C120.641 16.2886 122.445 14.5699 124.292 12.8939C124.917 12.3258 124.121 11.644 123.51 12.1269C119.805 15.0944 116.285 18.2868 112.971 21.686C112.091 22.6093 111.238 23.5325 110.386 24.5268C107.943 26.7852 105.429 28.9867 102.816 31.0605C108.27 25.2654 113.88 19.6407 119.448 13.9876Z" fill="#FF000B"/>
<path id="Vector_14" d="M134.178 11.3882C134.391 10.9479 133.751 10.8627 133.581 11.2178C132.004 14.442 130.016 17.4532 128.34 20.6207C126.548 23.6279 125.401 26.9752 124.974 30.4496C124.974 31.0036 125.598 30.9042 125.911 30.7337C127.871 29.5832 129.036 27.2396 130.03 25.2937C130.428 24.5125 129.391 24.4983 129.022 24.9954C128.397 25.8618 127.885 26.7993 127.289 27.6799C126.996 28.1305 126.663 28.5536 126.294 28.9441C126.772 25.9419 127.798 23.0531 129.32 20.4218C130.854 17.3822 132.672 14.4704 134.178 11.3882Z" fill="#FF000B"/>
<path id="Vector_15" d="M35.6177 39.1567C35.987 38.8158 35.4615 38.5601 35.1348 38.83C29.2303 44.013 24.0938 50.0104 19.88 56.6415C17.7814 59.9913 15.8842 63.4632 14.1985 67.0386C12.7781 69.8793 11.4714 72.7911 10.2073 75.6887C9.46143 77.2921 8.88081 78.9673 8.47439 80.6884C8.08573 82.0193 8.16597 83.4434 8.70166 84.7223C8.97153 85.2336 9.72434 84.6512 9.86638 84.3245C10.7612 82.3218 11.4998 80.2481 12.1958 78.1601C11.0543 82.4272 10.2844 86.7851 9.89477 91.185C9.43014 96.1427 9.59241 101.139 10.3777 106.056C10.4771 106.596 11.372 106.056 11.3151 105.644C10.4179 96.8763 11.0183 88.0195 13.0906 79.4527C15.2012 70.7774 18.7749 62.5252 23.6582 55.0507C26.3282 50.9415 29.4331 47.1319 32.919 43.6877C33.5298 43.0911 32.6349 42.6366 32.1094 43.1337C28.7249 46.4373 25.5914 49.9886 22.735 53.7581C23.9707 51.94 25.2632 50.1788 26.641 48.4885C29.3757 45.14 32.3778 42.0192 35.6177 39.1567ZM9.48287 82.2934C9.49671 81.6429 9.57762 80.9956 9.72433 80.3617C10.0777 78.9041 10.5528 77.4787 11.1447 76.1006C11.7555 74.6802 12.4088 73.1746 13.0764 71.7116L12.2668 74.1405C11.4146 76.8534 10.5339 79.6089 9.48287 82.2934Z" fill="#FF000B"/>
<path id="Vector_16" d="M12.906 124.109C9.87359 118.817 7.33005 113.259 5.30701 107.505C5.51487 106.166 5.5673 104.808 5.46325 103.457C5.282 101.127 4.97857 98.8089 4.55421 96.5112C4.12188 94.3585 3.82303 92.1812 3.65937 89.9916V89.7786C3.85822 87.9463 4.0997 86.1282 4.34117 84.3386C4.65365 82.1086 4.99453 79.8928 5.30701 77.677C5.30701 77.5066 5.20759 77.464 5.06555 77.4782C5.42022 75.4326 5.60549 73.3613 5.61949 71.2853C5.61949 70.8308 5.06554 70.774 4.76726 71.0297C2.70772 72.7483 1.92652 75.5607 1.51462 78.1315C1.03426 81.1848 0.815666 84.2735 0.861234 87.364C0.787794 90.9802 1.02063 94.5961 1.55723 98.173C1.81289 99.707 2.15377 101.227 2.52307 102.747C2.53005 102.803 2.53005 102.86 2.52307 102.917C2.6913 105.181 3.10567 107.419 3.75881 109.593C3.88664 110.019 4.36956 109.863 4.63943 109.593C4.83829 110.147 5.03714 110.715 5.2644 111.269C7.1365 115.943 9.39811 120.452 12.0254 124.748C12.2526 125.245 13.1759 124.549 12.906 124.109ZM4.14229 102.349C4.14229 103.102 4.28435 103.869 4.31275 104.636C3.90085 103.215 3.53154 101.795 3.21906 100.375C3.13384 98.9542 3.11963 97.5338 3.14804 96.1135C3.51733 98.173 3.88663 100.261 4.14229 102.349ZM2.32422 80.0916C2.47184 78.4589 2.78596 76.8455 3.26167 75.2766C3.51315 74.4344 3.87114 73.6277 4.32695 72.8761C4.11389 78.3446 2.43787 83.6568 2.40946 89.1394C2.41427 90.2025 2.47589 91.2646 2.59409 92.3211C2.50887 93.268 2.43786 94.2622 2.38104 95.3039C2.13922 93.0771 2.01122 90.8395 1.99754 88.5997C1.94296 85.7598 2.05203 82.919 2.32422 80.0916Z" fill="#FF000B"/>
<path id="Vector_17" d="M106.75 116.368C99.8179 122.6 92.5488 128.446 84.9757 133.881L83.2997 135.017C78.3426 137.049 73.4849 139.378 68.3716 141.011C61.0488 143.398 53.3034 144.207 45.6456 143.383C41.4726 142.931 37.4439 141.595 33.8281 139.463C33.3878 139.179 32.5498 139.918 33.0469 140.273C35.9723 142.327 39.33 143.683 42.8617 144.236C42.6912 144.506 42.6912 144.818 43.0463 144.946C43.4014 145.074 44.0548 145.287 44.5661 145.429L45.7024 145.741L46.0007 145.812C48.7381 146.478 51.5499 146.788 54.3667 146.736H55.2331C59.1524 146.588 63.0351 145.924 66.7808 144.761C72.8891 143.074 78.8659 140.943 84.6633 138.384C87.8305 137.032 90.72 135.106 93.1855 132.702C93.5264 132.347 93.3702 131.736 92.802 131.878C90.7651 132.382 88.759 133.004 86.7938 133.739C89.8334 131.538 92.7736 129.208 95.6428 126.822C99.5914 123.541 103.426 120.132 107.276 116.737C107.574 116.354 107.048 116.098 106.75 116.368ZM54.8354 144.648C58.6156 144.365 62.362 143.737 66.028 142.773C70.0761 141.594 74.0348 140.127 77.8739 138.384C72.6024 141.534 66.8416 143.78 60.8294 145.031H60.6732L59.5368 145.23C58.6136 145.344 57.6904 145.443 56.6961 145.5C53.3891 145.714 50.0686 145.446 46.8387 144.704C49.5019 144.887 52.1751 144.868 54.8354 144.648ZM90.8703 133.37C89.1221 134.792 87.2157 136.007 85.1888 136.992C82.3056 138.38 79.3356 139.581 76.2973 140.585L74.7917 141.082C77.728 139.579 80.5736 137.905 83.3139 136.069C85.7732 135.01 88.297 134.109 90.8703 133.37Z" fill="#FF000B"/>
<path id="Vector_18" d="M36.1574 141.04C30.6486 137.924 25.8728 133.661 22.1525 128.541C16.3663 120.443 12.8546 110.943 11.9827 101.028C11.9827 100.602 11.2725 100.829 11.3009 101.17C12.1815 113.953 17.3375 126.652 26.5983 135.6C29.1841 138.128 32.145 140.241 35.3762 141.864C35.8449 142.091 36.6972 141.338 36.1574 141.04Z" fill="#FBC820"/>
<path id="Vector_19" d="M124.093 91.5969C121.738 98.307 118.606 104.719 114.761 110.701C110.86 117.132 106.014 122.939 100.387 127.93C98.416 129.618 96.2902 131.116 94.0376 132.404C103.171 123.882 110.017 113.073 115.428 101.88C117.076 98.4573 118.582 94.9916 120.002 91.4691C120.3 90.7447 119.164 90.8583 118.894 91.3128C115.826 96.5398 113.554 102.193 110.528 107.448C107.298 112.603 103.604 117.452 99.4918 121.936C97.3062 124.426 95.3031 127.07 93.4979 129.848C93.1144 130.473 94.0376 130.544 94.3501 130.103C97.8442 125.16 101.977 120.729 105.713 116.042C106.594 114.948 107.446 113.84 108.27 112.704C105.434 117.475 102.188 121.99 98.5686 126.197C96.1037 129.043 93.4256 131.698 90.5577 134.137C90.0605 134.563 90.2026 135.359 90.9696 135.032C97.5885 132.191 103.128 127.191 107.744 121.766C112.755 115.844 116.993 109.31 120.357 102.321C122.038 98.8494 123.49 95.2719 124.703 91.6111C124.803 91.2276 124.192 91.3128 124.093 91.5969Z" fill="#FBC820"/>
<path id="Vector_20" d="M78.3852 35.0658C67.9028 39.327 59.551 47.1958 50.8441 54.1841C49.0545 55.6139 47.2269 56.9964 45.3615 58.3316C46.0007 57.4367 46.6398 56.5419 47.2932 55.6755V55.6045C48.9047 53.9642 50.6223 52.4316 52.4349 51.0166C54.0968 49.6815 55.8154 48.4174 57.5057 47.139C59.5226 45.605 61.4401 43.9574 63.4144 42.3808C65.8115 40.3161 68.4777 38.5864 71.3401 37.239C72.0929 36.8981 71.9651 35.8186 71.0703 36.1595C70.4027 36.4436 69.7493 36.7703 69.1101 37.1112C63.9324 39.7747 59.0723 43.0147 54.6223 46.7697C52.2566 48.6413 50.0477 50.7029 48.0176 52.9341C47.4637 53.5733 46.9523 54.2267 46.441 54.9085C45.1294 56.1677 44.0437 57.6426 43.2309 59.269C41.8664 61.2656 40.2207 63.0548 38.3448 64.5812C38.9972 63.1651 39.8277 61.8382 40.8163 60.6326C42.0946 58.8997 43.5008 57.2947 44.8502 55.6328C48.0119 51.5719 51.4327 47.7194 55.0911 44.0994C57.2483 42.0088 59.5816 40.1079 62.0651 38.4179C62.4344 38.1623 62.0651 37.7503 61.781 37.9918C57.2535 41.0718 53.1306 44.7079 49.509 48.8151C47.7477 50.761 46.0717 52.7779 44.4098 54.809C42.9895 56.4709 41.5691 58.0617 40.305 59.7519C38.7528 61.5003 37.5692 63.5438 36.8251 65.7601C36.6972 66.2146 37.1517 66.4987 37.5637 66.2715C39.893 64.882 41.9135 63.0307 43.5008 60.8314C43.6364 60.8172 43.7673 60.7736 43.8843 60.7036C53.0457 54.4824 60.9288 46.4998 70.218 40.5201C72.9181 38.7762 75.7374 37.2241 78.6551 35.8755C79.1664 35.5914 79.1664 34.6823 78.3852 35.0658Z" fill="#FBC820"/>
<path id="Vector_21" d="M53.8413 39.3271C46.5263 42.5513 41.0579 48.943 35.3764 54.1984C34.3111 55.1642 33.2032 56.0875 32.0811 57.0391C35.8167 51.4571 41.2283 47.0965 45.944 42.4093C46.2991 42.0684 45.7877 41.8127 45.4894 42.0968C40.092 47.48 34.027 52.2951 29.8653 58.8004C29.5244 59.3259 30.192 59.5532 30.5755 59.2833C37.095 54.9086 42.0522 48.6021 48.3444 43.9291C50.1767 42.5978 52.1094 41.4106 54.1253 40.3782C54.7361 39.9378 54.6651 38.9294 53.8413 39.3271Z" fill="#FBC820"/>
<path id="Vector_22" d="M12.9344 71.5269C13.7877 67.8429 14.8789 64.2181 16.2013 60.6753C17.6054 56.7269 19.6813 53.0509 22.3373 49.8094C22.7634 49.3123 22.2236 48.801 21.7123 49.1987L21.5845 49.2981C17.4512 52.636 15.0792 57.8203 13.0622 62.607C11.8691 65.3483 10.6476 68.118 9.61072 70.9446C9.73382 70.2439 9.87586 69.5479 10.0368 68.8566C10.8959 64.8379 12.1471 60.913 13.7724 57.1385C14.577 55.0484 15.8332 53.1618 17.4512 51.6133C17.6074 51.4712 17.4512 51.2724 17.2949 51.4002C15.8171 52.5358 14.6173 53.993 13.7866 55.6614C12.7567 57.5973 11.8919 59.6166 11.2015 61.6979C9.50957 66.4356 8.3519 71.3474 7.75003 76.342L7.66481 77.251C7.66481 77.4783 7.55118 77.7055 7.50857 77.9328C7.13493 79.6126 6.93031 81.3256 6.8978 83.0462C6.17329 89.0771 6.20192 95.1747 6.98302 101.199C8.43888 111.543 12.4141 121.371 18.5591 129.819C18.8289 130.188 19.6102 129.649 19.3403 129.265C15.5886 123.755 12.5978 117.764 10.4487 111.454C8.4138 105.271 7.28473 98.827 7.09665 92.3212C7.02563 90.219 7.09665 88.0601 7.09665 85.9721C7.15347 86.2941 7.2245 86.6208 7.30972 86.9522C7.45176 87.5203 8.375 87.0516 8.375 86.6113C8.375 83.245 8.46022 79.8929 8.7727 76.5551C9.30034 74.5464 9.9405 72.5689 10.6902 70.6321C11.5424 68.3737 12.5083 66.1579 13.5309 63.9421C14.3406 62.0104 15.1928 60.1071 16.1444 58.2606C14.5477 62.042 13.2604 65.9466 12.2952 69.9361C10.0504 78.0654 8.90394 86.4586 8.88634 94.8921C8.89618 99.9152 9.6574 104.909 11.1447 109.707C11.301 110.19 12.139 109.707 12.0254 109.323C9.90594 100.729 9.47183 91.8055 10.747 83.0462C11.2841 79.1724 12.0141 75.3279 12.9344 71.5269Z" fill="#FF6845"/>
<path id="Vector_23" d="M35.2627 139.151C30.9378 137.374 27.026 134.725 23.7719 131.367C20.7899 128.113 18.3188 124.426 16.4427 120.43C15.2896 118.042 14.2609 115.596 13.3605 113.101C13.2327 112.76 12.6362 113.101 12.7498 113.371C15.7468 122.021 19.8516 130.629 27.479 136.197C29.6857 137.809 32.1042 139.109 34.6661 140.06C35.1349 140.174 35.8592 139.407 35.2627 139.151Z" fill="#FF6845"/>
<path id="Vector_24" d="M81.8367 127.106C76.5813 129.762 71.7095 133.1 66.2126 135.373C60.5066 137.767 54.3183 138.788 48.1455 138.355C44.4486 138.082 40.789 137.435 37.2228 136.424C37.1471 136.411 37.0693 136.42 36.9987 136.45C36.9281 136.48 36.8678 136.53 36.8251 136.594C34.5902 135.366 32.4701 133.94 30.4902 132.333C27.1265 129.616 24.2454 126.35 21.968 122.674C19.8229 118.95 18.2387 114.93 17.2665 110.743C16.1743 106.066 15.396 101.321 14.9371 96.5395C14.9371 96.1986 14.298 96.5395 14.3264 96.8094C15.2354 105.459 16.2155 114.351 20.2919 122.177C24.4616 129.69 30.9345 135.666 38.7568 139.222C43.0552 141.225 47.651 142.516 52.364 143.043C52.8469 143.043 53.4861 142.134 52.8469 142.034C47.7482 141.249 42.8057 139.662 38.2028 137.333C44.0375 139.247 50.2209 139.857 56.3171 139.121C62.4133 138.384 68.2737 136.319 73.4849 133.072C76.4677 131.452 79.3937 129.734 82.206 127.83C82.5469 127.489 82.3481 126.836 81.8367 127.106Z" fill="#FF6845"/>
<path id="Vector_25" d="M97.3755 114.294C90.4866 122.773 82.2641 130.074 73.0303 135.912C72.5616 136.211 72.9451 136.722 73.3996 136.438C82.7823 130.644 91.1387 123.334 98.1283 114.806C98.6255 114.195 97.8158 113.754 97.3755 114.294Z" fill="#FF6845"/>
<path id="Vector_26" d="M115.144 98.6417C112.616 102.633 110.116 106.638 107.389 110.502C104.635 114.393 101.577 118.06 98.242 121.467C97.7875 121.922 98.4551 122.234 98.8386 121.879C102.239 118.55 105.277 114.87 107.901 110.899C110.628 106.951 113.128 102.86 115.684 98.8121C115.926 98.4144 115.329 98.3576 115.144 98.6417Z" fill="#FF6845"/>
<path id="Vector_27" d="M129.817 56.7833C127.09 65.9305 124.803 75.2482 121.579 84.2107C121.366 84.7931 122.275 84.651 122.445 84.2107C125.797 75.2766 127.843 65.9305 130.541 56.7833C130.698 56.3714 129.931 56.3714 129.817 56.7833Z" fill="#FF6845"/>
<path id="Vector_28" d="M123.723 64.4392C122.303 69.1974 121.579 74.1829 120.045 78.9412C119.874 79.4809 120.655 79.2963 120.812 78.9412C122.871 74.3676 123.042 69.1974 124.505 64.4392C124.618 63.9136 123.851 64.0415 123.723 64.4392Z" fill="#FF6845"/>
<path id="Vector_29" d="M139.404 13.0074C135.98 22.3141 133.055 31.7967 130.641 41.4149C129.987 44.0994 129.376 46.8123 128.865 49.5394C128.752 50.1218 129.803 49.8803 129.902 49.44C132.075 39.8524 134.532 30.3502 137.43 20.9615C138.24 18.3054 139.063 15.6635 139.958 13.0358C140.072 12.6523 139.504 12.7375 139.404 13.0074Z" fill="#FF6845"/>
<path id="Vector_30" d="M127.104 0.0962163C118.965 5.77771 111.224 11.8853 102.844 17.1407C100.5 18.6321 98.0858 19.9814 95.7422 21.4018C95.3303 21.6433 95.5433 22.2256 96.012 22.0126C100.43 19.8418 104.642 17.2746 108.597 14.3426C112.716 11.5018 116.721 8.46223 120.755 5.46524C122.99 3.8176 125.239 2.18891 127.502 0.579149C127.914 0.309278 127.559 -0.216266 127.104 0.0962163Z" fill="#FF6845"/>
<path id="Vector_31" d="M111.011 6.41717C99.7192 13.4196 87.9869 19.6835 76.1694 25.7485C72.9167 27.4103 69.5078 28.9443 66.4256 30.9186C65.9995 31.2027 66.2126 31.7708 66.7239 31.572C69.7842 30.2726 72.7714 28.8075 75.6722 27.183C78.6456 25.649 81.5999 24.0961 84.5354 22.5242C90.3447 19.4136 96.0972 16.2319 101.765 12.8657C105.003 10.9718 108.213 9.00224 111.395 6.9569C111.835 6.65863 111.494 6.11889 111.011 6.41717Z" fill="#FF6845"/>
<path id="Vector_32" d="M37.8193 32.8216C33.2741 34.9948 29.6096 38.6736 26.2291 42.3239C24.6241 44.0568 23.0616 45.8323 21.4566 47.5509C19.8516 49.2696 18.0903 51.1587 16.67 53.1046C14.9447 55.176 13.6939 57.6 13.0054 60.2064C12.8918 60.7604 13.7014 60.6326 13.815 60.2064C15.1218 55.6044 18.3744 51.9541 21.5418 48.5168C24.7093 45.0795 27.7347 41.4149 31.1862 38.2191C33.2144 36.2543 35.5096 34.5855 38.004 33.262C38.2597 33.1341 38.217 32.637 37.8193 32.8216Z" fill="#FF6845"/>
<path id="Vector_33" d="M49.58 30.4499C45.2582 33.3974 41.1739 36.6791 37.3648 40.2647C36.9529 40.6482 37.5352 40.9322 37.8761 40.6198C41.6624 37.1178 45.6818 33.8767 49.9067 30.9186C50.3186 30.6487 49.9919 30.18 49.58 30.4499Z" fill="#FF6845"/>
<path id="Vector_34" d="M60.8436 36.9266C61.1561 36.4011 60.5453 36.188 60.1476 36.4437C53.6423 40.7048 47.9182 45.9034 41.8106 50.6474C46.8337 45.6322 52.2849 41.0649 58.1023 36.9976C58.5142 36.6994 58.1733 36.2022 57.7472 36.5005C50.4659 41.4886 43.7546 47.2615 37.7341 53.7154C37.2796 54.2268 37.8477 54.7097 38.3875 54.3404C45.4894 49.3833 51.7248 43.3325 58.8125 38.3896C54.5513 44.341 47.8614 48.0908 43.3872 53.8291C42.9469 54.3972 43.4866 54.8943 44.069 54.4966C48.7278 51.315 52.4208 46.9544 56.8523 43.4461C54.2247 46.9829 50.6737 49.8662 48.7846 53.8859C48.5148 54.454 49.4522 54.3688 49.6653 54.0137C51.0984 51.7752 52.7288 49.6694 54.5371 47.7215C56.3344 45.8577 57.925 43.8052 59.2812 41.5997C59.6079 41.0315 58.9545 40.79 58.5284 41.0741C57.7188 41.6138 56.9518 42.1962 56.199 42.7785C58.0025 41.0449 59.5647 39.0766 60.8436 36.9266Z" fill="#FF6845"/>
<path id="Vector_35" d="M101.452 34.8101C98.526 36.8981 95.6711 39.0712 92.9298 41.3864C91.8929 42.2387 90.9554 43.2045 89.9754 44.1136C89.4543 44.6242 88.8991 45.0988 88.3135 45.5339C91.7224 41.6421 96.1256 38.5741 98.5403 33.9011C98.8385 33.3045 98.2278 33.0773 97.7732 33.3613C93.3275 36.2021 89.947 40.2502 85.8847 43.5312C88.5404 40.1259 91.3856 36.8729 94.407 33.7875C94.7763 33.3471 94.1797 33.0347 93.853 33.4182C90.4157 37.31 86.5239 40.8467 83.7116 45.2499C83.3707 45.8038 84.0382 46.0027 84.4359 45.7612C88.9527 42.9205 92.2906 38.6593 96.4949 35.4351C93.6542 39.6962 89.0805 42.75 85.9557 46.7981C85.8904 46.8741 85.8521 46.9696 85.8467 47.0697C85.8412 47.1697 85.8691 47.2688 85.9258 47.3514C85.9825 47.4341 86.0649 47.4956 86.1602 47.5266C86.2556 47.5575 86.3584 47.5561 86.4529 47.5225C89.2936 46.7839 91.1827 44.2698 93.3275 42.4233C96.1682 39.9661 99.3356 37.8923 102.148 35.3215C102.574 34.9664 101.892 34.4692 101.452 34.8101Z" fill="#FF6845"/>
<path id="Vector_36" d="M62.8464 68.6577C59.9204 70.9871 57.9745 74.1972 55.4889 76.9101C56.2225 75.0994 57.2389 73.4166 58.5 71.9245C60.1734 69.9825 61.6573 67.885 62.9316 65.6607C63.2441 65.0499 62.5765 64.6949 62.0794 65.0784C58.3722 67.9191 56.0712 71.9245 53.3015 75.5607C56.0286 71.2996 58.983 67.2089 61.4828 62.7773C61.6817 62.408 61.4828 61.9393 60.9857 62.0814C59.6335 62.5219 58.3895 63.2431 57.3353 64.1977C58.0313 63.3455 58.7557 62.4933 59.4801 61.6553C59.8068 61.286 59.2954 61.0303 59.0114 61.3428C54.7503 66.1294 50.8584 71.2854 46.9808 76.4129C46.6115 76.9101 47.3359 77.1657 47.7052 76.8959C50.3471 74.9926 52.1652 72.1376 54.0543 69.5383C55.5741 67.4646 57.3211 64.9079 59.7358 63.6722C56.4547 69.1832 52.5629 74.3108 49.3954 79.8787C48.9551 80.6599 49.9352 80.7167 50.3755 80.3332C52.2458 78.6492 53.9012 76.741 55.3042 74.6517C54.5105 75.9192 54.0017 77.344 53.8128 78.8276C53.8128 79.5093 54.6508 79.2395 54.9207 78.998C56.9302 76.9759 58.791 74.8113 60.4886 72.5211C60.1335 73.075 59.7784 73.6432 59.4659 74.2256C58.4332 75.7745 58.0365 77.6615 58.358 79.4951C58.5569 80.2053 59.7784 79.5662 59.6363 78.927C59.1392 77.1231 60.0909 75.305 60.9857 73.7852C61.8805 72.2654 63.0168 70.7457 63.8264 69.098C64.0537 68.5157 63.1873 68.402 62.8464 68.6577Z" fill="#FF6845"/>
<path id="Vector_37" d="M79.2517 67.2515C78.7972 67.8338 78.3569 68.4304 77.9166 69.0127C77.7927 69.0532 77.6772 69.1158 77.5757 69.1974C73.5418 72.8903 69.3659 77.1373 67.1643 82.2364C67.0081 82.5915 67.4626 82.7762 67.7325 82.6341C68.8152 81.9795 69.7336 81.0854 70.417 80.0206C71.397 78.6997 72.4055 77.3929 73.3998 76.072L76.9649 71.2853C76.1049 73.2253 75.0024 75.0484 73.6838 76.7112C72 78.755 70.8788 81.203 70.4312 83.813C70.4312 84.438 71.2408 84.2675 71.4965 83.9693C72.4055 82.975 73.2577 81.9523 74.11 80.9297C73.1569 82.7553 72.4501 84.6992 72.0078 86.7106C71.8942 87.2929 72.7038 87.1935 72.9737 87.0089C74.9795 85.3598 76.6359 83.3268 77.8456 81.0291C77.5891 82.1705 77.2472 83.291 76.8229 84.3812C76.1553 86.185 75.4025 87.9463 74.6923 89.7644C74.3798 90.6024 75.7292 90.4178 75.9707 89.7644C77.2916 86.185 79.3795 82.4921 79.4648 78.6002C79.4648 77.9611 78.6268 78.0747 78.3285 78.4298C76.6524 80.4609 75.4877 83.046 73.698 84.9493C74.9299 81.5909 76.5406 78.3838 78.4989 75.3902C78.9818 74.538 77.7887 74.5096 77.3768 75.0635C75.7008 77.3219 73.9253 79.4951 72.1072 81.6398C72.8885 79.7226 73.9356 77.9248 75.2179 76.2992C76.8846 74.2792 78.0394 71.8868 78.5841 69.3252C78.5988 69.2597 78.5988 69.1918 78.5841 69.1264L79.8625 67.4219C80.1607 67.0242 79.479 66.9532 79.2517 67.2515ZM73.2577 75.1914C72.3203 76.4413 71.326 77.6628 70.417 78.9127C69.9769 79.5623 69.5027 80.1881 68.9966 80.7876C70.5852 78.1182 72.4931 75.6523 74.6781 73.4443L73.2577 75.1914Z" fill="#FF6845"/>
<path id="Vector_38" d="M35.9302 130.728C34.0266 129.146 32.2548 127.412 30.6322 125.544C28.9095 123.423 27.4057 121.134 26.1438 118.712C23.4301 113.742 21.8853 108.218 21.627 102.562C21.627 101.994 21.627 101.411 21.627 100.829C21.627 100.247 22.0247 99.8205 22.1668 99.4086C22.788 97.7593 23.1196 96.015 23.1468 94.2527C23.1468 93.5567 22.2378 93.9828 22.0674 94.3663C21.0721 96.5381 20.5077 98.8825 20.4055 101.269C20.2669 101.586 20.0853 101.883 19.8658 102.15C19.8542 99.8894 20.3087 97.6507 21.2009 95.5736C22.0247 93.3437 23.0616 91.2131 23.8854 88.9831C23.9991 88.6564 23.4735 88.7274 23.3741 88.9831C21.6981 93.4999 18.8289 97.9883 19.0278 102.988C19.0274 103.038 19.039 103.087 19.0615 103.131C19.0839 103.176 19.1167 103.214 19.157 103.243C19.1972 103.272 19.2439 103.291 19.2931 103.299C19.3423 103.306 19.3925 103.302 19.4397 103.286C19.7817 103.18 20.0966 103 20.3629 102.761C20.3839 105.203 20.6938 107.635 21.2861 110.005C22.6564 115.7 25.2011 121.045 28.7573 125.7C30.4186 128.129 32.5964 130.162 35.1348 131.651C35.5751 131.85 36.4415 131.182 35.9302 130.728Z" fill="#FF6845"/>
<path id="Vector_39" d="M42.0237 133.526C31.0442 134.094 24.2406 123.158 21.6697 113.826C20.9052 111.217 20.4897 108.518 20.434 105.801C20.434 105.517 19.9937 105.673 19.9937 105.9C19.9525 111.11 21.0581 116.264 23.2321 120.999C25.3769 125.743 28.6437 130.33 33.3168 132.859C35.8623 134.252 38.7636 134.86 41.6544 134.606C41.8178 134.603 41.9767 134.551 42.1108 134.458C42.2448 134.364 42.348 134.233 42.4072 134.08C42.4337 134.018 42.444 133.951 42.4373 133.884C42.4306 133.817 42.4069 133.753 42.3686 133.697C42.3303 133.642 42.2785 133.597 42.2182 133.567C42.1579 133.537 42.0909 133.523 42.0237 133.526Z" fill="#FF6845"/>
<path id="Vector_40" d="M72.1499 123.385C64.7071 128.754 55.8582 131.907 46.5831 131.154C43.9549 130.92 41.3649 130.367 38.8705 129.507C38.5012 129.379 37.9757 130.032 38.4444 130.188C42.8804 131.713 47.5735 132.349 52.2553 132.059C56.9372 131.769 61.5159 130.559 65.7298 128.498C68.1952 127.33 70.5285 125.902 72.6896 124.237C73.3572 123.669 72.8317 122.888 72.1499 123.385Z" fill="#FF6845"/>
<path id="Vector_41" d="M77.3483 113.513C74.3268 116.545 70.8937 119.137 67.15 121.212C63.4706 123.144 59.5123 124.491 55.4177 125.203C52.9784 125.621 50.5066 125.821 48.0318 125.799C47.6199 125.799 47.2506 126.51 47.7761 126.51C52.1744 126.606 56.5617 126.031 60.7867 124.805C64.9079 123.556 68.795 121.637 72.2918 119.124C74.3902 117.623 76.3275 115.91 78.0727 114.01C78.584 113.428 77.746 113.059 77.3483 113.513Z" fill="#FF6845"/>
<path id="Vector_42" d="M87.6886 97.8465C83.5269 105.687 80.1038 113.996 75.0331 121.297C74.8765 121.202 74.6887 121.173 74.5106 121.215C74.3324 121.258 74.1782 121.369 74.0814 121.524C73.6884 122.178 73.4684 122.921 73.4423 123.683C73.4423 124.422 74.3655 124.038 74.607 123.683C80.4021 115.843 83.9104 106.639 88.342 98.0169C88.5692 97.5624 87.8591 97.463 87.6886 97.8465Z" fill="#FF6845"/>
<path id="Vector_43" d="M86.8222 91.3412C85.274 94.5797 83.7116 97.8323 82.0781 101.028C79.9902 105.09 77.9165 109.21 75.4592 113.059C75.061 113.703 74.6197 114.32 74.1383 114.905C74.053 115.019 73.9536 115.118 73.8542 115.232L73.6979 115.374C73.2292 115.374 72.6185 116.013 73.073 116.297C74.0246 116.894 75.0757 115.26 75.5018 114.678C76.6083 113.051 77.6139 111.357 78.513 109.607C80.9277 105.161 83.1292 100.588 85.3308 96.0285C86.0836 94.466 86.8364 92.9178 87.575 91.3554C87.7881 90.8867 86.9927 90.9861 86.8222 91.3412Z" fill="#FF6845"/>
<path id="Vector_44" d="M92.9014 77.89C91.7225 80.3757 90.2027 82.6767 89.0664 85.1907C88.1147 87.2929 86.9074 90.2047 88.0721 92.4489C88.3136 92.9034 89.2226 92.2926 88.9669 91.8239C87.788 89.6934 89.2226 86.668 90.1317 84.722C91.1827 82.3926 92.5605 80.2336 93.6258 77.9184C93.8388 77.4355 93.0576 77.5491 92.9014 77.89Z" fill="#FF6845"/>
<path id="Vector_45" d="M103.171 75.5179C102.73 77.0093 102.262 78.4865 101.75 79.9779C101.748 79.4944 101.666 79.0147 101.509 78.5575C101.296 77.9467 100.515 78.4297 100.344 78.8132C98.441 82.9322 97.6598 87.4632 96.0831 91.6817C96.0831 91.2414 96.211 90.8011 96.2678 90.3608C96.3672 89.5654 95.2167 90.0909 95.0321 90.4886C94.4609 92.0064 94.3087 93.65 94.5917 95.2469C94.6769 95.9002 95.6854 95.4741 95.8701 95.119C98.1711 90.7727 99.0375 85.8866 100.614 81.2562C100.45 82.5775 100.145 83.8774 99.7051 85.1338C99.1085 87.165 98.2847 89.1393 97.816 91.1988C97.6598 91.8664 98.583 91.6817 98.7534 91.1988C100.647 85.9813 102.371 80.7307 103.924 75.4469C104.08 75.0207 103.313 75.1202 103.171 75.5179Z" fill="#FF6845"/>
<path id="Vector_46" d="M112.119 83.9548C111.863 84.594 111.622 85.2474 111.395 85.9007C111.273 85.9374 111.161 85.9995 111.066 86.0827C110.97 86.166 110.894 86.2686 110.841 86.3837C109.946 89.4659 108.071 92.193 107.418 95.3604C107.304 95.9286 108.199 95.7155 108.412 95.3604C107.957 97.0081 107.474 98.6415 106.878 100.261C106.58 101.028 107.801 100.957 108.071 100.431C110.301 96.0706 110.528 90.9573 112.076 86.3695C112.09 86.3087 112.09 86.2456 112.076 86.1848C112.346 85.432 112.616 84.6792 112.9 83.9264C113.128 83.4293 112.261 83.5571 112.119 83.9548Z" fill="#FF6845"/>
<path id="Vector_47" d="M107.574 81.8388C106.48 85.2761 105.628 88.7844 104.577 92.2359C103.517 95.7081 102.148 99.0784 100.486 102.306C100.188 102.889 100.955 102.917 101.225 102.534C103.139 99.4282 104.549 96.0387 105.401 92.4916C106.438 88.969 107.29 85.3897 108.383 81.853C108.611 81.299 107.759 81.4268 107.574 81.8388Z" fill="#FF6845"/>
<path id="Vector_48" d="M109.435 36.0887C107.327 39.7777 105.476 43.6076 103.895 47.5511C103.668 48.1618 104.62 48.0198 104.79 47.5511C106.31 43.6592 108.44 40.0373 110.33 36.3301C110.67 35.6768 109.705 35.5631 109.435 36.0887Z" fill="#FF6845"/>
<path id="Vector_49" d="M106.281 64.3255C105.688 64.2311 105.081 64.2633 104.501 64.4199C103.921 64.5766 103.38 64.8542 102.915 65.2345C103.669 62.7727 104.174 60.2411 104.421 57.6781C104.938 53.7776 104.643 49.8122 103.554 46.0311C103.309 45.6523 102.965 45.3478 102.56 45.1505C98.6657 44.5919 94.6987 44.8287 90.8986 45.8464C88.3915 46.4312 85.9502 47.2688 83.6121 48.3463C83.9244 47.8319 84.1261 47.258 84.2044 46.6613C84.2827 46.0646 84.2358 45.4582 84.0666 44.8806C83.044 42.1109 79.0101 43.3608 76.9648 43.8437C72.8117 44.7429 68.7473 46.0121 64.8206 47.6361C60.8049 49.3629 56.9662 51.4749 53.3582 53.9426C51.5842 55.1161 49.9622 56.5044 48.5289 58.0759C47.8897 58.8144 47.2789 59.5957 46.6966 60.3769C46.7676 59.8371 46.8386 59.2974 46.8813 58.7434C47.1843 57.087 46.94 55.3769 46.1853 53.8716C45.1626 52.366 43.3445 52.8631 42.0378 53.6585C37.6914 56.2862 35.2626 60.6751 32.99 65.1067C33.2885 63.6643 33.4832 62.2023 33.5723 60.732C33.6718 59.0559 33.2599 56.6697 31.0725 56.8827C29.6182 57.2446 28.3306 58.0913 27.4221 59.2832C26.0148 60.8179 24.7369 62.4665 23.6013 64.2119C21.482 67.2228 19.7274 70.4745 18.3743 73.8988L18.1187 74.6232C16.3669 77.5183 15.1947 80.7263 14.6672 84.0687C13.5343 88.9358 12.8308 93.893 12.565 98.8832C12.1673 107.931 13.5735 117.192 18.2465 125.117C22.4743 132.437 29.1183 138.057 37.0381 141.011C45.2559 143.834 54.0666 144.47 62.6048 142.858C66.6995 142.127 70.7009 140.946 74.5359 139.335C78.2192 137.94 81.7313 136.129 85.0041 133.938C85.4302 133.725 85.8705 133.512 86.2824 133.285C89.4965 131.484 92.49 129.315 95.2024 126.822C96.7788 125.466 98.2375 123.979 99.5629 122.376C100.634 121.323 101.311 119.934 101.48 118.442C101.395 116.254 98.9806 116.155 97.3329 116.467C95.8909 116.766 94.468 117.15 93.0718 117.618C97.1483 114.777 101.182 111.794 103.213 107.136C103.824 105.715 104.08 103.883 102.46 103.059C100.862 102.519 99.1303 102.519 97.5318 103.059C96.992 103.173 96.4665 103.315 95.9267 103.457C96.6369 102.775 97.3471 102.036 97.9721 101.34C99.343 99.7128 100.503 97.9183 101.424 95.9998C103.402 92.1034 104.991 88.0214 106.168 83.813C107.251 79.7037 107.968 75.5068 108.312 71.2711C108.454 69.1548 109.165 64.9647 106.281 64.3255ZM106.693 68.6576C106.693 70.078 106.494 71.4274 106.366 72.8051C105.639 80.4379 103.5 87.8693 100.06 94.7215C99.1225 96.768 97.9138 98.679 96.4665 100.403C94.9609 102.093 93.2564 103.585 91.6656 105.175C91.0691 105.772 91.8077 106.951 92.6031 106.596C94.2692 105.835 96.012 105.254 97.8016 104.863C98.597 104.678 101.48 103.94 101.892 105.076C102.304 106.212 100.898 107.917 100.472 108.655C99.3782 110.253 98.0631 111.688 96.5659 112.916C93.6399 115.402 90.3021 117.348 87.2767 119.677C87.1087 119.798 86.9888 119.975 86.9378 120.175C86.8869 120.376 86.9082 120.588 86.998 120.774C87.0878 120.961 87.2404 121.11 87.429 121.195C87.6176 121.28 87.8302 121.296 88.0295 121.24C90.714 120.43 93.3417 119.464 96.0262 118.669C97.0488 118.24 98.1597 118.065 99.2646 118.158C99.6765 118.257 99.7618 118.371 99.7334 118.697C99.3827 119.887 98.7265 120.965 97.8301 121.822C96.6203 123.191 95.3252 124.481 93.9524 125.686C92.1072 127.373 90.1315 128.912 88.0437 130.288C87.942 130.239 87.827 130.224 87.7165 130.248C87.6061 130.271 87.5063 130.33 87.4329 130.415C87.1915 130.671 86.95 130.898 86.6943 131.14C85.4018 131.878 84.0808 132.56 82.7315 133.214C82.1065 133.753 81.4532 134.293 80.7856 134.79C78.4382 136.637 75.7498 138.003 72.8741 138.81C70.4915 139.748 68.0474 140.521 65.5592 141.125C57.3667 143.14 48.803 143.096 40.6316 140.997C32.6313 138.845 25.6458 133.941 20.9026 127.149C16.2102 120.043 13.738 111.702 13.8007 103.187C13.7364 99.2933 14.0073 95.4013 14.6104 91.5541C15.0255 87.5257 15.8926 83.5568 17.1954 79.7224C18.0482 76.9016 19.2356 74.1931 20.7322 71.6546C21.6928 69.6809 22.9159 67.8462 24.3683 66.2004C24.4396 66.1283 24.5274 66.0747 24.624 66.0441L25.0785 65.3624C26.0879 63.8445 27.1933 62.3928 28.388 61.016C29.1179 60.0143 30.0972 59.221 31.2287 58.715C31.5554 58.644 31.669 58.715 31.8253 59.0985C32.0874 60.1813 32.0874 61.311 31.8253 62.3938C31.3992 65.1493 30.7742 67.8906 30.3339 70.6462C30.3001 70.8524 30.3407 71.0639 30.4485 71.2429C30.5563 71.4219 30.7242 71.5568 30.9223 71.6234C31.1203 71.69 31.3357 71.684 31.5297 71.6064C31.7238 71.5289 31.8839 71.3849 31.9815 71.2001C33.899 67.8764 35.3762 64.3113 37.45 61.0871C38.4859 59.4371 39.7481 57.9406 41.1998 56.6413C41.8815 56.0589 43.5008 54.4681 44.5518 54.6954C45.6029 54.9226 45.3757 57.9196 45.3046 58.7292C45.155 60.5594 44.8122 62.3686 44.282 64.1267C44.0121 64.9505 45.2904 65.547 45.8018 64.8652C47.2221 63.0756 48.4152 61.1723 49.8924 59.4678C51.3923 57.8241 53.1076 56.3908 54.9916 55.2067C61.3083 50.8953 68.3679 47.7893 75.8143 46.0453C77.2346 45.747 78.5272 45.3777 79.8907 45.1789C80.6435 45.051 82.2912 44.6959 82.6321 45.6902C82.9729 46.6845 82.1349 47.7639 81.7088 48.4457C81.1958 49.2563 80.5904 50.0047 79.9049 50.6757C79.1805 51.3859 80.2458 52.508 81.0412 51.9825C84.191 49.9963 87.6532 48.5557 91.2821 47.7213C94.8118 46.7427 98.5028 46.4866 102.134 46.9685C103.095 50.5018 103.332 54.193 102.83 57.8202C102.501 61.5306 101.54 65.1575 99.989 68.544C99.5771 69.4104 100.827 70.3053 101.409 69.4957C101.989 68.7293 102.651 68.0291 103.384 67.4077C104.009 66.8964 105.102 65.9873 105.983 66.1436C106.864 66.2998 106.707 67.8906 106.693 68.6576Z" fill="white"/>
<path id="Vector_50" d="M80.8141 105.048C80.448 102.297 79.5866 99.6363 78.2716 97.1931C75.5838 92.1077 71.446 87.9352 66.3831 85.2052C63.5113 83.7541 60.466 82.6753 57.3211 81.9951C53.9897 81.1829 50.5647 80.8199 47.137 80.9156C40.3765 81.3292 33.8364 83.4766 28.1466 87.1511C27.053 87.8186 26.0019 88.5714 24.965 89.2958C24.641 89.4083 24.3553 89.6102 24.1412 89.8782C24.0743 89.9293 24.0185 89.9934 23.977 90.0666C23.9355 90.1398 23.9092 90.2207 23.8997 90.3043C19.6386 92.4349 17.5364 97.9601 17.0251 102.434C16.7735 106.033 17.2221 109.645 18.3461 113.073C19.1687 116.134 20.2767 119.111 21.6555 121.964C24.3968 127.419 29.1693 132.717 35.3621 133.995C37.095 134.35 38.8705 134.563 40.6175 134.876C42.3646 135.188 43.8276 135.6 45.4468 135.827C48.3687 136.225 51.3346 136.168 54.2389 135.657C60.0822 134.562 65.5316 131.941 70.0335 128.058C74.6692 124.333 78.1031 119.323 79.905 113.655C80.7814 110.876 81.0905 107.949 80.8141 105.048ZM36.9671 84.1825C37.0431 84.3253 37.1703 84.434 37.3232 84.4867C37.476 84.5394 37.6432 84.5322 37.791 84.4666C38.4443 84.1541 39.0693 85.4608 39.2113 85.8869C39.5444 86.7065 39.5746 87.618 39.2966 88.4578C38.4923 90.5038 37.0856 92.2572 35.2627 93.4859C33.7029 94.8626 31.8306 95.8377 29.8085 96.3267C28.1324 96.6392 25.5474 96.1847 24.9508 94.3524C24.6166 93.3254 24.553 92.2295 24.7661 91.1707C24.8529 91.1119 24.925 91.034 24.9767 90.9428C25.0284 90.8517 25.0585 90.7498 25.0644 90.6452L25.4195 90.4037C25.4718 90.367 25.5292 90.3382 25.59 90.3185C25.6803 90.3136 25.767 90.281 25.8382 90.2251C25.9093 90.1691 25.9615 90.0927 25.9877 90.006C29.3716 87.5842 33.0641 85.6257 36.9671 84.1825ZM79.6636 108.67C78.6693 120.033 69.2097 129.606 58.7557 133.285C56.1397 134.216 53.4036 134.766 50.6312 134.918C47.7287 134.983 44.8302 134.668 42.0095 133.981C38.7994 133.313 35.2343 133.313 32.2657 131.793C29.6279 130.337 27.3247 128.343 25.5047 125.941C23.7102 123.601 22.2741 121.006 21.2436 118.243C20.0519 115.227 19.139 112.108 18.5165 108.925C17.5222 103.67 18.275 97.4488 21.968 93.3013C22.4227 92.765 22.9428 92.2878 23.5162 91.8809C23.4887 92.5323 23.5316 93.1847 23.6441 93.8268C23.7664 94.7583 24.2263 95.6124 24.9366 96.2273C25.9385 97.0949 27.2058 97.5958 28.5301 97.6476C31.202 97.5153 33.7482 96.4728 35.7456 94.6932C37.8478 93.0598 40.1488 90.9719 40.6317 88.2305C40.8627 87.0188 40.6241 85.7645 39.9641 84.7222C39.6963 84.2618 39.3272 83.8683 38.8847 83.5717C39.8079 83.2876 40.7454 83.032 41.7254 82.8331C48.3328 81.5962 55.1511 82.1554 61.4686 84.4524C66.6831 86.1715 71.2671 89.4055 74.6355 93.7416C78.1121 97.9178 79.9051 103.241 79.6636 108.67Z" fill="white"/>
<path id="Vector_51" d="M26.6978 98.6703C26.5472 98.6309 26.3871 98.6519 26.2518 98.7289C26.1164 98.8058 26.0165 98.9327 25.9734 99.0823C25.7086 100.029 25.3617 100.951 24.9365 101.838C24.7045 102.296 24.5651 102.795 24.5261 103.307C24.4871 103.818 24.5493 104.333 24.7093 104.821C24.7975 104.936 24.925 105.016 25.0677 105.044C25.2103 105.072 25.3584 105.047 25.484 104.974C25.6096 104.901 25.7042 104.784 25.7498 104.646C25.7955 104.508 25.7891 104.358 25.732 104.224C25.7253 104.182 25.7253 104.139 25.732 104.096C25.732 104.096 25.732 104.025 25.732 103.983C25.7063 103.804 25.7063 103.622 25.732 103.443C25.8303 102.957 25.9729 102.482 26.158 102.022C26.5616 101.208 26.8851 100.357 27.1239 99.48C27.1523 99.399 27.1636 99.313 27.1573 99.2273C27.151 99.1417 27.1271 99.0584 27.0871 98.9824C27.0471 98.9064 26.9919 98.8395 26.9249 98.7858C26.858 98.7322 26.7806 98.6928 26.6978 98.6703Z" fill="white"/>
<path id="Vector_52" d="M33.7855 101.71C33.2361 100.625 32.812 99.4813 32.5213 98.3007C32.5032 98.2243 32.4698 98.1524 32.4232 98.0892C32.3766 98.0261 32.3176 97.973 32.25 97.9332C32.1823 97.8934 32.1073 97.8677 32.0294 97.8576C31.9516 97.8475 31.8725 97.8533 31.7969 97.8746C31.6436 97.9178 31.5133 98.0192 31.4337 98.1572C31.3541 98.2952 31.3315 98.4588 31.3708 98.6132C31.714 99.895 32.19 101.137 32.7912 102.32C32.8313 102.388 32.8844 102.448 32.9475 102.495C33.0106 102.543 33.0825 102.578 33.159 102.597C33.2355 102.617 33.3151 102.622 33.3934 102.611C33.4716 102.6 33.5469 102.573 33.615 102.533C33.6831 102.493 33.7426 102.44 33.7902 102.377C33.8377 102.314 33.8724 102.242 33.8922 102.166C33.9119 102.089 33.9165 102.009 33.9055 101.931C33.8945 101.853 33.8682 101.778 33.8281 101.71H33.7855Z" fill="white"/>
<path id="Vector_53" d="M38.7142 97.2355C38.6955 97.1612 38.662 97.0914 38.6156 97.0304C38.5692 96.9694 38.511 96.9184 38.4444 96.8804C38.2089 96.7652 37.9853 96.6273 37.7768 96.4685L37.1234 95.9146C37.0047 95.8112 36.8545 95.7511 36.6973 95.7441C36.5396 95.7488 36.3886 95.8092 36.2712 95.9146C36.1634 96.0303 36.1034 96.1825 36.1034 96.3407C36.1034 96.4988 36.1634 96.6511 36.2712 96.7668C36.7533 97.2066 37.2819 97.5923 37.8478 97.9173C37.9942 97.973 38.1559 97.973 38.3023 97.9173C38.4498 97.8741 38.5763 97.778 38.6574 97.6474C38.7251 97.5214 38.7453 97.3752 38.7142 97.2355Z" fill="white"/>
<path id="Vector_54" d="M45.7875 85.7305C45.0742 85.6928 44.359 85.7405 43.657 85.8726C43.5818 85.8937 43.5116 85.9297 43.4506 85.9785C43.3896 86.0273 43.339 86.0879 43.3019 86.1566C43.224 86.2925 43.2027 86.4536 43.2425 86.6051C43.2824 86.7566 43.3802 86.8863 43.5149 86.9662C43.6613 87.0219 43.8231 87.0219 43.9695 86.9662H44.3246C44.7965 86.9129 45.273 86.9129 45.7449 86.9662C45.902 86.9626 46.0517 86.8986 46.1628 86.7875C46.2739 86.6764 46.3379 86.5268 46.3415 86.3697C46.3473 86.2913 46.3375 86.2126 46.3128 86.138C46.2881 86.0634 46.2488 85.9944 46.1974 85.935C46.1459 85.8756 46.0832 85.8269 46.0129 85.7919C45.9425 85.7568 45.8659 85.7359 45.7875 85.7305Z" fill="white"/>
<path id="Vector_55" d="M72.3202 119.791C71.9995 119.496 71.696 119.183 71.4112 118.854C71.2932 118.7 71.1932 118.533 71.1129 118.357V118.47C71.0697 118.323 70.9736 118.196 70.8431 118.115C70.7299 118.055 70.6012 118.03 70.4738 118.044C70.9803 116.676 71.2818 115.24 71.3686 113.783C71.5301 110.937 70.8377 108.108 69.3801 105.658C67.9597 103.372 65.8575 100.758 63.0878 100.559C56.7955 98.6987 50.759 103.286 47.6484 108.428C46.609 109.896 45.9288 111.587 45.6624 113.366C45.3959 115.145 45.5507 116.961 46.1143 118.669C45.4499 118.706 44.7921 118.82 44.1542 119.01C42.9327 119.323 41.7396 119.848 40.4897 120.075C40.414 120.097 40.3433 120.133 40.2816 120.181C40.22 120.23 40.1685 120.29 40.1302 120.359C40.092 120.428 40.0676 120.503 40.0586 120.581C40.0496 120.659 40.0561 120.738 40.0778 120.814C40.1239 120.965 40.2266 121.092 40.3642 121.168C40.5019 121.245 40.6639 121.266 40.8164 121.226C41.9385 121.013 43.0321 120.544 44.14 120.246C44.7354 120.075 45.3433 119.952 45.9581 119.876H46.5831C47.0146 120.828 47.5582 121.724 48.2023 122.547C47.7194 123.129 47.1938 123.697 46.7819 124.28C46.4931 124.621 46.2274 124.982 45.9865 125.359C45.7863 125.643 45.6728 125.978 45.6598 126.325C45.6668 126.481 45.7319 126.629 45.8423 126.739C45.9527 126.849 46.1004 126.915 46.2564 126.921C46.5547 126.921 46.8956 126.652 46.8529 126.325V126.24C46.9229 126.131 46.9846 126.017 47.0376 125.899L47.3643 125.459L47.4353 125.359L47.6484 125.103C48.0887 124.564 48.5574 124.067 48.9977 123.541L49.509 124.081C50.162 124.696 50.8759 125.243 51.6396 125.714H51.5686C51.4842 125.77 51.4118 125.843 51.3555 125.927C50.9862 126.41 50.759 126.993 50.4323 127.504C50.3572 127.643 50.3374 127.805 50.377 127.958C50.4165 128.11 50.5124 128.243 50.6453 128.328C50.7834 128.406 50.9466 128.428 51.1005 128.388C51.2543 128.348 51.3865 128.25 51.4692 128.115C51.7493 127.569 52.0574 127.038 52.3924 126.524C52.4371 126.405 52.4371 126.274 52.3924 126.154C53.7803 126.89 55.3018 127.339 56.8666 127.475C59.4786 127.656 62.0849 127.052 64.352 125.743C66.9173 124.202 68.9306 121.89 70.1045 119.138L70.2607 119.45C70.3866 119.63 70.5242 119.8 70.6726 119.962C70.9141 120.232 71.1839 120.473 71.4396 120.714C71.5543 120.805 71.6984 120.851 71.8444 120.842C71.9905 120.834 72.1283 120.772 72.2318 120.669C72.3352 120.565 72.397 120.427 72.4055 120.281C72.414 120.135 72.3684 119.991 72.2776 119.876L72.3202 119.791ZM64.9627 123.839C63.0792 125.287 60.7891 126.109 58.4145 126.188C56.04 126.267 53.7004 125.599 51.7248 124.28C50.1307 123.156 48.8301 121.665 47.9324 119.933C48.0374 119.825 48.0961 119.68 48.0961 119.528C48.0961 119.377 48.0374 119.232 47.9324 119.124C47.7897 119.012 47.6319 118.921 47.4637 118.854C47.3785 118.627 47.2933 118.413 47.2222 118.2C46.4269 115.714 46.6254 113.016 47.7762 110.672C50.1198 105.658 55.4746 100.616 61.3266 101.369C61.3448 101.444 61.3777 101.514 61.4234 101.576C61.4691 101.638 61.5266 101.691 61.5927 101.73C61.6587 101.77 61.732 101.796 61.8082 101.807C61.8844 101.818 61.9621 101.814 62.0367 101.795C64.8775 101.142 67.0507 104.053 68.3432 106.156C69.5226 108.089 70.174 110.298 70.2323 112.562C70.3041 114.723 69.8642 116.872 68.9485 118.832C68.0328 120.791 66.6671 122.507 64.9627 123.839Z" fill="white"/>
<path id="Vector_56" d="M66.2409 110.488C65.9382 109.09 65.3202 107.78 64.434 106.657C63.5478 105.535 62.4169 104.63 61.1276 104.011C60.4458 103.656 59.8493 104.678 60.531 105.033C61.6552 105.559 62.6449 106.333 63.4251 107.298C64.2052 108.262 64.7553 109.392 65.0336 110.601C65.4352 112.131 65.4762 113.732 65.1533 115.28C64.8304 116.828 64.1525 118.28 63.1729 119.521C62.69 120.118 63.528 120.942 64.011 120.374C65.1118 119.005 65.885 117.402 66.2715 115.689C66.658 113.976 66.6475 112.196 66.2409 110.488Z" fill="white"/>
<path id="Vector_57" d="M73.8684 102.377C73.7885 102.243 73.6588 102.145 73.5073 102.105C73.3558 102.065 73.1947 102.086 73.0588 102.164C71.802 102.809 70.6482 103.637 69.6357 104.621C69.5247 104.735 69.4625 104.888 69.4625 105.048C69.4625 105.207 69.5247 105.36 69.6357 105.474C69.7491 105.581 69.899 105.64 70.0547 105.64C70.2105 105.64 70.3604 105.581 70.4738 105.474L71.1981 104.82L71.5816 104.508L71.6811 104.437L71.8941 104.281C72.4358 103.877 73.0108 103.521 73.6128 103.215C73.6884 103.181 73.7559 103.131 73.8107 103.069C73.8655 103.007 73.9064 102.934 73.9306 102.854C73.9548 102.775 73.9618 102.691 73.9511 102.609C73.9404 102.527 73.9122 102.448 73.8684 102.377Z" fill="white"/>
<path id="Vector_58" d="M75.445 107.377C75.3626 107.245 75.2329 107.15 75.0824 107.11C74.932 107.07 74.7721 107.09 74.6354 107.164C73.5701 107.775 72.4054 108.172 71.3401 108.755C71.2245 108.843 71.1452 108.97 71.1169 109.113C71.0887 109.256 71.1136 109.404 71.1869 109.53C71.2601 109.655 71.3768 109.75 71.5149 109.795C71.6529 109.841 71.803 109.835 71.9367 109.777C73.0162 109.195 74.1809 108.812 75.2319 108.201C75.3005 108.161 75.3606 108.108 75.4085 108.045C75.4564 107.982 75.4913 107.91 75.5112 107.834C75.531 107.757 75.5354 107.677 75.524 107.599C75.5126 107.52 75.4858 107.445 75.445 107.377Z" fill="white"/>
<path id="Vector_59" d="M65.886 87.0802C65.7439 86.3274 64.5934 86.6541 64.7355 87.4069C64.9911 88.8272 63.031 89.5374 61.8947 89.6084C60.9845 89.5588 60.1034 89.2701 59.3403 88.7714C58.5772 88.2727 57.9591 87.5815 57.5484 86.7677C57.297 86.2606 57.1981 85.6914 57.2636 85.1292C57.3292 84.567 57.5564 84.0359 57.9177 83.6002C57.9968 83.4627 58.0181 83.2995 57.9768 83.1463C57.9355 82.9931 57.835 82.8626 57.6975 82.7835C57.56 82.7044 57.3967 82.6832 57.2436 82.7245C57.0904 82.7658 56.9599 82.8662 56.8808 83.0037C56.4778 83.5243 56.2098 84.1366 56.1008 84.7859C55.9917 85.4352 56.045 86.1013 56.2558 86.7251C56.7211 87.9557 57.5671 89.0056 58.6705 89.7221C59.5553 90.3955 60.6272 90.7777 61.7385 90.8157C62.7433 90.8088 63.7266 90.5236 64.5792 89.9919C65.0636 89.6933 65.4472 89.2561 65.6802 88.7369C65.9132 88.2177 65.9849 87.6406 65.886 87.0802Z" fill="white"/>
<path id="Vector_60" d="M64.7638 91.8808C64.7256 91.8127 64.674 91.753 64.6122 91.7052C64.5505 91.6574 64.4797 91.6225 64.4042 91.6027C64.3286 91.5828 64.2499 91.5783 64.1726 91.5895C64.0953 91.6007 64.021 91.6273 63.9542 91.6678L63.6701 91.8524L63.5423 91.8808C63.3071 91.9683 63.0647 92.0349 62.8179 92.0797H62.6474H61.9089L61.5964 92.0087C61.4439 91.9688 61.2819 91.9894 61.1443 92.0661C61.0066 92.1429 60.904 92.2699 60.8578 92.4206C60.8221 92.5748 60.8462 92.7367 60.9253 92.8738C61.0044 93.0109 61.1325 93.1129 61.2839 93.1592C61.8728 93.2941 62.4846 93.2941 63.0736 93.1592C63.6376 93.0727 64.173 92.8536 64.636 92.52C64.717 92.4373 64.7722 92.3329 64.7949 92.2194C64.8176 92.1059 64.8068 91.9883 64.7638 91.8808Z" fill="white"/>
<path id="Vector_61" d="M32.2941 120.288C32.0345 119.89 31.8156 119.467 31.6407 119.024C31.4414 118.541 31.163 118.095 30.8169 117.703C30.0641 117.024 29.1925 116.49 28.246 116.127C28.1792 116.086 28.105 116.06 28.0276 116.048C27.9503 116.037 27.8716 116.042 27.796 116.062C27.7205 116.082 27.6497 116.116 27.5879 116.164C27.5262 116.212 27.4746 116.272 27.4364 116.34C27.3585 116.476 27.3372 116.637 27.3771 116.788C27.4169 116.94 27.5148 117.069 27.6495 117.149C28.0614 117.362 28.4875 117.547 28.8994 117.774C29.1043 117.882 29.3035 118.001 29.4959 118.129L29.6238 118.229L29.7232 118.3C29.8084 118.385 29.8937 118.456 29.9647 118.541L30.0783 118.669L30.263 118.953C30.3766 119.155 30.4762 119.363 30.5612 119.578C30.74 120.012 30.9538 120.43 31.2004 120.828C31.2854 120.961 31.4176 121.057 31.5704 121.097C31.7233 121.136 31.8854 121.116 32.0242 121.041C32.1522 120.969 32.2499 120.853 32.2995 120.715C32.349 120.577 32.3471 120.425 32.2941 120.288Z" fill="white"/>
<path id="Vector_62" d="M27.4365 46.0737C21.1709 52.5398 16.2216 60.1616 12.8634 68.5156C9.26587 77.0743 7.27724 86.2229 6.99728 95.5027C6.84137 100.495 7.34764 105.486 8.50287 110.346C8.67332 111.098 9.82382 110.772 9.63917 110.033C7.71048 101.385 7.66203 92.4243 9.49713 83.7562C11.2503 74.8019 14.5731 66.2282 19.3119 58.431C21.8436 54.2578 24.8564 50.3964 28.2887 46.926C28.4017 46.8129 28.4652 46.6597 28.4652 46.4998C28.4652 46.34 28.4017 46.1867 28.2887 46.0737C28.1757 45.9607 28.0224 45.8972 27.8626 45.8972C27.7027 45.8972 27.5495 45.9607 27.4365 46.0737Z" fill="white"/>
<path id="Vector_63" d="M17.8914 130.06C15.8016 126.752 14.0956 123.216 12.8065 119.521C12.5224 118.825 11.3861 119.124 11.656 119.848C12.9698 123.645 14.7191 127.277 16.8688 130.671C17.2949 131.282 18.3317 130.7 17.8914 130.06Z" fill="white"/>
<path id="Vector_64" d="M4.63929 111.667C1.28702 103.694 0.343863 94.9148 1.92637 86.4125C2.0542 85.6597 0.903705 85.3472 0.775872 86.1C-0.871137 94.9107 0.117 104.011 3.61662 112.263C3.88649 112.973 4.95177 112.363 4.63929 111.667Z" fill="white"/>
<path id="Vector_65" d="M50.8441 146.792C46.5114 147.787 42.0098 147.787 37.6772 146.792C35.9217 146.39 34.1907 145.888 32.4929 145.287C30.7099 144.738 29.0704 143.802 27.692 142.545C27.1522 141.992 26.2716 142.844 26.8398 143.383C28.2556 144.671 29.9316 145.64 31.7543 146.224C33.5846 146.905 35.4591 147.46 37.3647 147.886C41.9028 148.93 46.6185 148.93 51.1566 147.886C51.9094 147.772 51.5969 146.622 50.8441 146.792Z" fill="white"/>
<path id="Vector_66" d="M99.4351 127.177C95.5478 131.017 91.2896 134.461 86.7228 137.461C81.7089 140.557 76.0132 142.333 70.4595 144.165C67.4199 145.159 64.1531 146.58 60.8862 146.381C60.1192 146.381 60.1334 147.531 60.8862 147.574C63.8122 147.744 66.6529 146.636 69.4085 145.756C72.4907 144.761 75.5587 143.725 78.5983 142.603C81.2832 141.65 83.8823 140.472 86.3677 139.08C88.7183 137.678 90.9637 136.107 93.0861 134.379C95.5859 132.376 97.958 130.203 100.287 128.015C100.841 127.49 99.9891 126.652 99.4351 127.177Z" fill="white"/>
<path id="Vector_67" d="M121.039 36.486C120.442 39.2416 120.954 42.0823 120.712 44.8805C120.442 47.9201 119.803 50.9028 119.491 53.9282C118.821 59.8598 117.729 65.7361 116.224 71.5125C115.428 74.7935 114.605 78.0746 113.923 81.4551C113.767 82.1937 114.917 82.5204 115.073 81.7676C116.266 75.9724 117.914 70.2767 119.093 64.4816C119.715 61.6294 120.189 58.7469 120.513 55.8457C120.826 52.8203 121.309 49.8375 121.692 46.8264C121.922 45.1607 122.017 43.4792 121.976 41.7982C121.848 40.1528 121.92 38.4978 122.189 36.8695C122.346 36.0173 121.209 35.7048 121.039 36.486Z" fill="white"/>
<path id="Vector_68" d="M119.661 76.5977C119.107 79.822 117.886 82.8474 117.048 85.9864C116.361 89.0826 115.411 92.1143 114.207 95.0484C113.88 95.7443 114.917 96.3551 115.23 95.6591C116.473 92.7217 117.452 89.6796 118.156 86.5687C119.008 83.3445 120.272 80.2197 120.84 76.9244C120.925 76.1716 119.789 75.8449 119.661 76.5977Z" fill="white"/>
<path id="Vector_69" d="M118.212 101.511C118.06 101.471 117.898 101.492 117.76 101.569C117.623 101.645 117.52 101.772 117.474 101.923C116.252 104.744 114.828 107.474 113.213 110.09C113.134 110.228 113.112 110.391 113.154 110.544C113.195 110.697 113.295 110.828 113.433 110.907C113.57 110.986 113.734 111.007 113.887 110.966C114.04 110.925 114.17 110.824 114.25 110.687C115.924 107.958 117.396 105.109 118.653 102.164C118.674 102.02 118.641 101.873 118.56 101.752C118.478 101.631 118.354 101.545 118.212 101.511Z" fill="white"/>
<path id="Vector_70" d="M66.7239 28.3762C61.7668 30.5351 56.7813 32.6373 52.0656 35.2792C47.438 37.7918 43.1434 40.8743 39.2823 44.4548C37.1375 46.4433 35.1064 48.5455 33.0468 50.6334C32.956 50.7481 32.9105 50.8922 32.919 51.0382C32.9274 51.1843 32.9892 51.3221 33.0927 51.4256C33.1961 51.529 33.334 51.5908 33.48 51.5993C33.6261 51.6077 33.7701 51.5623 33.8848 51.4714C37.4003 47.7064 41.1991 44.2163 45.2478 41.0317C49.6104 37.9378 54.2682 35.283 59.1533 33.106C61.8946 31.8135 64.6643 30.6204 67.4341 29.413C68.0306 29.1006 67.4199 28.0779 66.7239 28.3762Z" fill="white"/>
<path id="Vector_71" d="M100.472 17.3966C96.6085 20.4504 91.9497 22.2401 87.5466 24.3707C82.7173 26.7143 78.2289 29.7255 73.6553 32.5236C70.9424 34.1855 68.2011 35.8047 65.3745 37.2819C64.7069 37.637 65.3745 38.7022 65.9853 38.3045C71.0134 35.6768 75.7717 32.623 80.6009 29.6403C82.8593 28.2199 85.1177 26.8989 87.4897 25.72C89.8618 24.5411 92.0633 23.5895 94.3359 22.4816C96.8054 21.313 99.1433 19.8846 101.31 18.2205C101.892 17.7659 101.026 16.9279 100.472 17.3966Z" fill="white"/>
<path id="Vector_72" d="M96.4665 26.8987C94.2365 29.1287 91.1259 30.1656 88.7539 32.2393C88.1716 32.7365 89.0238 33.5745 89.5919 33.0774C91.964 31.0036 95.0746 29.9809 97.3188 27.7367C97.8585 27.197 97.0063 26.3448 96.4665 26.8987Z" fill="white"/>
<path id="Vector_73" d="M117.36 24.825C113.213 27.9214 110.258 32.1826 106.551 35.7903C106.438 35.9033 106.375 36.0566 106.375 36.2164C106.375 36.3762 106.438 36.5295 106.551 36.6425C106.664 36.7555 106.818 36.819 106.977 36.819C107.137 36.819 107.29 36.7555 107.403 36.6425C110.969 33.0916 113.909 28.8731 117.957 25.8477C118.568 25.3932 117.971 24.3563 117.36 24.825Z" fill="white"/>
<path id="Vector_74" d="M133.297 23.9869C130.598 33.7449 128.453 43.6449 126.451 53.5591C125.897 56.3998 125.343 59.1695 124.803 61.9677C124.647 62.7205 125.797 63.033 125.953 62.2802C127.885 52.3376 129.86 42.3949 132.288 32.5944C132.97 29.7536 133.709 27.0549 134.447 24.3136C134.491 24.161 134.472 23.9975 134.394 23.859C134.356 23.7904 134.305 23.73 134.243 23.6813C134.182 23.6326 134.111 23.5964 134.035 23.575C133.883 23.5317 133.719 23.5507 133.581 23.628C133.442 23.7052 133.34 23.8343 133.297 23.9869Z" fill="white"/>
<path id="Vector_75" d="M51.5686 63.4733C49.6227 65.2914 47.4353 66.797 45.4326 68.5441C43.4298 70.2911 41.9527 72.1802 40.2056 73.9841C39.7314 72.6165 39.595 71.1546 39.8079 69.7229C40.0005 68.1337 39.8306 66.5215 39.3107 65.0073C39.2623 64.9311 39.1975 64.8666 39.1211 64.8184C39.0447 64.7703 38.9586 64.7397 38.8689 64.7288C38.7792 64.7179 38.6883 64.7271 38.6026 64.7556C38.5169 64.7841 38.4386 64.8313 38.3733 64.8937C34.8366 69.1548 33.2031 74.538 30.3624 79.2395C29.9647 78.089 29.7516 76.8532 29.3539 75.7169C28.9562 74.5806 28.2602 72.8762 26.8115 72.4075C26.686 72.3736 26.5529 72.3816 26.4324 72.4303C26.3119 72.479 26.2106 72.5658 26.1439 72.6773C23.7967 77.1601 22.6192 82.1629 22.7208 87.222C22.7208 87.9748 23.9565 87.989 23.9139 87.222C23.8025 82.5579 24.8416 77.9382 26.9393 73.771C27.7442 74.6297 28.2778 75.7068 28.4733 76.8674C28.7794 78.2304 29.2121 79.5619 29.7658 80.8445C29.8189 80.9327 29.8938 81.0057 29.9834 81.0564C30.073 81.1071 30.1742 81.1338 30.2772 81.1338C30.3801 81.1338 30.4813 81.1071 30.5709 81.0564C30.6605 81.0057 30.7355 80.9327 30.7885 80.8445C33.7571 76.3135 35.3195 70.9019 38.5721 66.6407C38.7142 68.0291 38.7142 69.4283 38.5721 70.8166C38.3907 72.4216 38.7887 74.0386 39.6943 75.3761C39.7486 75.4323 39.8137 75.4771 39.8857 75.5077C39.9576 75.5382 40.0351 75.554 40.1133 75.554C40.1915 75.554 40.2689 75.5382 40.3409 75.5077C40.4129 75.4771 40.478 75.4323 40.5323 75.3761C42.5066 73.4443 44.1968 71.2428 46.2138 69.4247C48.2307 67.6066 50.4749 66.1578 52.3498 64.3397C52.9747 63.8 52.1793 62.962 51.5686 63.4733Z" fill="white"/>
<path id="Vector_76" d="M93.0719 52.1103C92.9869 51.9773 92.8547 51.8815 92.7018 51.8419C92.549 51.8024 92.3869 51.8222 92.2481 51.8973C87.0471 54.1107 82.0109 56.6929 77.1779 59.6241C74.8059 61.0444 72.4623 62.5501 70.2039 64.1835C69.2096 64.8937 68.258 65.6039 67.3631 66.4135C66.7903 66.952 66.1618 67.4282 65.4882 67.8339C67.0506 63.4023 70.63 59.7661 70.9993 54.9226C70.9984 54.8184 70.9701 54.7162 70.9174 54.6262C70.8646 54.5363 70.7892 54.4617 70.6987 54.41C70.6082 54.3583 70.5057 54.3311 70.4014 54.3314C70.2971 54.3316 70.1947 54.3592 70.1044 54.4113C65.874 57.3475 62.0072 60.7757 58.5852 64.6238C55.0627 68.3736 52.6197 72.933 49.438 76.9527C48.9693 77.5492 49.8073 78.373 50.276 77.7907C53.4009 73.842 55.8155 69.3678 59.2528 65.6607C62.3669 62.1475 65.8423 58.972 69.6215 56.1868C68.7125 60.661 65.1047 64.2545 63.94 68.6861C63.915 68.788 63.9167 68.8947 63.945 68.9959C63.9733 69.097 64.0271 69.1891 64.1014 69.2633C64.1756 69.3376 64.2677 69.3914 64.3688 69.4197C64.4699 69.4479 64.5766 69.4497 64.6786 69.4247C65.781 69.1022 66.796 68.534 67.6472 67.7628C68.6273 66.9674 69.5789 66.172 70.6016 65.4334C72.8458 63.8 75.1894 62.3086 77.5614 60.8598C82.2126 58.0171 87.0586 55.5062 92.0634 53.346C91.9862 53.6256 91.8816 53.8968 91.7509 54.1556C91.4255 54.8234 91.0405 55.4605 90.6004 56.0589C89.8476 57.1242 88.9812 58.1185 88.2426 59.1838C85.4871 63.1182 83.0582 67.2799 80.1749 71.1291C79.7062 71.7541 80.743 72.3364 81.1975 71.7399C82.8026 69.6093 84.294 67.3935 85.757 65.1635C87.0069 63.2602 88.1574 61.2433 89.521 59.4821C90.43 58.2747 91.4243 57.1242 92.2197 55.8317C92.6547 55.3281 92.9598 54.7256 93.1083 54.0769C93.2569 53.4282 93.2444 52.753 93.0719 52.1103Z" fill="white"/>
<path id="Vector_77" d="M93.7961 69.581C89.2083 73.0751 84.1802 76.271 80.7571 80.944C80.3026 81.5548 81.3394 82.1513 81.7798 81.5405C84.7625 77.4215 89.0521 74.5239 93.1427 71.5127C90.998 78.9555 86.0409 85.1625 82.9729 92.2075C82.6604 92.9035 83.6973 93.5143 83.9955 92.8183C87.3334 85.1483 92.8587 78.4725 94.7194 70.1918C94.7904 69.8083 94.2506 69.2401 93.7961 69.581Z" fill="white"/>
<path id="Vector_78" d="M91.4812 93.6421C91.3961 93.5091 91.2639 93.4132 91.1111 93.3737C90.9583 93.3341 90.7962 93.3539 90.6573 93.429C88.6972 94.4943 87.3336 96.2697 85.5866 97.6901C84.99 98.1588 85.8422 98.9969 86.4388 98.5281C87.8592 97.406 89.0097 95.9573 90.5011 94.9204C90.4213 95.3348 90.2974 95.7396 90.1318 96.1277C89.6729 97.2042 89.1414 98.2482 88.541 99.2525C87.4899 101.071 86.1832 102.818 85.3025 104.735C84.9758 105.417 86.0127 106.028 86.3252 105.332C87.1021 103.867 87.9554 102.445 88.8819 101.071C89.9768 99.4228 90.8686 97.6486 91.5379 95.7868C91.6863 95.447 91.7582 95.0788 91.7483 94.7081C91.7385 94.3375 91.6473 93.9735 91.4812 93.6421Z" fill="white"/>
<path id="Vector_79" d="M80.7004 121.481C79.2315 121.83 77.843 122.457 76.6098 123.328C75.9706 123.74 76.6098 124.748 77.2205 124.351C78.1106 123.771 79.0636 123.294 80.0613 122.93C79.3964 124.502 78.3695 125.894 77.0643 126.992C75.4507 128.422 73.732 129.727 71.9225 130.898C69.7015 132.279 67.3742 133.481 64.9627 134.492C64.1247 134.875 63.3577 135.33 62.5622 135.77C61.9941 136.083 60.943 136.836 60.2613 136.679C59.5795 136.523 59.196 137.659 59.9488 137.83C61.2697 138.128 62.7895 137.006 63.8832 136.41C65.6445 135.401 67.562 134.662 69.38 133.739C71.0687 132.818 72.6961 131.788 74.2519 130.657C75.7689 129.6 77.1943 128.416 78.5131 127.12C79.9315 125.804 80.9213 124.092 81.3538 122.206C81.3718 122.113 81.3679 122.017 81.3425 121.926C81.3172 121.835 81.271 121.751 81.2077 121.681C81.1443 121.61 81.0655 121.556 80.9775 121.521C80.8895 121.487 80.7946 121.473 80.7004 121.481Z" fill="white"/>
</g>
</svg>
