<svg width="65" height="67" viewBox="0 0 65 67" fill="none" xmlns="http://www.w3.org/2000/svg">
<g id="Group 1410127387">
<path id="Vector" d="M43.9095 37.9169C43.3085 35.6464 42.3446 33.488 41.055 31.525C41.7201 30.7343 42.4274 29.9802 43.174 29.266C43.3011 29.1546 43.3848 29.0019 43.4104 28.8349C43.4361 28.6678 43.4019 28.4971 43.314 28.3527C43.2262 28.2084 43.0902 28.0996 42.93 28.0456C42.7699 27.9917 42.5958 27.9959 42.4385 28.0577C42.5385 28.0036 42.6324 27.939 42.7187 27.865C43.4892 27.3922 43.3141 26.324 42.3509 26.4465C41.0626 26.6417 39.7876 26.9166 38.5333 27.2696C38.5333 26.8668 38.5333 26.4641 38.5333 26.0788C38.5333 24.9405 36.7821 25.5885 36.7821 26.4641C36.6245 28.548 36.537 30.7545 36.1692 32.8734C36.3268 30.807 36.6595 28.7406 36.6245 26.6917C36.6245 26.0438 36.0291 25.9912 35.5388 26.2014C34.8908 25.676 34.2779 25.1156 33.6825 24.5377C33.6825 24.4152 33.6825 24.2926 33.6825 24.1875C33.6825 23.5921 33.2797 23.522 32.8419 23.6797C31.0907 21.9285 29.5497 20.0196 27.851 18.2509C27.2906 17.673 25.8722 18.3735 26.0998 19.1966C26.3275 20.0196 26.6952 20.7376 26.9929 21.5782C26.873 21.6512 26.7693 21.7479 26.688 21.8623C26.6067 21.9767 26.5496 22.1065 26.5201 22.2437C26.1874 24.5377 25.8371 26.8318 25.4168 29.1259C24.8556 29.5281 24.2708 29.8966 23.6656 30.2291C23.1427 30.4483 22.6338 30.6998 22.1421 30.9822H21.967L21.7393 31.1047C20.8812 31.6301 21.319 32.8559 22.3172 32.4181L22.5799 32.278C21.4749 33.4619 20.6912 34.9087 20.3033 36.4809C20.3033 36.8662 20.6186 37.0938 20.9338 37.1289C22.3698 37.2164 23.8233 37.3215 25.2592 37.4441L25.1542 38.4773C25.0491 39.4755 26.3975 38.8976 26.7127 38.4773C27.5161 37.3944 28.11 36.1709 28.4639 34.8698C28.2363 37.1814 28.0436 39.4755 27.9736 41.8746C27.9736 42.9253 29.7248 42.3474 29.7248 41.5069C29.861 38.9321 30.2066 36.3728 30.758 33.8541H31.0032C30.8806 35.0274 30.793 36.2182 30.758 37.3565C30.657 37.4517 30.5843 37.5729 30.5479 37.7068C29.97 40.4561 29.8474 43.3106 29.1119 46.0249C28.7791 47.2858 30.6354 46.9706 30.8631 46.0249C31.2677 44.7202 31.5664 43.385 31.7562 42.0322C32.1239 42.3299 32.8419 42.0322 33.1396 41.752C34.2429 40.6838 35.0134 39.3529 36.0291 38.2496C37.1149 37.0588 38.5158 37.3215 39.9518 37.7593C40.1338 37.7994 40.3229 37.7948 40.5028 37.746C40.6827 37.6972 40.8481 37.6057 40.985 37.4791C41.3014 38.041 41.6899 38.5591 42.1408 39.0202C42.316 39.1767 42.5372 39.2722 42.7712 39.2923C43.0053 39.3124 43.2395 39.2561 43.4388 39.1317C43.6382 39.0074 43.7918 38.8218 43.8766 38.6028C43.9615 38.3837 43.973 38.1431 43.9095 37.9169ZM34.5756 27.8475C34.2079 29.301 33.8576 30.737 33.4899 32.1905C33.2567 32.1732 33.0226 32.1732 32.7894 32.1905C32.9995 30.4393 33.2447 28.6881 33.4198 26.9369C33.8576 27.2171 34.1904 27.5498 34.5756 27.8475Z" fill="#FBC820"/>
<path id="Vector_2" d="M44.8025 23.9246C43.3838 23.2451 41.7686 23.096 40.2494 23.5043L37.6226 23.9771C36.9834 24.108 36.3284 24.1434 35.6788 24.0822C35.1885 23.2591 34.6456 22.4536 34.0852 21.6831C33.1519 20.3566 32.0644 19.1456 30.8455 18.0756C30.3867 17.5928 29.8272 17.217 29.2067 16.9749C28.5862 16.7328 27.9201 16.6302 27.2555 16.6746C25.5043 17.0249 25.0315 19.0212 24.8564 20.5448C24.7163 21.7006 24.6112 22.8914 24.5237 24.0472C24.4011 25.6057 24.5237 27.1468 24.5237 28.6879C23.1423 29.0606 21.846 29.6969 20.7061 30.5616C19.345 31.4118 18.1905 32.5544 17.3262 33.9064C17.0136 34.4475 16.8986 35.0803 17.0008 35.6968C17.103 36.3132 17.4161 36.875 17.8866 37.2862C18.9375 38.1412 20.1723 38.7406 21.4941 39.0374C22.7423 39.3699 24.0121 39.6157 25.2942 39.7729C25.5569 40.5785 25.6619 41.5241 25.8546 42.2772C26.0597 43.0797 26.3291 43.8644 26.6601 44.6238C27.0054 45.5072 27.452 46.3475 27.991 47.128C28.3566 47.745 28.9362 48.2062 29.6197 48.4239C30.8455 48.7216 31.7911 47.6708 32.3865 46.7602C33.1323 45.525 33.7206 44.2013 34.1377 42.82C34.5405 41.6642 34.8732 40.4909 35.206 39.3176L35.7313 39.4402C36.0573 39.5549 36.3735 39.6954 36.677 39.8605C37.43 40.2633 38.1655 40.7011 38.9185 41.1389C40.3238 42.1461 42.0241 42.6575 43.7518 42.5924C46.9915 42.0845 45.0477 37.4614 44.2246 35.7277C43.7316 34.6169 43.1148 33.5654 42.3859 32.593C42.9288 32.0326 43.4716 31.4723 43.9795 30.8418C44.9677 29.8134 45.7206 28.5825 46.186 27.2344C46.3557 26.6074 46.3118 25.9417 46.0613 25.3425C45.8108 24.7432 45.368 24.2443 44.8025 23.9246ZM44.8025 26.7265C44.4743 27.8537 43.8728 28.8823 43.0513 29.7211C42.2108 30.7017 41.3001 31.5948 40.372 32.523C40.246 32.6558 40.174 32.8309 40.1702 33.014C40.1664 33.1971 40.231 33.375 40.3515 33.513C40.4719 33.6509 40.6395 33.739 40.8214 33.7599C41.0033 33.7809 41.1865 33.7332 41.3352 33.6262L41.7204 34.2041C42.0532 34.747 42.3684 35.2899 42.6661 35.8678C43.2825 37.0134 43.7363 38.2394 44.0145 39.5103C44.0431 39.7312 44.0431 39.9548 44.0145 40.1757C44.0228 40.304 44.0228 40.4327 44.0145 40.561V40.7361C44.0195 40.7709 44.0195 40.8063 44.0145 40.8412L43.8569 40.9287C44.032 40.9287 43.6292 40.9287 43.6468 40.9287C42.1929 40.8961 40.7876 40.399 39.6365 39.5103C38.866 39.0725 38.113 38.6172 37.3074 38.2319C36.5854 37.8983 35.787 37.7652 34.9958 37.8466C34.8737 37.8429 34.7529 37.8738 34.6476 37.9358C34.5422 37.9978 34.4565 38.0883 34.4004 38.1969C34.2594 38.205 34.1249 38.2591 34.0174 38.3507C33.9099 38.4424 33.8353 38.5667 33.805 38.7047C33.2512 40.9302 32.4768 43.0948 31.4934 45.1666C31.3533 45.4293 31.2132 45.692 31.0556 45.9547C30.9385 46.1477 30.8037 46.3295 30.6529 46.4975C30.6529 46.5851 30.4777 46.6727 30.3902 46.7602L30.1625 46.8828C30.3552 46.8828 30.075 46.8828 30.0575 46.8828H29.9349C29.7133 46.7564 29.5221 46.583 29.3745 46.375C28.9011 45.7141 28.5128 44.9963 28.2187 44.2385C27.876 43.444 27.595 42.6244 27.3781 41.7868C27.2288 40.8256 27.0064 39.8772 26.7127 38.9499C26.6736 38.8178 26.599 38.699 26.4971 38.6064C26.3953 38.5138 26.2699 38.4509 26.1348 38.4245C26.0019 38.3225 25.8452 38.2562 25.6795 38.2319H25.5218H25.2417L24.4886 38.1093C23.9107 38.0217 23.3328 37.8992 22.7374 37.7591C21.5822 37.5359 20.4705 37.1279 19.4452 36.5507C19.1001 36.3516 18.811 36.0685 18.6046 35.7277C18.546 35.6179 18.5046 35.4998 18.482 35.3774C18.4659 35.1789 18.5021 34.9797 18.5871 34.7995C19.1621 33.7329 19.9849 32.8201 20.9862 32.1377C21.6959 31.6029 22.4452 31.1228 23.2278 30.7017C23.7747 30.393 24.3651 30.1686 24.979 30.0363C25.171 30.0317 25.3536 29.9522 25.4878 29.8148C25.6219 29.6773 25.697 29.4928 25.697 29.3008C25.7963 29.1815 25.8574 29.035 25.8721 28.8805C25.8721 27.5846 25.8721 26.3062 25.8721 25.0103C25.8721 23.9946 26.0647 22.9789 26.1348 21.9457C26.2016 21.0348 26.378 20.1352 26.6601 19.2664C26.734 18.9557 26.8914 18.671 27.1154 18.4433C27.2276 18.3258 27.3655 18.2359 27.5182 18.1807C27.6839 18.1315 27.8603 18.1315 28.0261 18.1807H28.2537L28.5339 18.2857C29.0693 18.532 29.5651 18.8566 30.0049 19.2489C31.0567 20.1809 32.0023 21.2263 32.8243 22.366C33.5759 23.3546 34.2548 24.3964 34.8557 25.4832C34.9094 25.5846 34.9872 25.6714 35.0823 25.7357C35.1774 25.8 35.2868 25.84 35.401 25.8521C35.5152 25.8642 35.6306 25.8481 35.737 25.8051C35.8435 25.7622 35.9377 25.6937 36.0115 25.6057C37.0852 25.5999 38.1546 25.4706 39.1987 25.2205C40.5184 24.8458 41.8997 24.7386 43.2615 24.9053C43.7538 25.0007 44.2021 25.2525 44.5399 25.6233C44.6521 25.7814 44.7303 25.9611 44.7695 26.151C44.8087 26.3409 44.808 26.5369 44.7675 26.7265H44.8025Z" fill="white"/>
<path id="Vector_3" d="M28.5515 31.6126C28.6072 31.7102 28.6857 31.793 28.7802 31.854C28.8746 31.915 28.9824 31.9523 29.0944 31.9628C29.2045 31.9805 29.3172 31.9723 29.4236 31.9389C29.53 31.9054 29.6271 31.8477 29.7073 31.7702C29.8765 31.6088 30.0082 31.4123 30.0929 31.1944C30.1776 30.9765 30.2134 30.7426 30.1976 30.5093V30.3167C30.1473 30.0107 30.034 29.7185 29.8649 29.4586C29.7956 29.3545 29.7063 29.2652 29.6022 29.1959C29.4589 29.1146 29.2924 29.0837 29.1294 29.1083C28.9871 29.1266 28.8533 29.1861 28.7444 29.2794C28.6355 29.3728 28.5563 29.4959 28.5165 29.6337C28.5079 29.68 28.5079 29.7275 28.5165 29.7738L28.4114 29.8789C28.3363 30.0079 28.2886 30.1509 28.2713 30.2992C28.2626 30.4157 28.2626 30.5328 28.2713 30.6494C28.2819 30.8214 28.3113 30.9917 28.3589 31.1572C28.4145 31.3125 28.4788 31.4645 28.5515 31.6126Z" fill="white"/>
<path id="Vector_4" d="M31.8087 29.3011C31.9287 29.6566 32.1193 29.9843 32.3691 30.2643C32.4485 30.3488 32.5477 30.4122 32.6578 30.4489C32.7678 30.4855 32.8852 30.4943 32.9995 30.4744C33.0856 30.4967 33.176 30.4967 33.2622 30.4744C33.3741 30.4152 33.4657 30.3237 33.5248 30.2117C33.6636 30.0329 33.7607 29.8253 33.8092 29.6042C33.8577 29.383 33.8562 29.1539 33.805 28.9334C33.6892 28.5789 33.454 28.2757 33.1396 28.0753C33.081 27.9733 32.9964 27.8887 32.8944 27.8301H32.7193C32.6167 27.7978 32.5067 27.7978 32.4041 27.8301C32.3093 27.8269 32.215 27.8441 32.1274 27.8803C32.0399 27.9165 31.961 27.9711 31.8962 28.0403C31.7541 28.1786 31.6723 28.3673 31.6686 28.5656C31.6924 28.8075 31.7333 29.0475 31.7912 29.2836C31.7969 29.2895 31.8028 29.2953 31.8087 29.3011Z" fill="white"/>
<path id="Vector_5" d="M35.4162 30.124C35.5272 31.085 35.3267 32.0562 34.8444 32.8948C34.3621 33.7333 33.6233 34.3949 32.7369 34.7822C31.8959 35.0848 30.9906 35.1633 30.1101 35.0099C29.3746 34.8873 28.3589 34.5896 28.0787 33.8191C28.0253 33.631 27.8994 33.4718 27.7286 33.3765C27.5578 33.2813 27.3562 33.2578 27.1681 33.3112C26.98 33.3646 26.8208 33.4906 26.7256 33.6613C26.6303 33.8321 26.6068 34.0337 26.6602 34.2218C27.1242 35.0631 27.8395 35.7382 28.7062 36.1527C29.5729 36.5672 30.5475 36.7003 31.4935 36.5334C32.4746 36.4821 33.4257 36.1778 34.2542 35.6499C35.0828 35.1221 35.7606 34.3888 36.2218 33.5214C36.7304 32.464 36.9652 31.2958 36.9048 30.124C36.8522 29.1784 35.3812 29.1784 35.4162 30.124Z" fill="white"/>
<path id="Vector_6" d="M39.1287 55.1312C39.1066 55.0347 39.0652 54.9436 39.0069 54.8635C38.9487 54.7834 38.875 54.7158 38.79 54.6649C38.7051 54.614 38.6107 54.5808 38.5126 54.5672C38.4145 54.5537 38.3147 54.5601 38.2191 54.586C38.1235 54.612 38.0342 54.657 37.9564 54.7183C37.8787 54.7796 37.8141 54.856 37.7666 54.9429C37.7191 55.0298 37.6896 55.1254 37.6799 55.2239C37.6702 55.3225 37.6806 55.422 37.7103 55.5165C39.0762 58.8437 39.7767 62.3812 40.9675 65.761C41.2827 66.6366 42.7187 66.2688 42.386 65.3757C41.1952 61.9784 40.4947 58.441 39.1287 55.1312Z" fill="white"/>
<path id="Vector_7" d="M6.18873 44.4489C4.29744 45.2545 2.44117 46.0951 0.514848 46.8131C0.333562 46.8701 0.18138 46.995 0.0901965 47.1618C-0.000987411 47.3285 -0.0240952 47.5241 0.0257159 47.7075C0.075527 47.8909 0.19439 48.0479 0.357395 48.1455C0.5204 48.2432 0.714892 48.2741 0.900111 48.2315C2.94901 47.4785 4.92787 46.5679 6.92423 45.7098C7.00821 45.6627 7.08185 45.5991 7.14077 45.523C7.19969 45.4468 7.24268 45.3595 7.26719 45.2664C7.2917 45.1733 7.29722 45.0762 7.28343 44.9809C7.26964 44.8855 7.23682 44.794 7.18691 44.7116C7.08833 44.5456 6.9284 44.4249 6.74164 44.3758C6.55488 44.3266 6.35628 44.3529 6.18873 44.4489Z" fill="white"/>
<path id="Vector_8" d="M63.4179 23.6272C59.7053 25.6708 55.7099 27.1521 51.5623 28.0227C50.6342 28.2329 51.0194 29.6338 51.9476 29.4412C56.229 28.5562 60.3585 27.0519 64.206 24.9756C64.3848 24.8711 64.5147 24.6999 64.5673 24.4995C64.6198 24.2992 64.5907 24.0862 64.4862 23.9074C64.3817 23.7286 64.2104 23.5986 64.0101 23.5461C63.8097 23.4935 63.5967 23.5227 63.4179 23.6272Z" fill="white"/>
<path id="Vector_9" d="M23.0877 11.6139C23.4029 12.507 24.8389 12.1218 24.5062 11.2287C23.2278 7.6212 21.7918 4.08378 20.4434 0.493822C20.1107 -0.381777 18.6922 0.00348638 19.0249 0.896598C20.3733 4.46904 21.8268 8.00646 23.0877 11.6139Z" fill="white"/>
<path id="Vector_10" d="M48.2876 2.12258C47.7282 4.11335 47.0438 6.06689 46.2387 7.97158C46.1512 8.14098 46.1297 8.33679 46.1782 8.52116C46.2267 8.70552 46.3419 8.86536 46.5014 8.96977C46.6641 9.07604 46.8623 9.11358 47.0526 9.07421C47.2429 9.03483 47.4099 8.92174 47.5171 8.75962C48.3786 6.7302 49.1097 4.64788 49.7061 2.52536C49.9863 1.61473 48.5678 1.22947 48.2876 2.12258Z" fill="white"/>
<path id="Vector_11" d="M7.88727 23.3993C5.62222 22.8497 3.39857 22.1416 1.23272 21.2804C0.322093 21.0177 -0.028147 22.4187 0.82994 22.7689C3.00355 23.6064 5.233 24.291 7.50201 24.8178C7.68982 24.8627 7.88762 24.8354 8.05626 24.7413C8.2249 24.6473 8.35208 24.4933 8.41263 24.31C8.46111 24.1196 8.43331 23.9179 8.33516 23.7478C8.23702 23.5777 8.0763 23.4526 7.88727 23.3993Z" fill="white"/>
<path id="Vector_12" d="M21.8795 56.1469C21.712 56.0509 21.5134 56.0246 21.3266 56.0738C21.1398 56.1229 20.9799 56.2435 20.8813 56.4096C20.2108 57.7308 19.6258 59.0937 19.1301 60.4899C19.0809 60.6779 19.1063 60.8776 19.201 61.0473C19.2956 61.217 19.4522 61.3436 19.638 61.4005C19.8283 61.449 20.03 61.4212 20.2001 61.3231C20.3703 61.2249 20.4953 61.0642 20.5486 60.8752L20.8813 59.912L21.074 59.4392L21.179 59.1765V59.0364C21.4592 58.3885 21.7394 57.758 22.0546 57.1451C22.1549 56.9868 22.1925 56.7967 22.1601 56.6122C22.1277 56.4276 22.0277 56.2617 21.8795 56.1469Z" fill="white"/>
<path id="Vector_13" d="M56.8334 48.6691C56.0979 48.2138 55.3274 47.7935 54.5568 47.3733C54.3893 47.2772 54.1907 47.251 54.0039 47.3001C53.8172 47.3492 53.6572 47.4699 53.5587 47.6359C53.4671 47.8045 53.4433 48.0016 53.4921 48.1871C53.5409 48.3726 53.6587 48.5325 53.8213 48.6341C54.5919 49.0719 55.3449 49.4922 56.0979 49.9475C56.1818 49.9958 56.2745 50.0271 56.3705 50.0396C56.4665 50.0521 56.5641 50.0455 56.6576 50.0203C56.7511 49.9951 56.8387 49.9518 56.9155 49.8927C56.9922 49.8336 57.0565 49.76 57.1048 49.6761C57.1531 49.5921 57.1844 49.4995 57.1969 49.4035C57.2094 49.3075 57.2029 49.2099 57.1777 49.1164C57.1525 49.0229 57.1091 48.9353 57.05 48.8585C56.9909 48.7818 56.9173 48.7174 56.8334 48.6691Z" fill="white"/>
<path id="Vector_14" d="M64.6438 53.065L62.2096 51.4364C62.1267 51.3803 62.0332 51.3416 61.9349 51.3228C61.8365 51.3041 61.7354 51.3056 61.6376 51.3273C61.5399 51.349 61.4476 51.3904 61.3664 51.449C61.2852 51.5077 61.2169 51.5822 61.1656 51.6682C61.1142 51.7542 61.081 51.8497 61.0679 51.949C61.0547 52.0482 61.062 52.1491 61.0893 52.2455C61.1165 52.3418 61.1632 52.4316 61.2263 52.5093C61.2895 52.587 61.3678 52.6509 61.4566 52.6973L63.9082 54.3259C64.0731 54.3964 64.2581 54.4042 64.4283 54.3479C64.5985 54.2916 64.7424 54.1751 64.8327 54.0202C64.9231 53.8653 64.9537 53.6828 64.9189 53.5069C64.8841 53.331 64.7863 53.1738 64.6438 53.065Z" fill="white"/>
</g>
</svg>
