<svg width="138" height="104" viewBox="0 0 138 104" fill="none" xmlns="http://www.w3.org/2000/svg">
<g id="Group 1410127395">
<g id="Group 1410127394">
<path id="Vector" d="M36.1095 80.5293C31.9495 83.5293 27.5495 86.1993 23.2295 88.9593C23.1722 88.9964 23.1232 89.0448 23.0853 89.1015C23.0475 89.1583 23.0217 89.2222 23.0095 89.2893C20.8295 90.4293 18.6495 91.5793 16.5095 92.7893C14.6695 93.8393 12.8695 94.9393 11.1195 96.1093C10.8795 96.2693 10.8495 96.5293 10.9795 96.6593L10.6995 96.8293C9.94946 97.3093 9.20946 97.8293 8.48946 98.3793C9.76327 96.9369 10.8087 95.3081 11.5895 93.5493C11.7795 93.0493 11.0695 93.0893 10.8495 93.3293C9.20946 95.1093 7.53946 96.8593 5.84946 98.6393C7.23946 95.9293 9.11946 93.4493 9.95946 90.4693C10.0695 90.0693 9.58946 89.9593 9.31946 90.1693C7.31946 91.7993 5.89946 94.0493 4.13946 95.9493C5.3516 93.1202 6.78609 90.3916 8.42946 87.7893C9.11946 86.7893 9.77946 85.7893 10.4295 84.7893C10.7395 84.2993 9.99946 84.2393 9.74946 84.5893C9.12946 85.4893 8.51946 86.3993 7.92946 87.3193C7.33946 88.2393 6.66946 89.0693 5.99946 89.9193C7.66111 87.3934 9.07755 84.7146 10.2295 81.9193C10.3595 81.5293 9.82946 81.5493 9.64946 81.7493C6.64946 85.0893 5.79946 89.7493 3.02946 93.2693C2.68946 93.6993 3.19946 93.9393 3.53946 93.6193C4.17946 93.0093 4.79946 92.3593 5.37946 91.6993C4.38867 93.5504 3.4974 95.4531 2.70946 97.3993C2.54946 97.7893 3.08946 97.8793 3.31946 97.6893C5.41946 95.9893 6.79946 93.5993 8.68946 91.6893C7.48946 94.7793 5.30946 97.4293 4.12946 100.539C3.94946 101.029 4.62946 100.999 4.84946 100.759C6.32946 99.1193 7.84946 97.5193 9.36946 95.9193C9.02946 96.4193 8.66946 96.9193 8.29946 97.3693C7.36946 98.5593 6.38946 99.6993 5.47946 100.909L5.39946 101.009C5.37014 101.045 5.34902 101.087 5.33758 101.132C5.32614 101.177 5.32465 101.224 5.33322 101.27C5.34178 101.316 5.3602 101.359 5.38718 101.397C5.41416 101.435 5.44906 101.466 5.48946 101.489C5.59423 101.523 5.70667 101.527 5.81316 101.498C5.91965 101.47 6.01562 101.411 6.08946 101.329C7.58448 99.9015 9.21179 98.6191 10.9495 97.4993C12.3858 96.539 13.9426 95.7724 15.5795 95.2193C13.5795 97.4693 10.4495 98.4993 8.57946 100.899C8.38946 101.139 8.42946 101.579 8.83946 101.459C16.0088 99.3129 22.8173 96.1075 29.0395 91.9493C30.7495 90.8593 32.4295 89.7093 34.0395 88.5093C34.3395 88.2793 34.3595 87.7193 33.8595 87.8293C27.1595 89.2793 20.9095 92.1693 14.5795 94.7293C19.9195 91.5393 25.5795 88.8793 30.9695 85.8493C32.7895 84.8493 34.5795 83.7693 36.3295 82.6293C36.7595 82.3493 36.5395 81.6293 36.0195 81.9493C33.9595 83.0193 32.0195 84.2493 30.0195 85.4493C32.1895 84.0193 34.3295 82.5593 36.4395 81.0393C36.9095 80.7293 36.5795 80.2193 36.1095 80.5293ZM14.5795 98.7893C13.0928 99.4026 11.5828 99.9393 10.0495 100.399C11.044 99.5505 12.104 98.7814 13.2195 98.0993C14.7084 97.2136 16.0096 96.045 17.0495 94.6593C17.0948 94.6025 17.1195 94.5319 17.1195 94.4593C22.0106 92.293 27.0501 90.4784 32.1995 89.0293C26.7241 92.9543 20.8111 96.2296 14.5795 98.7893Z" fill="#FF6845"/>
<path id="Vector_2" d="M27.5795 87.2192C25.0712 88.996 22.3912 90.517 19.5795 91.7592C16.8395 92.9792 13.6695 94.6092 10.5795 93.9292C6.76951 93.0992 9.24951 88.2192 10.3695 86.1092C11.1595 84.6092 12.1095 83.1892 12.9095 81.6992C13.1695 81.2192 12.4395 80.7992 12.1895 81.2692C10.5495 84.2692 8.18951 87.2692 7.73951 90.7992C7.57462 91.5323 7.6664 92.2997 7.9995 92.9732C8.3326 93.6467 8.88683 94.1854 9.56951 94.4992C12.3695 95.6592 15.5695 94.3692 18.1795 93.2692C21.6695 91.8829 24.9907 90.1049 28.0795 87.9692C28.4595 87.6592 28.0395 86.9292 27.5795 87.2192Z" fill="white"/>
<path id="Vector_3" d="M8.73947 96.0992H8.38947H8.18947H8.10947C7.86488 96.0593 7.62405 95.9991 7.38947 95.9192H7.31947C7.26924 95.8951 7.22221 95.8649 7.17947 95.8292H7.10947L6.98947 95.7092L6.91947 95.5692V95.4892C6.91947 95.4892 6.91947 95.4292 6.91947 95.3992C6.91947 95.3692 6.91947 95.3992 6.91947 95.3392C6.91692 95.2286 6.87186 95.1232 6.79364 95.045C6.71542 94.9668 6.61006 94.9217 6.49947 94.9192C6.38965 94.9241 6.28564 94.9699 6.20791 95.0476C6.13017 95.1254 6.08436 95.2294 6.07947 95.3392C6.1031 95.7031 6.23549 96.0515 6.45947 96.3392C6.63709 96.5573 6.86781 96.726 7.12947 96.8292C7.68507 97.0449 8.27367 97.1633 8.86947 97.1792C8.98086 97.1792 9.08769 97.1349 9.16645 97.0562C9.24522 96.9774 9.28947 96.8706 9.28947 96.7592C9.37122 96.6846 9.42106 96.5813 9.42859 96.4709C9.43613 96.3604 9.40079 96.2513 9.32993 96.1663C9.25906 96.0813 9.15814 96.0268 9.04816 96.0143C8.93817 96.0018 8.82761 96.0322 8.73947 96.0992Z" fill="white"/>
<path id="Vector_4" d="M126.279 6.0493C125.998 5.59462 125.571 5.24838 125.069 5.06684C124.566 4.8853 124.016 4.87912 123.509 5.0493C123.009 5.2293 123.229 6.0493 123.739 5.8593C124.739 5.4793 125.609 6.2793 125.969 7.2093C126.259 8.20409 126.178 9.27033 125.739 10.2093C124.969 12.2093 123.479 13.8393 122.659 15.8193C122.459 16.3193 123.269 16.5393 123.469 16.0493C124.469 13.7093 126.469 11.8193 126.879 9.2693C127.012 8.72063 127.028 8.15005 126.924 7.59507C126.821 7.0401 126.601 6.51329 126.279 6.0493Z" fill="white"/>
<path id="Vector_5" d="M129.579 6.76918C129.553 6.72228 129.517 6.68128 129.474 6.64862C129.431 6.61597 129.382 6.59235 129.329 6.57918C129.277 6.5569 129.221 6.54541 129.164 6.54541C129.108 6.54541 129.052 6.5569 128.999 6.57918C128.91 6.63885 128.843 6.7269 128.809 6.82918C128.635 7.28133 128.494 7.74597 128.389 8.21918C128.362 8.32786 128.378 8.44305 128.434 8.5402C128.49 8.63734 128.581 8.70874 128.689 8.73918C128.795 8.76696 128.908 8.75217 129.003 8.69799C129.099 8.6438 129.169 8.55451 129.199 8.44918C129.304 7.97271 129.445 7.50474 129.619 7.04918C129.641 6.95409 129.626 6.85453 129.579 6.76918Z" fill="white"/>
</g>
<g id="Group 1410127393">
<path id="Vector_6" d="M136.459 7.15918C134.459 9.15918 132.719 11.2892 130.839 13.3592C130.769 13.4492 130.689 13.5292 130.619 13.6092C129.55 14.7887 128.418 15.9103 127.229 16.9692C130.359 13.3492 133.669 9.87918 136.229 5.81918C136.609 5.22918 135.749 5.00918 135.399 5.43918C133.094 8.24401 130.4 10.7055 127.399 12.7492C129.299 10.5959 131.223 8.46585 133.169 6.35918C133.639 5.83918 133.049 5.45918 132.549 5.74918C130.429 7.00918 128.549 8.67918 126.399 9.86918C128.479 7.97918 130.929 6.49918 132.969 4.55918C133.399 4.15918 132.969 3.71918 132.509 3.88918C132.049 4.05918 131.509 4.27918 130.979 4.49918C131.852 3.86732 132.65 3.13942 133.359 2.32918C133.639 2.01918 133.519 1.54918 133.039 1.63918C132.288 1.78258 131.548 1.98657 130.829 2.24918C130.868 2.19786 130.892 2.13694 130.898 2.07307C130.904 2.0092 130.893 1.94484 130.865 1.88704C130.837 1.82923 130.794 1.7802 130.74 1.74531C130.686 1.71041 130.624 1.691 130.559 1.68918C128.209 1.36918 125.689 2.53918 123.639 3.53918C121.403 4.67091 119.232 5.92964 117.139 7.30918C113.709 8.89918 110.289 10.5092 106.799 11.9392C104.519 12.8692 102.209 13.7292 99.8594 14.4392C99.6694 14.4892 99.5894 14.8192 99.8594 14.7492C105.751 12.9281 111.503 10.6822 117.069 8.02918C117.162 8.06646 117.266 8.06646 117.359 8.02918C118.999 7.66918 120.629 7.24918 122.229 6.74918L121.629 7.14918C121.079 7.55918 121.519 8.14918 122.099 7.81918C123.349 7.00918 124.619 6.24918 125.919 5.51918L127.159 4.82918C127.449 4.68918 127.729 4.53918 127.999 4.38918C129.182 3.76892 130.417 3.25361 131.689 2.84918C129.279 5.07918 126.129 6.41918 123.749 8.71918C123.259 9.17918 123.859 9.61918 124.339 9.29918C126.227 8.00083 128.194 6.82186 130.229 5.76918C128.027 7.27432 125.989 9.00721 124.149 10.9392C123.779 11.3692 124.099 11.7892 124.619 11.6092C126.569 10.8464 128.393 9.79464 130.029 8.48918C128.199 10.4892 126.379 12.4892 124.609 14.5892C124.532 14.653 124.478 14.7407 124.457 14.8386C124.435 14.9364 124.446 15.0387 124.489 15.1292C123.769 15.7692 123.079 16.4592 122.349 17.1292C122.304 17.1713 122.268 17.2224 122.243 17.2791C122.218 17.3359 122.205 17.3972 122.205 17.4592C122.205 17.5211 122.218 17.5824 122.243 17.6392C122.268 17.696 122.304 17.7471 122.349 17.7892C122.579 17.9692 122.919 17.7892 123.099 17.6192C123.889 16.9192 124.639 16.1692 125.429 15.4892C124.813 16.5413 124.064 17.5093 123.199 18.3692C121.939 19.6892 120.559 20.8892 119.199 22.0992C116.199 24.7492 113.249 27.4492 110.439 30.2692C108.83 31.8583 107.342 33.5664 105.989 35.3792C104.869 36.3792 103.799 37.4292 102.739 38.4892C100.669 40.3192 98.5194 42.0792 96.4594 43.9292C95.8694 44.2903 95.2466 44.595 94.5994 44.8392C95.2294 44.3292 95.8594 43.8392 96.4794 43.3192C99.5855 40.7447 102.556 38.011 105.379 35.1292C105.749 34.7392 105.379 34.1892 104.899 34.4492C102.49 35.746 100.275 37.3753 98.3194 39.2892C96.6167 40.8833 95.0605 42.627 93.6694 44.4992C91.8894 45.9258 90.0927 47.3325 88.2794 48.7192C82.4894 53.1192 76.5794 57.3492 70.9994 61.9592C69.4194 63.2525 67.8694 64.5858 66.3494 65.9592L64.9594 66.9592C59.1894 70.9592 53.1694 74.6492 47.3294 78.5692C46.2394 79.2992 45.1694 80.0392 44.0894 80.7692C42.6394 81.6292 41.1694 82.4392 39.6694 83.2192L39.2894 83.3792C42.5494 80.4392 45.9394 77.6492 49.4294 74.9692C51.7294 73.5792 54.0194 72.1492 56.2594 70.6392C59.3151 68.5999 62.2656 66.4071 65.0994 64.0692C65.6594 63.6092 65.2294 62.9692 64.6094 63.3692C59.1794 66.7792 53.8994 70.4492 48.8194 74.3692C45.2294 76.5292 41.5794 78.5892 37.9194 80.6192C36.5831 81.0506 35.2825 81.5855 34.0294 82.2192C31.1594 83.6892 28.4594 85.4592 25.7494 87.2192C24.5394 87.9992 23.3294 88.7692 22.0694 89.4692L21.5894 89.7492C21.0694 90.0592 21.3494 90.8492 21.9394 90.5292L22.0794 90.4492L22.3194 90.2992C22.9094 89.9792 23.4894 89.6392 24.0694 89.2992C28.6694 86.6292 33.3394 84.0792 37.9994 81.4992C38.7824 81.2359 39.5897 81.0517 40.4094 80.9492C33.7994 86.0492 26.3494 89.9492 19.4094 94.5292C18.7994 94.9392 19.2894 95.5292 19.8994 95.2192C25.4194 92.0992 30.7094 88.4992 36.3694 85.6392C36.4293 85.6656 36.494 85.6793 36.5594 85.6793C36.6248 85.6793 36.6896 85.6656 36.7494 85.6392L37.8994 85.0792L36.9794 85.7292C36.8575 85.8193 36.7666 85.9451 36.7194 86.0892C30.6294 90.0892 23.7194 92.9392 17.4494 96.6392C15.6656 97.6778 13.9397 98.8128 12.2794 100.039C11.0463 100.486 9.79139 100.87 8.5194 101.189C7.0494 101.539 5.2094 101.989 3.7394 101.439C3.34645 101.293 3.0187 101.011 2.8152 100.644C2.6117 100.277 2.54581 99.8501 2.6294 99.4392C2.8794 99.5792 3.4394 99.2692 3.4294 98.9592C3.4294 97.8292 3.5594 96.2392 4.8394 95.8392C5.2766 95.7091 5.7422 95.7091 6.1794 95.8392C5.2394 97.1792 4.2594 98.4992 3.4294 99.8992C3.1094 100.439 3.8494 100.619 4.1594 100.249L4.2494 100.139C4.23135 100.196 4.22831 100.256 4.24059 100.313C4.25286 100.371 4.28003 100.425 4.3194 100.469C4.1994 100.679 4.0794 100.879 3.9794 101.099C3.7594 101.549 4.4194 101.609 4.6694 101.429C5.1894 101.059 5.6694 100.659 6.2094 100.259C8.27072 99.877 10.2831 99.2665 12.2094 98.4392C13.0894 98.0392 14.3194 97.4392 14.5894 96.4392C14.5943 96.3559 14.5943 96.2724 14.5894 96.1892C15.8168 95.3686 16.9041 94.3556 17.8094 93.1892C18.4794 93.0592 19.1494 92.9292 19.8094 92.8292C20.2494 92.7692 20.5994 92.0292 19.9894 91.9592C16.6794 91.5592 13.3794 91.1392 10.0694 90.7292C10.3623 89.951 10.4818 89.1183 10.4194 88.2892C10.4194 87.9592 9.8794 88.0492 9.7294 88.1792L9.3594 88.5092C10.8408 86.629 11.8675 84.4318 12.3594 82.0892C12.3736 82.0595 12.381 82.0271 12.381 81.9942C12.381 81.9613 12.3736 81.9288 12.3594 81.8992C13.7894 79.7892 15.2094 77.6792 16.5694 75.5392C16.7094 75.3192 16.6494 75.1792 16.5094 75.1092C18.5094 72.9492 20.5094 70.8392 22.5994 68.8092C24.6894 66.7792 26.8194 64.8092 28.9794 62.9092C29.1994 62.7192 28.8894 62.5592 28.7094 62.7192C24.7094 66.2392 20.8494 69.8592 17.1994 73.7192C16.1794 74.7992 15.1794 75.9059 14.1994 77.0392C9.13904 82.5426 4.77616 88.6486 1.2094 95.2192C0.979401 95.6592 1.4794 95.9392 1.8294 95.6492C2.72193 94.8686 3.54501 94.0121 4.2894 93.0892C4.4458 93.0547 4.58848 92.9747 4.6994 92.8592C6.8294 89.8592 8.9794 86.7992 11.0794 83.7492C10.2499 85.7813 9.12808 87.6813 7.7494 89.3892C5.99304 91.5613 4.39557 93.8573 2.9694 96.2592C2.9378 96.3139 2.92117 96.376 2.92117 96.4392C2.92117 96.5024 2.9378 96.5645 2.9694 96.6192C2.90244 96.7617 2.84563 96.9087 2.7994 97.0592C2.57497 97.1242 2.38037 97.2657 2.2494 97.4592C1.7194 98.7992 1.1694 100.769 2.5094 101.819C3.8494 102.869 5.6394 102.509 7.0294 102.279C8.2934 102.061 9.5425 101.764 10.7694 101.389C10.7194 101.679 10.9194 101.939 11.3294 101.739C12.7294 101.029 14.1294 100.329 15.5494 99.6492C16.9694 98.9692 18.4294 98.3992 19.8294 97.7592C21.0794 97.1892 22.3094 96.5092 23.5894 95.9992C24.1594 95.7692 24.0494 94.9292 23.3794 95.1992C20.7294 96.2792 18.1394 97.4792 15.5694 98.7292C22.0494 94.5492 29.3194 91.6592 35.8694 87.5892C36.4294 87.2425 36.9894 86.8825 37.5494 86.5092C38.6287 86.3816 39.672 86.0417 40.6194 85.5092C41.9649 84.8003 43.2672 84.0122 44.5194 83.1492C47.5794 81.1492 50.8094 79.3392 53.9794 77.4792L54.5994 77.1092C54.2794 77.4592 53.9494 77.8092 53.5994 78.1792C53.1594 78.7092 53.6994 79.0992 54.2294 78.7892C58.4806 76.2032 62.5199 73.284 66.3094 70.0592C69.6894 68.0592 73.0794 66.0592 76.4194 63.9392C80.4753 61.4879 84.3944 58.8173 88.1594 55.9392C88.5094 55.6692 88.5794 54.9392 87.9394 55.0992C86.1181 55.6425 84.3507 56.3522 82.6594 57.2192C85.5694 55.0992 88.5094 53.0192 91.4494 50.9392C94.3894 48.8592 97.9094 47.1692 100.139 44.1992C100.195 44.1337 100.228 44.0515 100.233 43.9654C100.237 43.8792 100.213 43.7941 100.164 43.7233C100.114 43.6524 100.043 43.5999 99.9611 43.5738C99.8789 43.5477 99.7904 43.5496 99.7094 43.5792L98.6194 43.9292C99.3294 43.3492 100.019 42.7492 100.709 42.1392L103.459 39.6292L103.809 39.3192L104.689 38.5992L107.609 36.2292C108.719 35.3492 109.839 34.4792 110.979 33.6492C109.457 35.0192 108.149 36.6103 107.099 38.3692C106.829 38.8692 107.399 39.1892 107.799 38.8592C113.959 33.6592 119.999 28.0992 124.799 21.5492C124.85 21.4969 124.882 21.4304 124.893 21.3587C124.904 21.2871 124.892 21.2139 124.859 21.1492C127.549 18.4292 130.109 15.5892 132.669 12.7392C134.169 11.0692 135.669 9.39918 137.209 7.73918C137.759 7.08918 136.939 6.68918 136.459 7.15918ZM98.8794 39.9292C99.7641 39.0849 100.692 38.2872 101.659 37.5392C100.339 38.7892 98.9894 39.9992 97.6594 41.1892C98.0461 40.7625 98.4527 40.3425 98.8794 39.9292ZM44.1094 78.0592L42.0394 79.7792L41.8894 79.9092C41.5065 79.8843 41.1223 79.8843 40.7394 79.9092L44.1094 78.0592ZM10.9594 82.6292C8.91715 85.137 7.03668 87.7723 5.3294 90.5192C5.9405 89.0378 6.72604 87.6346 7.6694 86.3392L8.2394 85.5292L8.6394 84.9692C10.1394 82.9692 11.7294 80.9692 13.3794 79.0392C12.5794 80.2192 11.7694 81.4392 10.9594 82.6292ZM4.5994 99.6292C5.5094 98.5192 6.3494 97.3492 7.2194 96.2092L7.3094 96.2692C6.4694 97.3492 5.5794 98.4092 4.8294 99.5392L4.5994 99.6292ZM11.5994 96.7992C10.5994 97.2692 9.6694 97.6792 8.6794 98.0692C9.95232 96.9571 11.2878 95.9187 12.6794 94.9592C12.9632 95.1957 13.2035 95.48 13.3894 95.7992C12.8694 96.2192 12.2594 96.5392 11.6394 96.8492L11.5994 96.7992ZM14.3694 95.2192C14.1866 94.9121 13.961 94.6326 13.6994 94.3892C14.0694 94.1692 14.4494 93.9592 14.8394 93.7692L16.5094 93.3792C15.8676 94.0712 15.1498 94.6884 14.3694 95.2192ZM16.1794 92.3292C15.7094 92.4992 15.2494 92.6992 14.7894 92.9192C14.3294 93.1392 13.5794 93.2392 12.9694 93.3992C13.1161 93.1967 13.2401 92.9787 13.3394 92.7492C13.3657 92.7017 13.3794 92.6484 13.3794 92.5942C13.3794 92.54 13.3657 92.4866 13.3394 92.4392C13.1477 92.2433 12.944 92.0596 12.7294 91.8892L16.1794 92.3292ZM12.3194 92.9192C12.2686 93.0095 12.2118 93.0964 12.1494 93.1792L10.4094 91.9892L9.9694 91.6892C10.8795 91.8176 11.7133 92.2683 12.3194 92.9592V92.9192ZM10.1794 93.0892C10.3894 93.2292 10.6094 93.3592 10.7994 93.4992L11.3194 93.8592H11.2394L10.1194 94.1792C9.6294 94.3292 9.3394 95.1792 10.0694 95.0492C10.4846 94.9784 10.8905 94.861 11.2794 94.6992L12.0794 94.4692C10.1394 95.7992 8.3294 97.3992 6.4994 98.8992L6.0794 99.0492C6.6494 98.2492 7.2794 97.4792 7.8894 96.6992L8.2094 96.9892C8.5494 97.2992 9.1594 96.7092 8.9694 96.3392C8.8694 96.1292 8.7794 95.8992 8.6894 95.6592C9.28579 94.8787 9.78605 94.0293 10.1794 93.1292V93.0892ZM9.4694 89.3692C9.40835 89.7649 9.30785 90.1535 9.1694 90.5292L8.4194 90.4392C8.75006 90.0767 9.1006 89.7328 9.4694 89.4092V89.3692ZM7.8194 91.2192C7.97949 91.4177 8.15325 91.6048 8.3394 91.7792C7.8343 92.3528 7.53208 93.0767 7.4794 93.8392C7.3494 94.0292 7.2294 94.2292 7.1094 94.4192L6.6994 95.0192C6.16335 94.8464 5.59232 94.812 5.0394 94.9192C5.9794 93.6892 6.8594 92.3992 7.8194 91.2192ZM56.5794 76.2192L57.7294 75.2192C58.5294 74.7392 59.3394 74.2692 60.1294 73.7792C58.9694 74.6258 57.7861 75.4392 56.5794 76.2192ZM60.0494 72.2192C59.0494 72.9592 58.1094 73.7292 57.1894 74.5392C56.6694 74.8492 56.1894 75.1692 55.6394 75.4692C53.7094 76.6092 51.7694 77.7492 49.8294 78.8692C48.3494 79.7292 46.8294 80.5492 45.3994 81.4892C43.9694 82.4292 42.7294 83.2192 41.3394 84.0692C40.8094 84.3792 40.2294 84.7192 39.6194 84.9992C40.1194 84.6292 40.6194 84.2392 41.0894 83.8492L44.6794 81.3692C47.9794 79.3692 51.1994 77.3692 54.3894 75.2092C56.8794 73.5492 59.3894 71.8692 61.8694 70.2092C61.844 70.254 61.8282 70.3036 61.8231 70.3548C61.8179 70.4061 61.8235 70.4578 61.8395 70.5067C61.8555 70.5557 61.8816 70.6007 61.916 70.6391C61.9504 70.6774 61.9924 70.7081 62.0394 70.7292C61.3694 71.2192 60.6994 71.6792 60.0494 72.2192ZM92.9894 46.1192C93.0888 46.1598 93.2001 46.1598 93.2994 46.1192H93.4794C92.9294 46.4192 92.3994 46.7192 91.8694 47.0292C92.2494 46.7292 92.5794 46.4192 92.9894 46.1192ZM65.1894 68.5592L67.6894 66.5592L71.8294 63.9892L74.0494 62.6192L73.7294 62.8692L73.3794 63.1192C70.6894 64.9492 67.9194 66.7292 65.1894 68.5592ZM85.2994 56.9192C80.6394 60.3392 75.7194 63.3592 70.7594 66.3292L72.0794 65.2192C72.8594 64.5892 73.6594 63.9792 74.4394 63.3592C76.1194 62.2192 77.8094 61.0492 79.5794 59.9692C81.4004 58.7994 83.3134 57.7794 85.2994 56.9192ZM91.5194 49.7792C88.3194 51.9992 85.1694 54.2992 82.0194 56.6092C80.1517 57.361 78.3346 58.2328 76.5794 59.2192L77.4594 58.5192C79.6894 56.7892 81.9594 55.0992 84.2094 53.3892C86.4594 51.6792 88.7894 49.9592 91.2094 48.4392C93.4365 46.9863 95.8219 45.7919 98.3194 44.8792C96.4094 46.8992 93.7694 48.2192 91.5194 49.7792ZM123.579 5.21918C124.919 4.66918 126.269 4.15918 127.629 3.66918L127.139 3.91918C126.759 4.11918 126.399 4.33918 126.019 4.54918C125.349 4.83918 124.669 5.10918 124.019 5.35918C123.019 5.72918 122.019 6.04918 120.939 6.35918C121.839 5.94918 122.729 5.56918 123.579 5.21918ZM127.999 2.72918C126.559 3.24918 125.129 3.80918 123.719 4.39918C125.086 3.66624 126.537 3.10211 128.039 2.71918L127.999 2.72918ZM110.379 32.5792C109.559 33.2538 108.694 33.8719 107.789 34.4292C110.153 31.6457 112.724 29.0449 115.479 26.6492C116.919 25.3392 118.309 23.9892 119.759 22.6492C121.209 21.3092 122.579 20.2192 123.899 18.8592C125.293 17.5363 126.363 15.9112 127.029 14.1092C128.575 13.0787 130.058 11.9567 131.469 10.7492C129.059 13.6392 126.469 16.3792 124.109 19.3292C124.056 19.3479 124.005 19.3749 123.959 19.4092C118.909 23.2192 115.279 28.5692 110.379 32.5792ZM110.229 35.5792C111.129 34.5792 112.099 33.6892 113.059 32.7692C113.149 32.772 113.237 32.7545 113.319 32.7181C113.4 32.6818 113.472 32.6274 113.529 32.5592L114.579 31.2192L114.729 31.0592C114.781 31.0015 114.824 30.9377 114.859 30.8692C115.739 29.7892 116.649 28.7092 117.599 27.6692C118.869 26.6692 120.089 25.5692 121.289 24.4692C117.9 28.4633 114.202 32.1848 110.229 35.5992V35.5792Z" fill="#FBC820"/>
<path id="Vector_7" d="M50.1395 18.2892C49.3677 17.9113 48.4967 17.7853 47.6495 17.9292C46.5218 18.0613 45.4118 18.3161 44.3395 18.6892C43.0817 19.0976 41.8524 19.5887 40.6595 20.1592C39.8332 20.5095 39.0512 20.9559 38.3295 21.4892C38.2695 21.4892 38.1795 21.6492 38.2495 21.7392C38.4746 21.9702 38.7579 22.136 39.0695 22.2192C39.1895 22.2792 39.4095 22.0692 39.2695 21.9992C39.0489 21.9301 38.8493 21.8063 38.6895 21.6392C40.1667 20.8289 41.7168 20.1593 43.3195 19.6392C44.3576 19.2663 45.4245 18.9787 46.5095 18.7792C47.3584 18.5845 48.2405 18.5845 49.0895 18.7792C49.3875 18.8453 49.6541 19.0112 49.8451 19.2494C50.036 19.4877 50.1399 19.7839 50.1395 20.0892C50.1395 20.9592 49.2095 21.7292 48.6195 22.2492C46.8697 23.6314 45.0288 24.8943 43.1095 26.0292C41.5695 27.0292 40.1695 28.3292 38.7295 29.4992C37.9395 30.1492 37.1495 30.7792 36.3195 31.3792C36.2095 31.4592 36.0895 31.5192 35.9695 31.5992C36.6895 30.5684 37.5708 29.6601 38.5795 28.9092C39.9795 27.7892 41.4395 26.7392 42.7395 25.4992C43.983 24.4709 44.86 23.0676 45.2395 21.4992C45.4095 20.3692 44.6295 19.8292 43.5795 19.9192C42.1045 20.1349 40.7191 20.7583 39.5795 21.7192C39.3495 21.8992 39.5795 22.1892 39.7795 22.0092C40.7452 21.2346 41.8904 20.7153 43.1095 20.4992C43.3187 20.4396 43.5387 20.4276 43.7532 20.4639C43.9678 20.5002 44.1715 20.5841 44.3495 20.7092C44.6995 21.0592 44.5295 21.7092 44.3495 22.0892C43.7555 23.5184 42.7927 24.7642 41.5595 25.6992C40.2895 26.7892 38.9195 27.7592 37.6295 28.8092C36.6295 29.6592 35.1195 30.8092 34.8095 32.1592V32.2192L33.6595 32.8992C33.2595 33.1292 33.4695 33.7292 33.9295 33.4892C35.657 32.6593 37.2539 31.5812 38.6695 30.2892C40.1895 29.0592 41.6695 27.7592 43.2395 26.6392C45.2372 25.4166 47.1637 24.0811 49.0095 22.6392C49.8671 22.0299 50.5054 21.1602 50.8295 20.1592C50.9101 19.8142 50.8877 19.4531 50.7651 19.1207C50.6424 18.7883 50.4249 18.4992 50.1395 18.2892Z" fill="#A7BFFF"/>
<path id="Vector_8" d="M51.2994 15.3393C48.8134 15.4755 46.3809 16.1151 44.1494 17.2193C43.9394 17.3193 43.9694 17.6393 44.2194 17.5193C46.1512 16.6253 48.2271 16.0835 50.3494 15.9193C51.6894 15.7993 54.4094 15.6993 54.6094 17.5793C54.7394 18.7893 53.9194 20.0393 53.2994 20.9993C52.1452 22.6857 50.8033 24.2356 49.2994 25.6193C47.8494 27.0193 46.2994 28.3293 44.7794 29.6193C43.4694 30.7493 42.2194 31.9493 40.9094 33.0793C39.5994 34.2093 38.0294 35.4793 36.6794 36.7793C36.0699 37.3373 35.5017 37.9389 34.9794 38.5793C34.5415 39.0322 34.252 39.6077 34.1494 40.2293C34.1494 40.5393 34.5694 40.3993 34.6594 40.2293C36.2194 37.4993 38.9494 35.5693 41.2894 33.5493C42.6494 32.3793 43.9494 31.1393 45.2894 29.9593C46.9194 28.6193 48.5794 27.2193 50.0694 25.7393C51.5584 24.3333 52.8835 22.7633 54.0194 21.0593C54.8007 20.0363 55.2602 18.8041 55.3394 17.5193C55.2394 15.4993 52.8694 15.2193 51.2994 15.3393Z" fill="#A7BFFF"/>
<path id="Vector_9" d="M60.0795 14.3893C58.9108 13.8654 57.6399 13.6092 56.3595 13.6393C54.6877 13.5982 53.0153 13.6952 51.3595 13.9293C48.3788 14.2854 45.4388 14.925 42.5795 15.8393L41.9495 16.0693C41.6695 16.1793 41.7195 16.5793 42.0395 16.4593C44.6532 15.5454 47.365 14.9412 50.1195 14.6593C51.7756 14.4185 53.446 14.2882 55.1195 14.2693C56.4518 14.209 57.7845 14.3781 59.0595 14.7693C59.8395 15.0493 60.6095 15.5793 60.6095 16.4793C60.6095 17.8393 59.4095 19.1493 58.6095 20.0793C53.9695 25.0193 48.3795 28.8693 43.5795 33.5693C41.5701 35.5315 39.7021 37.6334 37.9895 39.8593C36.4395 41.8593 34.8795 44.3793 34.8495 47.0193C34.8392 47.6023 34.9376 48.1822 35.1395 48.7293C35.2995 49.1393 35.9495 48.7793 35.8795 48.4093C35.2995 45.6393 36.5695 43.0993 38.1195 40.8793C39.799 38.5765 41.6653 36.4158 43.6995 34.4193C48.5795 29.5293 54.3095 25.5993 58.9895 20.5493C60.3595 19.0693 62.8595 15.8393 60.0795 14.3893Z" fill="#A7BFFF"/>
<path id="Vector_10" d="M77.9495 12.7493C76.8495 10.5693 74.0595 9.89925 71.8595 9.53925C68.9242 9.05976 65.9385 8.96897 62.9795 9.26925C60.0371 9.49753 57.1504 10.1964 54.4295 11.3393C53.8436 11.6005 53.2727 11.8943 52.7195 12.2193C52.4595 12.3693 52.6595 12.6593 52.9195 12.5093C55.5099 11.1142 58.3515 10.2474 61.2795 9.95925C64.2963 9.55927 67.3527 9.55927 70.3695 9.95925C72.6595 10.2793 75.7295 10.7693 77.0595 12.9593C78.1195 14.6793 77.3795 16.8593 76.5095 18.4893C75.2221 20.7354 73.6416 22.8001 71.8095 24.6293C69.3062 27.2981 66.6624 29.8317 63.8895 32.2193C58.3549 36.9134 52.5769 41.3129 46.5795 45.3993C45.0395 46.4793 43.4095 47.3993 41.8795 48.5393L42.3395 47.8793C45.9498 42.9385 50.208 38.5054 54.9995 34.6993C58.5595 31.7993 62.2795 29.1193 65.9995 26.4393C66.2595 26.2593 65.9995 25.9493 65.7895 26.1393C58.8695 31.0293 51.8795 35.8793 46.1195 42.1393C44.5941 43.8231 43.162 45.589 41.8295 47.4293C41.2395 48.2393 40.6695 49.0693 40.1095 49.9093C39.9095 50.0793 39.6995 50.2593 39.5095 50.4393C38.5783 51.2872 37.8179 52.3055 37.2695 53.4393C36.9495 54.0893 36.3895 55.3092 37.0795 55.9193C36.8395 56.9993 36.9295 58.0593 38.1295 58.3193C38.4595 58.3893 38.9495 57.8593 38.5195 57.6993C37.8795 57.4693 37.7495 56.8593 37.8495 56.1793C38.0952 56.1834 38.3405 56.1565 38.5795 56.0993C38.8795 56.0392 39.1795 55.4293 38.7095 55.4593C38.4842 55.494 38.2548 55.494 38.0295 55.4593C38.2028 54.9284 38.4133 54.4104 38.6595 53.9093C39.2238 52.7348 39.8652 51.599 40.5795 50.5093C42.7895 48.5893 45.3895 47.1993 47.7595 45.5093C53.8024 41.2945 59.6297 36.7788 65.2195 31.9793C67.9716 29.5755 70.5889 27.0216 73.0595 24.3293C74.8095 22.5147 76.2881 20.4567 77.4495 18.2193C78.2595 16.5793 78.8495 14.5193 77.9495 12.7493Z" fill="#A7BFFF"/>
<path id="Vector_11" d="M94.7694 40.9194C88.9594 43.4094 83.8494 47.1794 78.7694 50.8294C73.2594 54.8294 67.4994 58.3394 61.7694 62.0194C60.1594 63.0194 58.5394 64.0794 56.9894 65.1994C55.9379 66.0049 54.8319 66.7366 53.6794 67.3894C54.874 66.0456 56.2467 64.8714 57.7594 63.8994C59.6994 62.5694 61.7594 61.4094 63.7594 60.1794C65.7594 58.9494 67.7594 57.5494 69.7594 56.2794C71.9494 54.8994 74.1794 53.5594 76.3294 52.1194C78.8099 50.5257 81.1159 48.6755 83.2094 46.5994C83.5594 46.2294 83.2094 45.7694 82.7694 45.9794C72.2894 50.6394 63.2894 57.8394 53.5094 63.6994C51.0894 65.1394 48.6194 66.4994 46.0794 67.6994C47.4494 65.6994 49.6094 64.2894 51.5194 62.9194C54.2294 60.9794 56.8694 58.9194 59.5194 56.9194C61.1194 55.6594 62.6894 54.3594 64.2294 53.0194C64.2668 52.9925 64.2986 52.9584 64.3229 52.9192C64.3471 52.88 64.3634 52.8365 64.3709 52.791C64.3783 52.7455 64.3767 52.6989 64.3662 52.654C64.3556 52.6092 64.3363 52.5668 64.3094 52.5294C64.2825 52.492 64.2484 52.4602 64.2092 52.4359C64.1701 52.4116 64.1265 52.3953 64.081 52.3879C64.0355 52.3805 63.9889 52.3821 63.9441 52.3926C63.8992 52.4032 63.8568 52.4225 63.8194 52.4494C58.353 55.3604 53.2394 58.8902 48.5794 62.9694L48.0694 63.4394C48.1294 63.3194 48.1894 63.1994 48.2394 63.0694C48.4094 62.6094 47.8294 62.5894 47.5694 62.7494C46.5168 63.5749 45.515 64.4632 44.5694 65.4094C44.393 65.563 44.1982 65.694 43.9894 65.7994C43.9094 65.7994 43.9094 65.8594 43.8394 65.7294C43.7483 65.4697 43.7209 65.1919 43.7594 64.9194C43.7757 64.4349 43.853 63.9545 43.9894 63.4894C44.7246 61.6825 45.8637 60.068 47.3194 58.7694C48.5194 57.5294 49.7794 56.3494 51.0194 55.1394C53.4194 52.9394 55.8594 50.7794 58.4194 48.7594C58.8994 48.3894 58.5094 47.7594 58.0094 48.1694C55.6592 49.932 53.4153 51.8319 51.2894 53.8594L50.0794 55.0294C46.9794 57.8694 43.9294 60.7694 40.7694 63.5594C41.1115 62.826 41.527 62.1291 42.0094 61.4794C42.834 60.338 43.729 59.2492 44.6894 58.2194C46.6894 55.9794 48.6894 53.7094 50.7794 51.4594C52.1294 49.9594 53.4794 48.4594 54.7794 46.8694C55.0294 46.5594 54.8294 46.1494 54.4094 46.3494C49.1294 48.8594 46.4094 54.2494 42.0894 57.8994C46.4294 49.6994 54.7194 44.3694 62.5194 39.8094C64.7994 38.4894 67.0994 37.2094 69.3894 35.8994C69.6394 35.7494 69.3894 35.4794 69.1894 35.6194C60.7394 40.4294 51.6194 44.8194 45.1894 52.2994C43.3475 54.3581 41.7964 56.6595 40.5794 59.1394C40.3994 59.5394 40.9694 59.5794 41.1894 59.4294C45.7394 56.2694 48.3594 50.8894 52.9994 47.8894C50.9994 50.2494 48.8894 52.4994 46.8594 54.8194C45.0394 56.8794 43.0594 58.8194 41.4094 61.0294C40.5057 62.1212 39.8444 63.3926 39.4694 64.7594C39.3594 65.2794 39.9394 65.2094 40.2094 64.9694C41.4594 63.8994 42.6794 62.7894 43.8894 61.6794C43.4731 62.3368 43.1626 63.0556 42.9694 63.8094C42.7294 64.8094 42.4494 67.3194 44.2094 66.4994C44.8602 66.1783 45.4492 65.745 45.9494 65.2194C45.518 65.717 45.114 66.2377 44.7394 66.7794C44.4094 67.2894 45.1494 67.4294 45.4494 67.0994C49.8662 62.4541 54.9159 58.4547 60.4494 55.2194C58.6194 56.6994 56.7494 58.1294 54.8794 59.5594C52.4894 61.3694 49.9494 63.0194 47.6794 64.9794C46.4659 65.9565 45.448 67.1542 44.6794 68.5094C44.4994 68.8694 44.7994 69.1594 45.1694 68.9894C55.5794 64.2194 64.5794 57.0194 74.3694 51.2194C76.4694 49.9894 78.5994 48.8194 80.7894 47.7594C77.2859 50.6383 73.5535 53.2269 69.6294 55.4994C67.6294 56.7794 65.6294 58.1894 63.6294 59.4494C61.6294 60.7094 59.6294 61.8394 57.6294 63.1494C55.5132 64.4531 53.6666 66.1504 52.1894 68.1494C51.9594 68.4894 52.3394 68.7094 52.6494 68.5894C54.0507 68.0241 55.3719 67.2777 56.5794 66.3694C57.9127 65.4094 59.2927 64.476 60.7194 63.5694C63.6694 61.6694 66.5794 59.7994 69.5794 57.9194C72.5794 56.0394 75.1894 54.3094 77.9194 52.3894C80.4894 50.5694 83.0394 48.7094 85.6594 46.9594C88.601 44.9341 91.7244 43.1866 94.9894 41.7394C95.5794 41.4894 95.4494 40.6294 94.7694 40.9194Z" fill="#A7BFFF"/>
<path id="Vector_12" d="M96.9995 56.0293C96.6195 56.1493 96.2395 56.2893 95.8595 56.4293C95.9295 56.3193 95.8595 56.1993 95.7695 56.1893C96.3195 55.7193 96.8595 55.1893 97.3695 54.7093C97.8795 54.2293 97.2595 53.8393 96.7795 54.1393C92.5095 56.8093 88.2095 59.4293 84.0195 62.2293C82.1495 63.4793 80.3095 64.7793 78.4395 66.0193C77.4395 66.7193 76.3495 67.4093 75.3195 68.1193C74.4295 68.6793 73.5595 69.2493 72.7195 69.8693C71.8289 70.5059 70.9897 71.2114 70.2095 71.9793C69.2825 72.7899 68.4043 73.6548 67.5795 74.5693C67.2695 74.9193 67.5795 75.3293 67.9895 75.1493L68.4895 74.9293C68.5589 74.9761 68.6407 75.0012 68.7245 75.0012C68.8082 75.0012 68.8901 74.9761 68.9595 74.9293C69.7295 74.5393 70.4695 74.1093 71.1995 73.6593C77.9695 70.2493 83.9895 65.3793 89.9895 60.8193C91.0495 60.0093 92.1195 59.2093 93.1995 58.4093C94.1995 57.9693 95.1295 57.5793 96.1195 57.2293C95.4475 58.2505 94.6249 59.1642 93.6795 59.9393C92.4295 61.0293 91.0695 61.9393 89.6795 62.9393C88.2895 63.9393 87.3195 64.7193 86.1195 65.5793C84.6495 66.6293 83.1195 67.5793 81.7095 68.6993C80.1326 69.8195 78.7307 71.1675 77.5495 72.6993C77.1795 73.1993 77.8695 73.4193 78.2295 73.1793C80.6195 71.5693 82.7495 69.6093 85.0395 67.8793C86.9395 66.4493 89.1495 64.8793 91.5695 64.3693C90.4632 65.6493 89.1643 66.7491 87.7195 67.6293C86.0095 68.7393 84.2095 69.7093 82.4795 70.7793C81.9495 71.1093 82.2195 71.7793 82.8395 71.5693C84.1289 71.0329 85.3479 70.3412 86.4695 69.5093C86.5301 69.4638 86.584 69.4099 86.6295 69.3493C89.1603 68.0504 91.3547 66.1813 93.0395 63.8893C93.1895 63.6393 93.1095 63.2293 92.7395 63.2593C91.6775 63.3517 90.6375 63.6151 89.6595 64.0393L90.2795 63.5793C91.6495 62.5793 93.0095 61.5793 94.2795 60.5093C95.6312 59.4338 96.7218 58.0663 97.4695 56.5093C97.4997 56.4431 97.5091 56.3694 97.4966 56.2977C97.484 56.2261 97.4501 56.16 97.3992 56.108C97.3483 56.0561 97.2829 56.0207 97.2116 56.0067C97.1402 55.9926 97.0663 56.0005 96.9995 56.0293ZM70.1395 73.3293C70.6468 72.7001 71.2164 72.1239 71.8395 71.6093C72.5895 71.0093 73.3695 70.4293 74.1595 69.8693C75.3995 69.0293 76.6795 68.2593 77.9795 67.4993L78.2895 67.3193C77.2195 68.1793 76.1495 69.0393 75.0695 69.8893C73.5 71.1382 71.8534 72.2872 70.1395 73.3293ZM80.1395 66.8693C83.1395 64.5493 86.3695 62.6493 89.5495 60.6293C85.1195 63.9393 80.7095 67.2893 75.9895 70.1693C77.4295 69.0793 78.7995 67.9493 80.1895 66.8693H80.1395Z" fill="#A7BFFF"/>
<path id="Vector_13" d="M101.069 50.3692C100.899 49.9992 100.239 50.3692 100.369 50.6792C100.637 51.8433 100.432 53.066 99.7995 54.0792C99.2137 55.1613 98.802 56.3289 98.5795 57.5392C98.5795 57.8292 99.0395 57.6692 99.0595 57.4292C99.3682 56.1486 99.8815 54.9263 100.579 53.8092C101.039 52.7692 101.579 51.4992 101.069 50.3692Z" fill="#A7BFFF"/>
<path id="Vector_14" d="M102.419 31.9694C99.4936 32.8473 96.6707 34.0375 93.9995 35.5194C96.6495 33.5994 99.3095 31.6994 101.829 29.6094C102.259 29.2494 102.119 28.6094 101.479 28.8494C95.2995 31.3194 89.8495 35.2294 84.4795 39.0994L84.0495 39.4094C87.8795 35.9894 92.1495 33.0494 95.2795 28.9094C95.5895 28.4994 95.0895 28.2694 94.7395 28.3794C92.6327 29.1234 90.6604 30.2041 88.8995 31.5794C89.0295 31.3994 89.1795 31.2294 89.3095 31.0494C90.2007 29.8574 90.9617 28.5734 91.5795 27.2194C91.7595 26.8194 91.2695 26.7294 91.0095 26.8194C89.3017 27.4442 87.7372 28.4067 86.4095 29.6494C87.0895 28.8494 87.7895 28.0594 88.4995 27.2794C89.2095 26.4994 90.1395 25.5994 90.9395 24.7394C91.3695 24.2694 90.7195 23.9594 90.3495 24.3394C89.4395 25.2194 88.5695 26.1494 87.7195 27.0794C86.2843 28.5391 84.7722 29.9211 83.1895 31.2194C86.5218 27.5568 90.0965 24.1224 93.8895 20.9394C94.1695 20.6994 93.8895 20.3294 93.6295 20.5794C88.9965 24.4372 84.6516 28.6283 80.6295 33.1194C80.3195 33.4694 80.6995 33.7794 81.0595 33.5394C82.0595 32.8694 83.0595 32.1494 83.9795 31.3894C80.9795 34.9794 78.1895 38.6894 75.0995 42.1794C74.7295 42.5994 75.2095 43.0594 75.6395 42.7094L75.7495 42.6194C80.1595 38.9294 82.8795 33.6194 87.3095 29.8994C88.1889 29.1474 89.164 28.5152 90.2095 28.0194C88.6628 30.763 86.707 33.255 84.4095 35.4094C81.9895 37.8594 79.4095 40.1394 77.0995 42.7294C76.6195 43.2794 77.3495 43.6094 77.7895 43.1894C82.0095 39.1894 85.7895 34.5694 90.6695 31.3494C91.5917 30.7333 92.5653 30.198 93.5795 29.7494C89.5795 34.5194 83.9495 37.7494 79.8495 42.4494C79.4395 42.9294 79.9495 43.3694 80.4395 43.0294C85.8095 39.2794 90.9795 35.1594 96.7595 32.0294C97.3995 31.6794 98.0595 31.3494 98.7095 31.0294C95.8895 33.1894 92.9595 35.2094 90.1195 37.3494C89.6595 37.6994 89.8495 38.3494 90.4695 38.1194C94.4695 36.4694 98.1595 33.9494 102.389 32.8694C102.639 32.7994 102.929 32.5894 102.929 32.3094C102.932 32.248 102.918 32.187 102.89 32.1323C102.862 32.0777 102.821 32.0311 102.769 31.997C102.718 31.9629 102.659 31.9425 102.598 31.9376C102.537 31.9328 102.475 31.9437 102.419 31.9694Z" fill="#A7BFFF"/>
<path id="Vector_15" d="M74.4794 55.2794C70.5794 57.2194 66.7494 59.2194 62.8894 61.2194C60.6694 62.3494 58.4694 63.4994 56.2694 64.6594C56.2694 64.4494 56.1194 64.2794 55.7894 64.4094C57.3719 63.1264 58.658 61.5163 59.5594 59.6894C59.7694 59.2194 59.1194 59.1594 58.8494 59.3494C56.9594 60.6994 55.2094 62.2294 53.3694 63.6394C51.8885 64.8387 50.2624 65.8467 48.5294 66.6394C51.2794 62.9994 55.0394 60.2194 57.7294 56.5194C57.7743 56.4588 57.7991 56.3857 57.8002 56.3103C57.8013 56.2349 57.7787 56.1611 57.7356 56.0992C57.6926 56.0374 57.6311 55.9906 57.56 55.9655C57.489 55.9404 57.4118 55.9383 57.3394 55.9594C54.6004 56.7933 52.0754 58.2127 49.9394 60.1194C48.6294 61.1194 47.3594 62.2594 46.0294 63.2794C45.9782 63.2255 45.9345 63.1649 45.8994 63.0994C48.5094 60.4594 51.5294 58.1894 53.4094 54.9294C53.6294 54.5394 53.2794 54.2994 52.9194 54.4394C51.1205 55.1533 49.436 56.127 47.9194 57.3294C48.0894 57.0794 48.2694 56.8294 48.4494 56.5894C48.8293 56.1363 49.1642 55.6473 49.4494 55.1294C49.6294 54.856 49.7994 54.586 49.9594 54.3194C49.9848 54.2826 49.9984 54.239 49.9984 54.1944C49.9984 54.1497 49.9848 54.1061 49.9594 54.0694C50.0751 53.7734 50.1687 53.4692 50.2394 53.1594C50.3094 52.8694 50.1194 52.7194 49.8394 52.7594C48.0671 53.1719 46.429 54.0288 45.0794 55.2494L45.1794 54.8494C45.3294 54.2294 44.5094 54.3794 44.2894 54.7894V54.7094C44.9194 52.7094 45.5794 50.6094 45.2094 48.5494C45.1294 48.1094 44.4494 48.3794 44.3194 48.6394C44.1894 48.8994 44.0494 49.2094 43.9194 49.4894C44.2794 48.1594 44.5994 46.8194 44.8494 45.4894C44.9494 44.9394 44.1294 45.2294 43.9694 45.4894C42.0994 48.3994 41.1294 51.7294 39.8094 54.8994C41.0794 50.8494 43.1994 46.9794 42.9794 42.6694C42.9794 42.1794 42.3294 42.3594 42.1494 42.6694C40.3094 45.7794 39.7994 49.4994 38.1494 52.6694C38.3994 51.0594 38.7394 49.4694 39.1494 47.8894C39.2494 47.5094 39.3494 47.1194 39.4394 46.7494C40.0294 44.4194 40.6794 42.0994 41.1994 39.7494C41.3194 39.1994 40.5794 39.3694 40.4294 39.7494C39.7467 41.7369 39.2283 43.7771 38.8794 45.8494C38.5894 46.9294 38.3094 48.0194 38.0594 49.1094C37.8102 49.8979 37.4535 50.6483 36.9994 51.3394C37.073 49.1796 37.378 47.034 37.9094 44.9394C38.0894 44.7894 38.2094 44.5294 38.0294 44.4194C38.4994 42.3594 39.0294 40.2894 39.2994 38.1994C39.3116 38.1575 39.3105 38.1128 39.2961 38.0716C39.2818 38.0304 39.255 37.9946 39.2194 37.9694L39.8294 37.0794C41.5294 34.6694 43.4594 32.3994 44.7094 29.7094C44.7276 29.6578 44.7309 29.6021 44.7188 29.5487C44.7067 29.4953 44.6797 29.4465 44.641 29.4078C44.6023 29.3691 44.5535 29.3421 44.5001 29.33C44.4467 29.3179 44.391 29.3212 44.3394 29.3394C42.8708 29.8496 41.5301 30.6718 40.4094 31.7494C40.6594 31.4594 40.9094 31.1694 41.1494 30.8694C42.921 28.8757 44.2805 26.551 45.1494 24.0294C45.2194 23.7794 45.0394 23.6594 44.8094 23.6894C44.0829 23.8058 43.3782 24.0317 42.7194 24.3594L45.9594 21.1194C46.1394 20.9394 45.8694 20.7994 45.7094 20.9594L41.7094 24.8994C40.8374 25.4501 40.0054 26.0616 39.2194 26.7294L38.5794 27.2194C38.7494 26.7694 38.9194 26.3094 39.0794 25.8594C39.2394 25.4094 38.6894 25.5094 38.5094 25.6894C37.3994 26.9177 36.5097 28.3284 35.8794 29.8594L35.8194 29.9294C36.5394 26.2394 38.9694 22.9294 41.0094 19.9294C41.2994 19.4994 40.6394 19.4594 40.4194 19.7594C39.1594 21.4094 38.0294 23.1494 36.7294 24.7594C37.5798 23.1898 38.5848 21.7092 39.7294 20.3394C41.2479 18.5039 42.9501 16.8285 44.8094 15.3394C45.0594 15.1394 44.8094 14.8194 44.5894 15.0194C42.6626 16.5748 40.8941 18.3166 39.3094 20.2194C37.6752 22.0867 36.3272 24.1863 35.3094 26.4494C35.1594 26.8094 35.6894 26.7694 35.8494 26.6094C36.1594 26.2894 36.4394 25.9494 36.7194 25.6094C35.7867 27.3178 35.1861 29.1874 34.9494 31.1194L34.7594 31.4094C34.6294 31.6194 34.7594 31.7194 34.9094 31.7294C34.9051 31.7751 34.9166 31.821 34.9421 31.8592C34.9676 31.8975 35.0055 31.9258 35.0494 31.9394L34.8094 32.5894C34.7267 32.6092 34.6508 32.6506 34.5894 32.7094C33.1594 34.0894 32.5894 36.3094 32.2194 38.1794C31.7219 40.5593 31.6072 43.0033 31.8794 45.4194C31.9763 46.5134 32.2711 47.5807 32.7494 48.5694C32.8094 48.6994 33.0494 48.6894 33.1494 48.6294C33.3776 48.5095 33.5922 48.3653 33.7894 48.1994C33.7812 49.4416 33.9564 50.6783 34.3094 51.8694C34.4094 52.1994 34.8694 52.0194 34.9894 51.7994C35.5845 50.7884 36.0834 49.7237 36.4794 48.6194C36.299 49.8372 36.2288 51.0689 36.2694 52.2994C36.2694 52.6794 36.7294 52.5894 36.9194 52.3994C37.1561 52.1895 37.3767 51.9622 37.5794 51.7194C37.3994 52.6594 37.2494 53.5994 37.1494 54.5594C37.1494 55.0694 37.7894 54.7894 37.9494 54.5594C40.0894 51.5594 40.6394 47.8394 42.0994 44.5594C41.6894 49.3594 38.7994 53.7094 38.0994 58.4794C38.0294 58.9994 38.8094 58.7494 38.9594 58.4794C40.8394 55.3594 41.7894 51.7894 43.2994 48.4794C42.2994 52.4194 40.8494 56.2494 39.5994 60.1194C39.3894 60.7694 40.3294 60.5594 40.5094 60.1194C41.9094 56.9894 42.9794 53.7194 44.3594 50.5894C44.1879 52.1736 43.8149 53.7295 43.2494 55.2194C42.9294 56.2194 42.5894 57.0994 42.2494 58.0494C41.8699 58.5432 41.5697 59.0931 41.3594 59.6794C41.2794 59.9194 41.4494 60.0194 41.6394 60.0194C41.5094 60.5094 41.3794 61.0194 41.2894 61.4894C41.1994 61.9594 41.6394 61.8294 41.9094 61.7094C41.433 62.2179 41.0014 62.7666 40.6194 63.3494C40.3294 63.7894 40.8894 63.9994 41.2194 63.7594C42.0294 63.1994 42.8094 62.5794 43.5794 61.9394C43.617 62.0724 43.6638 62.2028 43.7194 62.3294C43.8894 62.7194 44.4094 62.5294 44.5894 62.2394C44.5781 62.5783 44.6254 62.9166 44.7294 63.2394C43.9769 63.9996 43.2785 64.8116 42.6394 65.6694C42.3894 66.0194 42.7994 66.3594 43.1394 66.1694C44.0443 65.6545 44.916 65.0833 45.7494 64.4594C45.8621 64.5239 45.979 64.5808 46.0994 64.6294C46.5494 64.7994 47.1694 64.0194 46.6194 63.8094C47.7494 62.9294 48.8494 61.9894 49.9694 61.0994C51.8005 59.468 53.893 58.1563 56.1594 57.2194C53.2894 60.7994 49.5094 63.5894 46.9294 67.4194C46.8781 67.4801 46.8483 67.5562 46.8447 67.6356C46.8411 67.7151 46.8639 67.7935 46.9096 67.8586C46.9553 67.9237 47.0213 67.9719 47.0972 67.9955C47.1732 68.0192 47.2548 68.017 47.3294 67.9894C51.3294 66.7794 54.3994 63.8394 57.6294 61.2894C56.66 62.522 55.5491 63.6363 54.3194 64.6094C53.2694 65.5094 52.1594 66.3394 51.0294 67.1394L48.9294 68.5894C48.3494 68.9794 48.8194 69.6494 49.3894 69.2594C50.1394 68.7594 50.8794 68.2594 51.6094 67.7194C55.3694 65.6494 59.1894 63.7194 63.0194 61.7194C66.8494 59.7194 70.7994 57.8694 74.5794 55.7894C74.9394 55.6094 74.8994 55.0694 74.4794 55.2794ZM37.0894 44.0294C37.0451 44.0016 37.0047 43.968 36.9694 43.9294C36.7794 43.6894 36.9694 43.2294 36.9694 42.9294C37.1152 42.2442 37.3262 41.5745 37.5994 40.9294C37.7394 40.5994 37.8894 40.2694 38.0594 39.9294C37.7194 41.2794 37.4194 42.6594 37.0894 44.0294ZM35.7394 41.2894C35.525 42.8188 35.1358 44.3186 34.5794 45.7594C34.5794 45.6394 34.5794 45.5094 34.5794 45.3894C35.0015 44.0798 35.3356 42.7435 35.5794 41.3894L35.7394 41.2894ZM44.2994 24.4094C43.4074 26.7338 42.1032 28.8782 40.4494 30.7394C39.4494 32.0094 38.3094 33.2094 37.1794 34.3894V34.2894C38.0069 32.8444 38.7482 31.3518 39.3994 29.8194C39.5894 29.3694 38.8994 29.4794 38.7294 29.7194C38.0353 30.7334 37.3976 31.785 36.8194 32.8694C36.7007 32.9203 36.6047 33.0127 36.5494 33.1294L36.3694 33.7594C36.2394 34.0294 36.0894 34.2994 35.9594 34.5794C35.8558 34.0147 35.638 33.477 35.3194 32.9994L35.6494 32.0594L35.7794 31.7194C36.5698 31.1313 37.1908 30.3447 37.5794 29.4394L37.6694 29.2694C38.7561 28.2227 39.8427 27.1627 40.9294 26.0894C41.931 25.3126 43.0763 24.7417 44.2994 24.4094ZM35.0394 33.8694C35.2759 34.4188 35.4211 35.0032 35.4694 35.5994C35.4738 35.6326 35.4738 35.6662 35.4694 35.6994C35.3794 35.9094 35.2794 36.1194 35.1994 36.3294C34.8794 36.7994 34.5394 37.2594 34.1994 37.7194C34.3396 36.4095 34.6212 35.1186 35.0394 33.8694ZM33.9494 45.0994L33.8294 45.9294C33.8118 45.9778 33.8118 46.0309 33.8294 46.0794C33.8294 46.4894 33.8294 46.8994 33.7794 47.3194C33.6324 47.523 33.4574 47.7048 33.2594 47.8594C32.5644 46.0788 32.274 44.166 32.4094 42.2594C32.4313 39.9674 32.8265 37.6943 33.5794 35.5294C33.7938 34.8988 34.086 34.2975 34.4494 33.7394C33.8711 35.382 33.5343 37.1 33.4494 38.8394C33.4494 39.1794 33.8894 39.1194 34.0494 38.9294C34.2094 38.7394 34.2994 38.5894 34.4294 38.4194C33.7955 40.158 33.4903 41.9992 33.5294 43.8494C33.5294 44.1794 33.8594 44.1394 34.0794 43.9994C34.0294 44.3694 33.9894 44.7394 33.9494 45.0994ZM34.2894 42.5794C34.3939 41.1654 34.6796 39.7706 35.1394 38.4294C34.9927 39.0627 34.8527 39.6927 34.7194 40.3194C34.5594 41.0794 34.4161 41.8327 34.2894 42.5794ZM34.8294 50.8194C34.5842 49.69 34.4834 48.5341 34.5294 47.3794C35.251 46.2366 35.7498 44.9676 35.9994 43.6394C36.3799 41.9925 36.6505 40.3221 36.8094 38.6394C36.9194 38.2594 37.0294 37.8694 37.1194 37.4794C37.1318 37.448 37.1371 37.4143 37.1349 37.3806C37.1328 37.3469 37.1233 37.3141 37.1071 37.2845C37.0908 37.255 37.0683 37.2293 37.0411 37.2094C37.0138 37.1895 36.9825 37.1758 36.9494 37.1694L37.0394 36.1694C37.0394 36.0694 37.0394 35.9694 37.0394 35.8594C38.0394 35.0294 38.9294 34.0994 39.8494 33.1994C40.9387 32.0231 42.2162 31.0363 43.6294 30.2794C42.2994 32.9694 40.2294 35.2294 38.6294 37.7194C37.7461 38.9929 37.0366 40.3784 36.5194 41.8394C36.3962 42.2171 36.2928 42.6009 36.2094 42.9894C36.0999 43.3528 36.0427 43.7299 36.0394 44.1094C36.1094 44.5094 36.4994 44.7194 36.9194 44.8394C36.4548 46.9064 35.7535 48.913 34.8294 50.8194ZM44.8294 56.3694L45.4494 55.8694C46.5592 54.8905 47.855 54.1457 49.2594 53.6794C49.1556 54.0238 49.0217 54.3584 48.8594 54.6794C47.452 55.8905 45.9834 57.0287 44.4594 58.0894C44.5794 57.4794 44.6594 56.9194 44.7994 56.3694H44.8294ZM44.2994 59.4994C44.2994 59.2394 44.3194 58.9794 44.3594 58.7194C45.6359 57.874 46.8552 56.9454 48.0094 55.9394C47.2461 56.8843 46.3884 57.7488 45.4494 58.5194L44.2994 59.4994ZM45.5794 62.3794C45.5482 61.5385 45.6667 60.6988 45.9294 59.8994C45.9641 59.9187 46.0024 59.9309 46.0419 59.9353C46.0814 59.9398 46.1214 59.9363 46.1595 59.9251C46.1977 59.914 46.2332 59.8953 46.2641 59.8703C46.295 59.8453 46.3206 59.8144 46.3394 59.7794L46.5794 59.3394C48.1995 57.9141 49.9898 56.6948 51.9094 55.7094C50.1894 58.2194 47.7994 60.2194 45.5794 62.3794Z" fill="#00C7FF"/>
<path id="Vector_16" d="M77.5795 64.7992C75.8467 65.6031 74.2042 66.5886 72.6795 67.7392C69.0162 69.7346 65.6641 72.2545 62.7295 75.2192C62.4095 75.5592 62.7295 75.8392 63.0895 75.6992C62.5895 76.1092 62.9895 76.6992 63.5295 76.3292C64.3895 75.6992 65.2295 75.0592 66.0795 74.4092C68.3571 72.8467 70.7662 71.4849 73.2795 70.3392C71.2795 73.2292 67.3395 74.3392 65.0295 77.0392C64.6995 77.4292 65.0295 77.8192 65.4695 77.6592C69.262 76.4335 73.1175 75.4121 77.0195 74.5992C77.5295 74.4792 77.7395 73.5992 77.0195 73.7592C73.5995 74.5192 70.1595 75.2592 66.8195 76.3292C69.4595 74.0692 73.0695 72.8692 74.6795 69.5592C74.8695 69.1692 74.5695 68.8692 74.1695 69.0492C73.1695 69.4892 72.1695 69.9592 71.1695 70.4692C73.2395 68.8792 75.3295 67.3192 77.4995 65.8692C77.5547 65.8373 77.6024 65.7937 77.6391 65.7415C77.6758 65.6893 77.7008 65.6298 77.7122 65.567C77.7236 65.5042 77.7212 65.4397 77.7052 65.3779C77.6892 65.3161 77.6599 65.2586 77.6195 65.2092C77.9495 65.0792 77.8895 64.6392 77.5795 64.7992Z" fill="#00C7FF"/>
<path id="Vector_17" d="M86.2695 46.4393C84.6205 47.0271 83.0646 47.8488 81.6495 48.8793C80.4733 49.7786 79.1037 50.3914 77.6495 50.6693C78.1595 49.7793 78.6495 48.8693 79.0695 47.9393C79.2895 47.4493 78.6095 47.4193 78.3395 47.5993C75.4754 49.6118 72.798 51.8776 70.3395 54.3693C71.6295 51.7993 73.4895 49.5393 74.7695 46.9693C75.0295 46.4693 74.4995 46.2193 74.0994 46.4993C72.0829 48.0224 70.1626 49.6689 68.3494 51.4293C68.7094 50.9693 69.0594 50.5093 69.3494 50.0393C70.4216 48.7218 71.1929 47.186 71.6095 45.5393C71.7094 45.0193 70.9395 45.2293 70.7395 45.4093C68.3495 47.7193 66.1895 50.2993 63.7395 52.5393C65.7395 49.4393 67.8194 46.3793 69.5994 43.1393C69.9295 42.5293 69.1795 42.4493 68.8195 42.7793C66.7551 44.8271 64.8276 47.0085 63.0495 49.3093C61.6463 51.1406 60.0205 52.79 58.2094 54.2193C61.0994 49.8693 64.7594 46.0293 67.4694 41.5793C69.2695 41.8393 70.4695 40.2093 71.4695 38.9193C72.0195 38.1693 72.4695 37.3793 73.1295 36.6793C73.4252 36.3429 73.761 36.044 74.1295 35.7893C73.4795 37.0693 72.7395 38.3093 72.1295 39.5993C71.2635 41.0926 70.709 42.7458 70.4995 44.4593C70.4995 44.9893 71.1595 44.8293 71.3995 44.5893C72.8256 43.0865 74.1613 41.5004 75.3995 39.8393C74.6895 41.2993 73.9195 42.7293 73.2295 44.1893C72.9995 44.6993 73.7095 44.7093 73.9795 44.5493C75.0806 43.7514 76.0637 42.802 76.8995 41.7293C76.2083 43.0769 75.8128 44.5565 75.7395 46.0693C75.7395 46.6093 76.3795 46.4493 76.6495 46.2093C77.6427 45.1956 78.782 44.3361 80.0294 43.6593C80.3001 43.5347 80.5771 43.4245 80.8595 43.3293L81.3995 43.1593C81.4795 43.1593 81.7295 43.1593 81.8795 43.0593C81.9265 43.1494 81.9666 43.243 81.9995 43.3393C82.1595 43.8193 82.2595 44.5993 82.8395 44.7493C83.8995 45.0193 84.6995 43.2893 85.0695 42.6093C85.4394 41.9293 84.4295 41.7993 84.1395 42.3393C84.0794 42.4493 83.6194 43.2693 83.3494 43.6393V43.5793C83.1494 43.0993 83.1194 42.3293 82.5994 42.0793C82.0794 41.8293 81.5095 42.1893 81.0795 42.3193C80.4848 42.5048 79.9089 42.7459 79.3595 43.0393C78.4877 43.5472 77.673 44.1473 76.9295 44.8293C77.1894 43.2293 78.0995 41.7493 78.4895 40.1793C78.6095 39.6993 78.0695 39.5693 77.7395 39.8193C76.7849 40.6505 75.9018 41.5603 75.0994 42.5393C76.0959 40.6983 76.9711 38.7943 77.7195 36.8393C77.9195 36.2793 77.1194 36.2593 76.8595 36.5893C75.1895 38.7093 73.5794 40.8893 71.7794 42.8893C72.1337 41.686 72.62 40.5256 73.2295 39.4293C74.0095 37.9393 74.8895 36.4993 75.5994 34.9793C75.7594 34.6293 75.3895 34.4693 75.1195 34.4993C73.3695 34.7093 72.2095 36.4093 71.2695 37.7193C70.7514 38.4356 70.1869 39.117 69.5795 39.7593C69.2819 40.132 68.8875 40.4157 68.4395 40.5793C69.3774 38.6047 70.5311 36.74 71.8795 35.0193C73.0595 33.2793 74.5195 31.2193 74.5795 29.0793C74.5795 28.6493 74.0494 28.6293 73.7895 28.8393C70.8495 31.2793 68.3294 34.1293 65.6495 36.8393C67.7495 34.0493 70.1895 31.5093 71.8295 28.3993C72.0495 27.9993 71.6994 27.6393 71.2794 27.8493C69.0197 29.1151 66.9909 30.7551 65.2794 32.6993L65.0994 32.7793C67.4394 30.1993 69.8195 27.6493 71.2195 24.4193C71.4295 23.9193 70.7595 23.8893 70.4795 24.0693C69.9261 24.4293 69.3761 24.7993 68.8295 25.1793C70.1079 24.135 71.1826 22.8637 71.9995 21.4293C72.2094 21.0393 71.8694 20.6793 71.4594 20.8893L69.8395 21.7693L70.0895 21.5093C71.3495 20.1759 72.5695 18.8426 73.7495 17.5093C74.0094 17.1993 73.8995 16.7793 73.4395 16.8493C72.9795 16.9193 72.7995 16.9793 72.4395 17.0593C73.4223 16.202 74.2568 15.1884 74.9095 14.0593C75.0695 13.7693 74.9095 13.3893 74.5294 13.5093C71.3538 14.6566 68.3801 16.3003 65.7194 18.3793C64.3195 19.3793 62.9494 20.3793 61.5394 21.3793C60.2994 22.2493 59.0395 23.0993 57.8095 23.9793C58.9361 22.9726 60.0795 21.9726 61.2395 20.9793C62.6195 19.7993 63.9694 18.5793 65.3995 17.4693C66.8295 16.3593 68.1495 15.4693 69.4995 14.4693C71.0243 13.3969 72.4173 12.1482 73.6495 10.7493C73.9595 10.3793 73.6495 9.91927 73.2195 10.1293C72.0595 10.6593 70.9095 11.2093 69.7595 11.7693L70.7595 11.0093C71.1795 10.6793 71.0095 10.0893 70.4395 10.3093C66.5448 11.8341 62.7961 13.7084 59.2395 15.9093C59.9795 15.4193 60.7294 14.9093 61.4994 14.4893C62.8406 13.74 64.1423 12.9223 65.3995 12.0393C66.711 11.1747 67.8004 10.0134 68.5795 8.64927C68.7095 8.39927 68.6595 8.12927 68.3295 8.10927C66.2756 8.04166 64.2255 8.32922 62.2695 8.95927C62.2695 8.77927 62.0795 8.64927 61.7695 8.74927C57.2095 10.2993 52.3395 11.5393 48.2395 14.1793C47.9895 14.3393 47.7495 14.5093 47.5095 14.6793L47.7595 14.1693C47.8795 13.8793 47.4795 13.8293 47.3095 13.9593C46.8676 14.304 46.4437 14.6711 46.0395 15.0593C45.9688 15.0486 45.8967 15.0528 45.8278 15.0718C45.7589 15.0907 45.6947 15.1239 45.6395 15.1693C42.6395 17.7593 40.3195 20.9193 37.6395 23.7893C37.3395 24.1093 37.7195 24.4093 38.0395 24.1793C40.8095 22.2693 42.6695 19.4393 44.8795 16.9593C43.9189 18.8817 42.7158 20.673 41.2995 22.2893C40.4295 23.3493 39.5195 24.3793 38.6095 25.4193C37.7197 26.3709 36.885 27.3725 36.1095 28.4193C35.8995 28.7393 36.3095 28.8693 36.5395 28.7193C37.0801 28.3576 37.6008 27.967 38.0995 27.5493C37.7595 28.4065 37.531 29.3039 37.4195 30.2193C37.4195 30.5293 37.7895 30.4693 37.9495 30.3793C41.7395 28.0393 43.8795 24.0493 46.8695 20.8793C43.7995 26.6893 39.3895 31.7593 36.9195 37.8793C36.8195 38.1493 37.1294 38.2693 37.3394 38.1693C38.6162 37.4265 39.7205 36.4209 40.5795 35.2193C41.5795 33.9993 42.4195 32.6993 43.3995 31.4893C45.0195 29.4893 46.6194 27.4893 48.1795 25.4893C45.5494 29.4893 42.4294 33.1893 39.9994 37.3193C39.099 38.8118 38.3326 40.3813 37.7095 42.0093C37.5495 42.4293 38.1395 42.3793 38.3295 42.1893C40.9642 39.2963 43.4475 36.2689 45.7695 33.1193C46.6694 31.9893 47.4795 30.8093 48.3295 29.6493C48.9933 28.5706 49.8839 27.6493 50.9395 26.9493C48.2995 33.7993 42.9395 39.2193 40.1695 46.0093C39.9795 46.4493 40.6195 46.3893 40.8195 46.1993C45.1495 41.8693 48.2695 36.5593 52.0695 31.7993C52.6995 31.0193 53.3595 30.2493 54.0695 29.4993C51.5795 34.3793 47.7995 38.4993 44.8095 43.0693C43.8738 44.4928 43.0385 45.9797 42.3095 47.5193C42.0795 47.9993 42.8094 47.9293 43.0194 47.7293C47.3794 43.4993 51.0194 38.6093 55.0894 34.1093L56.4395 33.2193C55.455 35.4066 54.1911 37.457 52.6794 39.3193C50.6794 41.9493 48.4594 44.4193 46.6795 47.2293C45.7274 48.696 44.9836 50.2879 44.4695 51.9593C44.3195 52.4793 44.9495 52.3893 45.1895 52.1793C49.9695 47.8893 52.8895 42.0393 57.1895 37.3193C58.1743 36.2283 59.2517 35.2246 60.4095 34.3193C60.1374 35.2077 59.74 36.0529 59.2295 36.8293C58.4525 38.069 57.5974 39.2581 56.6694 40.3893C55.8594 41.3893 55.0094 42.3893 54.1994 43.4593C53.3895 44.5293 52.4294 45.8593 51.5894 47.0893L51.1695 47.5793C49.682 49.4023 48.319 51.3233 47.0894 53.3293C47.0579 53.3698 47.0362 53.4171 47.0262 53.4675C47.0162 53.5178 47.018 53.5698 47.0316 53.6194C47.0452 53.6689 47.0702 53.7146 47.1045 53.7527C47.1389 53.7909 47.1816 53.8205 47.2295 53.8393C47.4695 53.9293 47.7194 53.7293 47.8595 53.5593C49.2695 51.7393 50.5595 49.8393 51.8595 47.9393C52.9895 46.5393 54.1594 45.1793 55.3394 43.8193C57.2494 41.6193 58.9995 39.2793 60.9795 37.1493C61.1554 37.1922 61.3411 37.1672 61.4994 37.0793C62.8149 36.2183 64.0292 35.212 65.1195 34.0793C62.6495 39.5493 58.6195 44.1993 54.9795 48.9093C53.8695 50.3393 52.7695 51.7893 51.7395 53.2793C51.3995 53.7793 52.1595 53.9793 52.4595 53.6193C56.6295 48.6193 60.4594 43.2993 65.1094 38.7493C62.0094 44.1393 57.8195 48.8393 54.1094 53.8193C53.7394 54.3093 54.5294 54.4993 54.8394 54.1493C59.1494 49.3593 62.9594 44.1493 67.6394 39.6493C64.6394 45.3593 59.7795 49.8993 56.4395 55.3893C56.2195 55.7593 56.5895 56.0993 56.9694 55.9093C59.5346 54.3984 61.78 52.401 63.5795 50.0293C64.7395 48.6693 65.8495 47.2593 67.0195 45.8993C65.2495 48.7893 63.3294 51.5893 61.5394 54.4593C61.2295 54.9393 61.8395 55.1893 62.1995 54.9193C65.1995 52.6993 67.5695 49.9193 70.1395 47.2593C69.6397 48.2458 69.0435 49.1804 68.3595 50.0493C67.3595 51.3693 66.3094 52.6093 65.4194 53.9793C65.0994 54.4593 65.7295 54.7193 66.0895 54.4393C68.4995 52.5893 70.5995 50.3693 72.9495 48.4393C71.4195 50.9493 69.5795 53.2893 68.5795 56.0693C68.3595 56.6693 69.1595 56.5493 69.4295 56.3193C72.0795 53.9593 74.5395 51.3193 77.4295 49.2193C77.1161 49.8259 76.7828 50.4259 76.4295 51.0193C76.3861 51.0714 76.3584 51.1347 76.3495 51.2019C76.3406 51.2691 76.3508 51.3375 76.379 51.3991C76.4072 51.4608 76.4522 51.5132 76.5089 51.5504C76.5656 51.5876 76.6317 51.608 76.6995 51.6093C78.4159 51.5676 80.0778 50.9985 81.4594 49.9793C82.9192 48.8985 84.5166 48.0174 86.2094 47.3593C86.4594 47.2893 86.7595 47.0793 86.7595 46.7893C86.7618 46.7296 86.7493 46.6702 86.7231 46.6166C86.6968 46.5629 86.6576 46.5166 86.609 46.4819C86.5604 46.4472 86.5039 46.4251 86.4446 46.4177C86.3853 46.4102 86.3251 46.4177 86.2695 46.4393ZM81.8895 42.9993H81.9594C81.9488 43.0054 81.9367 43.0087 81.9245 43.0087C81.9122 43.0087 81.9001 43.0054 81.8895 42.9993ZM70.1895 29.4593C68.4795 32.1893 66.2494 34.5493 64.3594 37.1393C65.2092 35.7202 65.9512 34.2394 66.5795 32.7093C66.5842 32.6728 66.5842 32.6358 66.5795 32.5993C67.6755 31.4353 68.8848 30.3834 70.1895 29.4593ZM47.3394 15.7093H47.2695L47.3495 15.6293C47.3541 15.6425 47.3556 15.6566 47.3539 15.6705C47.3522 15.6843 47.3472 15.6976 47.3394 15.7093ZM51.7395 13.1093C52.8395 12.6193 53.9695 12.1793 55.0995 11.7593C52.7295 12.8693 50.3795 14.0093 48.0095 15.1193C49.1811 14.324 50.4309 13.6505 51.7395 13.1093ZM46.7395 15.1793C46.6495 15.3493 46.5495 15.5093 46.4595 15.6693C46.2431 15.8916 46.0426 16.1289 45.8595 16.3793C45.953 16.1803 46.0365 15.9767 46.1095 15.7693L46.7395 15.1793ZM45.7395 16.5693C45.7289 16.5893 45.7234 16.6116 45.7234 16.6343C45.7234 16.6569 45.7289 16.6792 45.7395 16.6993L45.5195 17.0293C45.6395 16.8793 45.6895 16.7193 45.7595 16.5693H45.7395ZM43.1195 31.0593C42.1895 32.1893 41.3594 33.3993 40.4495 34.5593C39.7344 35.5597 38.8828 36.4551 37.9195 37.2193C40.6295 31.0193 45.0895 25.7993 48.0595 19.7293C48.2395 19.3693 47.8195 19.3193 47.5995 19.5193C44.1895 22.5193 42.0595 26.8893 38.2694 29.5193C38.5039 28.4742 38.8772 27.4653 39.3795 26.5193C42.5795 23.4393 45.0495 19.5193 48.7295 16.9893C48.9495 16.8393 48.7295 16.5793 48.5495 16.7293C45.2795 18.9793 42.9495 22.2793 40.2095 25.0893C40.9295 23.9593 41.7595 22.8793 42.5695 21.8493C43.8595 20.1993 45.2495 18.5693 46.3995 16.7993C51.7095 14.8493 56.8494 12.3593 62.2894 10.7993C57.6894 13.2093 52.8295 15.3393 49.2895 19.2593C49.0195 19.5593 49.4295 19.7693 49.6595 19.5193C53.7095 15.1093 59.4895 13.0693 64.5595 10.1593C64.8195 10.0093 64.7794 9.56927 64.4294 9.65927C60.8793 10.5781 57.3948 11.734 53.9994 13.1193C57.0982 11.5377 60.3566 10.2907 63.7194 9.39927C64.9831 9.09232 66.279 8.93789 67.5795 8.93927C66.9359 9.86612 66.1336 10.6719 65.2094 11.3193C63.9962 12.1886 62.7378 12.9931 61.4395 13.7293C58.4382 15.5546 55.5312 17.5304 52.7295 19.6493C50.8295 21.0493 48.9395 22.4693 47.0894 23.9193C46.5695 24.3293 46.9795 24.9193 47.5395 24.5593L49.1895 23.4493C47.1995 26.0293 45.1695 28.5493 43.1195 31.0593ZM43.7494 41.9393C43.1094 42.7393 42.4394 43.5193 41.7494 44.2793C44.7494 38.1493 49.4394 32.9593 51.7494 26.4793C51.7635 26.4416 51.7664 26.4007 51.7578 26.3614C51.7492 26.3221 51.7295 26.2861 51.7011 26.2576C51.6727 26.2292 51.6367 26.2095 51.5974 26.2009C51.5581 26.1924 51.5171 26.1953 51.4795 26.2093C50.5565 26.5573 49.747 27.1523 49.1395 27.9293C48.3558 28.8463 47.6215 29.8043 46.9395 30.7993C45.2295 33.1893 43.3295 35.4793 41.4795 37.7993C40.7295 38.7093 39.9495 39.5993 39.1595 40.4693C41.4995 35.3093 45.1595 30.9493 48.3495 26.2593C49.1695 25.0393 49.9195 23.7793 50.6195 22.4893C55.3501 19.1733 60.2904 16.167 65.4095 13.4893C66.3195 13.0293 67.2495 12.5993 68.1895 12.1893L66.4594 13.5693C61.8814 15.9138 57.5498 18.7111 53.5295 21.9193C51.9053 23.2272 50.3718 24.6438 48.9395 26.1593C48.4895 26.6393 49.0395 26.9793 49.5095 26.7193C55.5095 23.2893 60.9095 18.9593 66.2995 14.7193L66.7395 14.3693L67.9495 13.7293C69.1895 13.0993 70.4295 12.4893 71.6895 11.8993C69.7395 13.7193 67.4395 15.1593 65.3295 16.7693C63.9095 17.8693 62.5694 19.0693 61.2094 20.2393C59.8494 21.4093 58.2895 22.7193 56.8795 24.0093C55.2533 25.4637 53.7014 26.999 52.2295 28.6093C52.0795 28.7693 51.9795 29.0593 52.2295 29.2193C52.4795 29.3793 52.7594 29.2193 52.9294 29.0593C55.6921 26.6899 58.5795 24.47 61.5795 22.4093C64.2795 20.5593 66.8295 18.4893 69.5795 16.7493C70.8456 15.9394 72.1848 15.2497 73.5795 14.6893C72.8399 15.6604 71.9872 16.54 71.0395 17.3093C70.7094 17.5993 70.3595 17.8593 70.0395 18.1293C68.4903 19.1313 67.0011 20.2232 65.5795 21.3993C62.9295 23.3993 60.0795 25.1293 57.5795 27.2893C56.3779 28.2972 55.2701 29.4117 54.2694 30.6193C54.7999 29.6835 55.2773 28.7186 55.6994 27.7293C55.8794 27.2993 55.2495 27.3493 55.0495 27.5393C50.6895 31.8693 47.5794 37.2193 43.7494 41.9393ZM62.5795 16.5293C59.7495 18.7493 56.8895 20.9193 53.9095 22.9293C53.2895 23.3493 52.6695 23.7393 52.0495 24.1393C55.2864 21.2448 58.8154 18.6944 62.5795 16.5293ZM61.7395 25.0893C60.8695 25.8893 59.9895 26.6993 59.0895 27.4793C58.0711 28.3572 57.0027 29.1753 55.8895 29.9293C57.6434 28.1459 59.5733 26.5444 61.6495 25.1493L61.7395 25.0893ZM53.3394 32.0893L53.5795 31.7193C53.6393 31.8129 53.7324 31.8804 53.84 31.9082C53.9476 31.9361 54.0617 31.9221 54.1595 31.8693C57.5895 30.1193 60.3795 27.3993 63.1595 24.7893C64.4695 23.5693 65.7795 22.3493 67.1595 21.2593C68.0495 20.5793 68.9594 19.8993 69.8494 19.2093C70.5899 18.7067 71.3892 18.297 72.2295 17.9893C70.6695 19.7993 69.0094 21.5393 67.2894 23.2093C65.5894 24.2093 63.9294 25.3093 62.2894 26.4693C59.3443 28.5099 56.658 30.9007 54.2894 33.5893C54.2015 33.6848 54.1516 33.8094 54.1495 33.9393C50.6895 37.7493 47.5394 41.8293 43.9994 45.5593C46.7694 40.8093 50.4894 36.7393 53.3594 32.1293L53.3394 32.0893ZM63.7094 26.5093C62.1594 27.9093 60.5794 29.2193 58.8894 30.4693C58.5894 30.6993 58.2795 30.9093 57.9795 31.1293C59.524 29.6947 61.1572 28.3588 62.8695 27.1293C63.1495 26.9393 63.4395 26.7493 63.7295 26.5493L63.7094 26.5093ZM45.8295 50.5993C46.9263 48.0959 48.3705 45.7596 50.1195 43.6593C52.2316 41.1465 54.1854 38.5047 55.9694 35.7493C56.6147 34.7021 57.154 33.5933 57.5795 32.4393C61.1639 29.8892 64.5472 27.0676 67.6995 23.9993C68.5895 23.4593 69.4895 22.9493 70.4095 22.4493C68.7595 24.6293 66.2794 26.1793 64.2894 27.9893C62.8824 29.3382 61.5472 30.7602 60.2894 32.2493C58.9561 33.5159 57.6561 34.8259 56.3895 36.1793C56.0495 36.5393 56.3295 36.9293 56.6895 36.8793C53.5795 40.2193 51.1295 44.2193 48.2895 47.7893C47.5178 48.7672 46.6967 49.705 45.8295 50.5993ZM59.8494 37.2193C60.6582 36.0765 61.1921 34.7623 61.4095 33.3793C61.4095 33.0193 60.9795 33.0493 60.7894 33.1893C60.5994 33.3293 60.1695 33.6293 59.8795 33.8593L60.6195 33.0493C63.4191 30.3577 66.4286 27.8932 69.6195 25.6793C67.7295 29.1593 64.6895 31.8893 62.1295 34.9193C61.2476 35.7376 60.4097 36.6021 59.6195 37.5093C59.7195 37.3993 59.7894 37.3093 59.8494 37.2193ZM62.5795 39.9093C62.5704 39.9512 62.5711 39.9946 62.5815 40.0363C62.5919 40.0779 62.6117 40.1165 62.6394 40.1493C62.3894 40.4093 62.1195 40.6793 61.8695 40.9493C62.1495 40.6093 62.3794 40.2193 62.5795 39.9093ZM63.2894 42.9993C64.6695 41.0675 65.9029 39.0352 66.9795 36.9193C67.0289 36.8311 67.0498 36.7298 67.0394 36.6293C69.0395 34.5193 71.0395 32.3593 73.2895 30.4093C73.1122 30.9846 72.8777 31.5407 72.5895 32.0693C72.0108 33.1244 71.3731 34.146 70.6795 35.1293C70.1194 35.9393 69.5295 36.7593 68.9795 37.5993C68.825 37.6087 68.6762 37.6606 68.5495 37.7493C66.7017 39.3887 64.9583 41.1421 63.3295 42.9993H63.2894Z" fill="#48B6A0"/>
<path id="Vector_18" d="M95.2894 56.4493C94.7194 56.8093 94.1494 57.1993 93.5894 57.5793C93.5194 57.3893 93.2894 57.2793 92.9894 57.3893C92.4994 57.5793 91.9894 57.7893 91.5294 57.9893C92.7794 57.1693 94.0294 56.3593 95.3094 55.5993C95.7994 55.3193 95.5394 54.5993 94.9794 54.8693C87.9094 58.4593 81.5794 63.3193 75.5194 68.3793L75.4494 68.4493L72.7494 70.6193C72.3194 70.9693 72.4694 71.6193 73.0894 71.3693C74.8797 70.5749 76.5387 69.5128 78.0094 68.2193C79.0338 67.8031 80.0352 67.3324 81.0094 66.8093C79.9094 67.6993 78.8294 68.6193 77.7694 69.5493C76.7094 70.4793 75.7694 71.3393 74.7694 72.2593C74.2594 72.7193 74.8894 73.1493 75.3694 72.8493C80.2256 69.86 84.7832 66.4108 88.9794 62.5493L89.5094 62.3193C85.7294 66.6193 80.8994 69.8693 76.9394 73.9993C76.5794 74.3793 76.9394 74.9193 77.4094 74.6693C79.6394 73.5493 81.4094 71.7693 83.4094 70.3193C83.9194 69.9493 83.5094 69.3193 82.9794 69.7093C82.6094 69.9593 82.2494 70.2293 81.8894 70.4993C85.1394 67.6693 88.5394 64.9793 91.2594 61.6093C91.4894 61.3093 91.4394 60.7593 90.9294 60.9093L90.6194 61.0093C91.3694 60.2793 92.0994 59.5293 92.8194 58.7593C93.7294 58.0993 94.6494 57.4593 95.5894 56.8493C95.9194 56.6193 95.6394 56.2193 95.2894 56.4493ZM79.6694 66.8493L80.9694 65.7193C82.4394 64.4593 83.9694 63.2793 85.5594 62.1393C86.5594 61.5193 87.5594 60.9093 88.5594 60.3493C89.5594 59.7893 90.4494 59.3493 91.4194 58.9393L90.9994 59.3793C87.6185 62.0548 84.0268 64.4527 80.2594 66.5493L79.6694 66.8493ZM80.0194 68.7693C80.8994 68.0193 81.7894 67.2893 82.6994 66.5893C83.6094 65.8893 84.4494 65.2593 85.3694 64.5893C83.6394 66.0793 81.8394 67.4593 80.0194 68.7693Z" fill="#48B6A0"/>
<path id="Vector_19" d="M99.8494 30.2792C99.6994 29.9792 99.5794 29.6492 99.4394 29.3392C99.4146 29.3015 99.3843 29.2678 99.3494 29.2392C97.9294 26.2392 96.7094 23.1092 94.6994 20.4292C94.4394 20.0792 93.7894 20.5192 93.8794 20.8992C93.8794 21.1192 93.9794 21.3292 94.0394 21.5392C92.3359 19.6417 90.4465 17.9198 88.3994 16.3992L87.0394 15.3992C87.4787 15.4341 87.9201 15.4341 88.3594 15.3992C88.6094 15.3992 89.0194 15.0892 88.8294 14.8092C87.9474 13.6596 86.8419 12.7003 85.5794 11.9892C84.0142 11.0149 82.3601 10.1912 80.6394 9.52919C76.9861 8.04075 73.1359 7.09084 69.2094 6.70919C67.5404 6.50114 65.8478 6.58916 64.2094 6.96919C64.0294 7.01919 63.5994 7.50919 64.0094 7.56919C65.0094 7.70919 66.0094 7.90919 66.9394 8.07919L66.0994 8.23919C66.0994 8.09919 66.0994 7.96919 65.8794 7.94919C63.1147 7.86376 60.3598 8.31894 57.7694 9.28919C57.3694 9.37919 56.9594 9.44919 56.5594 9.54919L54.8094 9.99919C53.5662 10.2682 52.3378 10.6019 51.1294 10.9992C49.1597 11.6602 47.2918 12.5925 45.5794 13.7692C45.3294 13.9392 45.3294 14.3892 45.7194 14.2992C46.1094 14.2092 46.3494 14.1392 46.7194 14.0592C45.8113 14.8829 45.0711 15.8744 44.5394 16.9792C44.5284 17.008 44.5232 17.0388 44.5243 17.0697C44.5254 17.1006 44.5327 17.1309 44.5457 17.1589C44.5588 17.1869 44.5774 17.212 44.6003 17.2327C44.6233 17.2533 44.6502 17.2692 44.6794 17.2792L45.0594 17.3392C44.6094 17.7192 44.1594 18.0992 43.7294 18.4892C43.2994 18.8792 43.0094 19.0192 42.6594 19.2992C42.5976 19.334 42.5486 19.3878 42.5198 19.4527C42.491 19.5175 42.4839 19.59 42.4994 19.6592C40.28 21.8057 38.2955 24.1824 36.5794 26.7492C36.3594 27.0892 36.8494 27.1592 37.0494 26.9592C42.5494 21.6292 49.2394 16.8992 57.2294 17.0692C58.8721 17.1174 60.5048 17.3421 62.0994 17.7392C61.123 17.6691 60.1422 17.6891 59.1694 17.7992C58.9494 17.7992 58.5994 18.2192 58.8794 18.3992L59.5194 18.7792C56.7615 19.1204 54.0788 19.9144 51.5794 21.1292C51.3994 21.2292 51.1494 21.5792 51.4694 21.6792C53.0695 22.1216 54.7351 22.2773 56.3894 22.1392C58.1192 22.0462 59.8533 22.073 61.5794 22.2192C63.5132 22.4224 65.4309 22.7565 67.3194 23.2192L69.2394 24.2192C68.4494 26.3692 67.7194 28.5392 67.0894 30.7392C66.9594 31.1892 67.5094 31.1292 67.7294 30.9292C68.0792 30.6126 68.4129 30.2789 68.7294 29.9292C68.6495 30.6369 68.6495 31.3514 68.7294 32.0592C68.7894 32.4392 69.3294 32.2392 69.4794 32.0592C70.1647 31.3455 70.8059 30.5908 71.3994 29.7992C71.1694 30.7092 70.9494 31.6192 70.7494 32.5292C70.6594 32.9492 71.1194 33.0692 71.4094 32.8392C72.4084 32.058 73.2877 31.1349 74.0194 30.0992C73.4894 31.8292 73.0194 33.5692 72.5194 35.3192C72.3894 35.8092 73.0394 35.8492 73.2794 35.5392C74.6507 33.7684 75.8369 31.8618 76.8194 29.8492C76.3394 31.0592 75.8194 32.2892 75.4594 33.5292C74.873 35.2767 74.4151 37.0648 74.0894 38.8792C74.0094 39.3492 74.6894 39.1792 74.8694 38.9992C79.3294 34.3192 80.1394 27.5692 82.7294 21.8992C83.2488 20.776 83.868 19.7017 84.5794 18.6892C83.666 22.7719 82.4561 26.7825 80.9594 30.6892C80.8894 30.8692 80.8094 31.0492 80.7394 31.2192C79.8394 33.4492 79.0994 35.7392 78.3794 38.0292C78.1994 38.5792 78.0194 39.1292 77.8494 39.6792C77.6794 40.2292 78.5794 40.1392 78.7294 39.6792C79.2794 37.9792 79.8194 36.2692 80.3994 34.5792C80.5794 34.0792 80.7494 33.5792 80.9294 33.0692C81.1094 32.5592 81.3194 32.0692 81.5194 31.5092C82.2537 29.4152 83.2625 27.4279 84.5194 25.5992C82.6994 32.4392 79.4094 38.8192 78.1194 45.8092C78.0694 46.0792 78.2594 46.1392 78.4794 46.1092C77.9441 46.8747 77.463 47.6766 77.0394 48.5092C76.7694 49.0492 77.4394 49.1992 77.7694 48.8492C79.5274 46.9458 81.0825 44.8646 82.4094 42.6392C82.6894 42.3492 82.9794 42.0692 83.2694 41.7892C85.5833 39.5314 88.166 37.5666 90.9594 35.9392L91.1894 35.8192C91.2985 35.7922 91.3985 35.737 91.4794 35.6592C92.4145 35.1384 93.3833 34.6807 94.3794 34.2892C93.4453 36.3135 92.1586 38.1555 90.5794 39.7292C89.0543 40.7534 87.7037 42.0162 86.5794 43.4692C85.2694 44.5792 83.9394 45.6792 82.6394 46.7992C81.3729 47.8671 80.1708 49.0091 79.0394 50.2192C78.6294 50.6592 79.1394 51.0792 79.5894 50.7592C82.3288 48.743 84.9405 46.5588 87.4094 44.2192L87.8794 44.1292C87.9637 44.1143 88.0439 44.0819 88.1148 44.034C88.1857 43.9861 88.2458 43.9238 88.2911 43.8512C88.3363 43.7785 88.3658 43.6972 88.3776 43.6125C88.3894 43.5277 88.3832 43.4414 88.3594 43.3592C90.4821 41.3764 92.7193 39.5199 95.0594 37.7992C95.6294 37.3992 95.1694 36.7392 94.5894 37.1292C94.0094 37.5192 93.5894 37.8092 93.0594 38.1292C93.1314 38.0538 93.1983 37.9736 93.2594 37.8892C94.2812 36.6138 95.1039 35.191 95.6994 33.6692C95.7233 33.6077 95.7288 33.5406 95.7152 33.4761C95.7016 33.4115 95.6695 33.3524 95.6229 33.3057C95.5763 33.2591 95.5171 33.227 95.4525 33.2134C95.388 33.1999 95.3209 33.2053 95.2594 33.2292C93.989 33.6473 92.7576 34.176 91.5794 34.8092C90.5794 32.2992 89.0094 29.8092 88.9894 27.1292C89.9588 27.8114 90.7733 28.6905 91.3794 29.7092C92.1794 30.9192 92.8494 32.2192 93.6894 33.3992C93.9494 33.7592 94.6894 33.3092 94.5394 32.9192C93.7812 30.5278 92.7758 28.2221 91.5394 26.0392C91.8694 26.4392 92.1994 26.8392 92.5394 27.2292C93.4066 28.2818 94.4652 29.1606 95.6594 29.8192C96.4496 30.8714 97.3046 31.8734 98.2194 32.8192C98.2945 32.8741 98.3827 32.9084 98.4751 32.9185C98.5676 32.9285 98.6611 32.9141 98.7462 32.8766C98.8313 32.8391 98.9051 32.7799 98.9601 32.7049C99.0151 32.6298 99.0493 32.5417 99.0594 32.4492C99.077 32.0452 99.1305 31.6436 99.2194 31.2492C99.3141 31.1838 99.3845 31.0888 99.4194 30.9792C99.7094 30.8692 99.9794 30.5492 99.8494 30.2792ZM95.3194 24.4992C95.9694 25.6792 96.6994 26.8292 97.3194 28.0292C96.4394 26.8092 95.5894 25.5692 94.7394 24.3292L95.3194 24.4992ZM94.5094 23.4492L94.0094 23.2692C93.3994 22.3892 92.7694 21.5292 92.1094 20.6892C92.9703 21.5544 93.7721 22.4765 94.5094 23.4492ZM92.5094 22.6592C92.0694 22.4592 91.6294 22.2492 91.2094 22.0292C89.6982 20.4294 88.3576 18.6766 87.2094 16.7992C89.2473 18.492 91.035 20.4649 92.5194 22.6592H92.5094ZM66.1994 8.78919C67.6445 8.50118 69.1161 8.3671 70.5894 8.38919C70.9094 8.38919 71.2394 7.79919 70.7894 7.79919C69.2387 7.79927 67.6927 7.62824 66.1794 7.28919C66.9154 7.24412 67.6535 7.24412 68.3894 7.28919C70.2159 7.42748 72.0283 7.71172 73.8094 8.13919C77.549 8.95118 81.1434 10.3269 84.4694 12.2192C85.6603 12.8876 86.7343 13.7455 87.6494 14.7592C86.9745 14.7131 86.3051 14.606 85.6494 14.4392C83.4609 12.9969 81.1717 11.7136 78.7994 10.5992C77.0585 9.77617 75.2685 9.06148 73.4394 8.45919C73.1994 8.37919 72.7394 8.79919 73.0394 8.97919L74.6994 9.97919C71.7091 9.28528 68.6492 8.93633 65.5794 8.93919L66.1994 8.78919ZM82.4294 13.3392L81.5794 12.9492C81.5463 12.907 81.5037 12.8732 81.455 12.8506C81.4064 12.828 81.3531 12.8172 81.2994 12.8192L80.7294 12.5492C79.3694 11.8992 78.0494 11.1792 76.7294 10.4292C78.6868 11.2824 80.5903 12.2542 82.4294 13.3392ZM68.3494 9.58919C70.37 9.71906 72.3767 10.0134 74.3494 10.4692C74.5594 10.5192 74.8294 10.2292 74.7594 10.0792C76.6494 11.2192 78.5794 12.2892 80.4694 13.2192L80.6194 13.2892L80.3794 13.8192L79.9294 13.4292C79.7094 13.2392 79.1694 13.6592 79.3794 13.9092C79.5894 14.1592 79.8094 14.3692 80.0194 14.5992C78.2088 18.5325 76.5967 22.5542 75.1894 26.6492V26.7492L73.9294 25.9592C74.2694 25.3592 74.5894 24.7492 74.9294 24.1392C75.8105 22.3655 76.5885 20.5425 77.2594 18.6792H77.5194C77.7394 18.6792 78.1194 18.2192 77.8194 18.0592L77.5394 17.9192C77.8394 17.0292 78.1094 16.1392 78.3394 15.2392C78.4994 14.6492 77.7194 14.7792 77.5094 15.1192C77.0494 15.8092 76.6194 16.5392 76.2194 17.2692L75.2194 16.8292C75.5494 15.9492 75.8794 15.0692 76.2194 14.1992C76.4094 13.7092 75.6194 13.7492 75.4494 14.0892C75.0028 14.8425 74.5628 15.6225 74.1294 16.4292L72.9094 15.9992C73.4294 14.5792 73.9094 13.1492 74.4194 11.7192C74.5294 11.3892 74.0094 11.4592 73.9194 11.7192C73.4394 13.1092 72.9194 14.4792 72.4194 15.8592C67.7763 14.5272 62.979 13.8078 58.1494 13.7192C57.3394 13.7192 56.5394 13.6592 55.7394 13.6492H55.7894C60.0494 13.0992 64.4994 13.1892 68.2694 10.9992C69.2067 11.0362 70.1414 11.123 71.0694 11.2592C71.2894 11.2592 71.5494 10.8592 71.2794 10.8192C70.2854 10.6683 69.2839 10.5715 68.2794 10.5292C66.6233 10.2176 64.9203 10.255 63.2794 10.6392C63.2794 10.5392 63.2794 10.4392 63.1294 10.4492C62.9077 10.474 62.6834 10.4395 62.4794 10.3492C62.9335 10.0354 63.4196 9.77061 63.9294 9.55919C65.3794 9.45919 66.8694 9.48919 68.3494 9.58919ZM72.0994 24.4992L72.4994 24.6292C72.8194 24.7292 73.2594 24.1892 72.8594 24.0492L72.3794 23.8892C72.4994 23.6292 72.6294 23.3692 72.7394 23.1092C73.0594 22.3592 73.3594 21.6092 73.6494 20.8592L74.2794 21.0092C73.6794 22.4092 73.1694 23.8392 72.6994 25.2892L71.9094 24.8292L72.0994 24.4992ZM67.8494 22.5692C65.6694 21.4092 63.4894 20.2392 61.3594 18.9992C62.0594 18.8692 62.7594 18.7192 63.4494 18.5392C64.5694 18.6992 65.6794 18.9192 66.7594 19.1592C68.1094 19.4492 69.4394 19.7992 70.7594 20.1592C70.3894 21.1592 70.0194 22.0992 69.6594 23.0692C69.0728 22.8825 68.4694 22.7159 67.8494 22.5692ZM73.2794 17.9992C72.9294 17.9992 72.5694 17.9292 72.2194 17.8792C72.3594 17.4892 72.5094 17.1092 72.6494 16.7192C73.0194 16.8392 73.3994 16.9692 73.7694 17.1092C73.5794 17.3992 73.4394 17.6992 73.2794 17.9992ZM73.3994 19.3792L73.1794 19.9492H73.1094C73.2094 19.7492 73.2994 19.5592 73.3994 19.3792ZM72.9294 18.6492C72.7294 19.0092 72.5394 19.3692 72.3494 19.7292L71.6094 19.5292C71.7394 19.1992 71.8594 18.8692 71.9794 18.5292C72.2994 18.5692 72.5794 18.6192 72.9294 18.6492ZM71.6694 17.7992C70.1094 17.5692 68.5594 17.2292 67.0494 16.8692C64.1294 16.1592 61.2594 15.2692 58.3794 14.4192C63.018 14.5289 67.6228 15.2381 72.0794 16.5292H72.1494L71.6694 17.7992ZM71.4194 18.4592L71.0694 19.3892C67.5096 18.4937 64.0255 17.3201 60.6494 15.8792C64.1677 17.0152 67.7684 17.8778 71.4194 18.4592ZM70.2794 23.2192C70.6294 22.2192 70.9794 21.2192 71.3394 20.2792L71.9794 20.4492C71.4994 21.4492 71.0494 22.3592 70.6394 23.3292L70.2794 23.2192ZM72.7594 20.6392H72.9094C72.6394 21.3492 72.3694 22.0592 72.0694 22.7592C71.9494 23.0492 71.8194 23.3292 71.6894 23.6192L71.4194 23.5292C71.8294 22.5792 72.2794 21.5992 72.7594 20.6392ZM75.6794 18.1092H74.6794C74.7494 17.9192 74.8094 17.7392 74.8794 17.5592C75.1794 17.6792 75.4794 17.8092 75.7694 17.9492L75.6794 18.1092ZM76.2594 18.7692C75.6601 20.4763 74.9588 22.146 74.1594 23.7692C74.7545 22.0604 75.4558 20.3904 76.2594 18.7692ZM75.3494 18.7692C75.0894 19.2792 74.8494 19.7692 74.6094 20.3292L73.9194 20.1392C74.0894 19.6792 74.2594 19.2092 74.4394 18.7492L75.3494 18.7692ZM52.2894 14.2692H52.8394C51.7494 14.7892 50.6694 15.2692 49.5494 15.7692C49.0194 15.9892 48.4394 16.2192 47.8494 16.3992L48.3494 16.0392C49.56 15.3675 50.805 14.76 52.0794 14.2192C52.0994 14.2192 52.1694 14.2792 52.2894 14.2792V14.2692ZM67.1994 10.9192C65.0196 11.8255 62.7052 12.3661 60.3494 12.5192L58.0594 12.7492C59.2894 12.2992 60.5194 11.8592 61.7894 11.5092C62.4673 11.3161 63.1549 11.1592 63.8494 11.0392L64.6394 10.9692C65.3894 10.9192 66.1494 10.8992 66.9094 10.8992L67.1994 10.9192ZM57.9994 12.2192C57.2394 12.4992 56.4794 12.7692 55.7194 13.0592C55.2694 13.1192 54.8294 13.1992 54.3894 13.2692C55.8438 12.7288 57.3299 12.2779 58.8394 11.9192L57.9994 12.2192ZM64.2794 8.80919L63.8894 8.97919H63.2194H62.9694L64.2794 8.80919ZM51.8094 11.5992L52.7494 11.2492C52.0794 11.5192 51.4194 11.7992 50.7494 12.0592C51.0994 11.8992 51.4594 11.7392 51.8094 11.5992ZM48.3094 12.7792L47.8494 13.0992L47.5794 13.2192L48.3094 12.7792ZM45.3094 16.7792C45.9675 15.5631 46.8944 14.5131 48.0194 13.7092C51.0794 12.7092 54.0194 11.2892 57.0994 10.1892C58.9888 9.87127 60.8956 9.66757 62.8094 9.57919C62.4777 9.78303 62.1633 10.0138 61.8694 10.2692C61.7794 10.3492 61.7394 10.5192 61.8694 10.5892C62.0171 10.6869 62.179 10.7612 62.3494 10.8092C58.1769 11.4139 54.1267 12.6762 50.3494 14.5492C50.4194 14.4792 50.4994 14.4292 50.5694 14.3692C50.8094 14.1492 50.5694 13.8392 50.2894 13.9792C48.6914 14.7624 47.1798 15.7109 45.7794 16.8092C45.6077 16.7955 45.4372 16.7687 45.2694 16.7292L45.3094 16.7792ZM52.4094 17.0392C48.6313 17.9517 45.0899 19.656 42.0194 22.0392C40.7763 22.9782 39.5814 23.9795 38.4394 25.0392C39.8226 23.1815 41.3543 21.4391 43.0194 19.8292L43.3294 19.5392C44.4794 18.8292 45.6094 18.0992 46.7194 17.3192C47.2826 17.2126 47.8374 17.0655 48.3794 16.8792C49.8167 16.3394 51.2194 15.7115 52.5794 14.9992L54.1294 14.2992H56.4094C56.3838 14.3513 56.3788 14.4112 56.3955 14.4669C56.4122 14.5225 56.4493 14.5698 56.4994 14.5992C57.9527 15.4583 59.4667 16.2103 61.0294 16.8492C58.1622 16.3194 55.2181 16.367 52.3694 16.9892L52.4094 17.0392ZM60.2794 18.3992C60.7461 18.3992 61.2161 18.3992 61.6894 18.3992L60.6894 18.5892L60.2794 18.3992ZM62.2794 21.6192C60.5441 21.4576 58.7989 21.4308 57.0594 21.5392C55.5471 21.6846 54.0218 21.6139 52.5294 21.3292C54.98 20.2854 57.5598 19.5758 60.1994 19.2192C61.8294 20.2192 63.4894 21.0992 65.1994 21.9992C64.1894 21.8192 63.2094 21.6792 62.2194 21.5692L62.2794 21.6192ZM71.4694 24.3392L71.3894 24.5192L71.1494 24.3792L71.2094 24.2492L71.4694 24.3392ZM71.0494 25.1892C70.8294 25.6392 70.6094 26.0792 70.3694 26.5092C70.5294 26.0292 70.6994 25.5092 70.8694 25.0892L71.0494 25.1892ZM69.0494 28.2892C69.0494 28.3992 69.0494 28.5192 68.9794 28.6292C68.7594 28.9392 68.5194 29.2292 68.2694 29.5192C68.7594 27.8492 69.2694 26.1992 69.8694 24.5192L70.1294 24.6592C69.663 25.8145 69.2885 27.0049 69.0094 28.2192L69.0494 28.2892ZM69.6594 30.8892C69.618 30.1321 69.6717 29.3729 69.8194 28.6292C70.4802 27.6293 71.0684 26.5833 71.5794 25.4992L72.4694 26.0092C72.3094 26.5092 72.1594 27.0092 72.0194 27.5192C71.296 28.6892 70.4801 29.7994 69.5794 30.8392L69.6594 30.8892ZM73.9994 28.8892C73.43 29.7897 72.7589 30.6219 71.9994 31.3692C72.2894 30.1192 72.6094 28.8592 72.9994 27.6092C73.1994 27.2892 73.3794 26.9592 73.5694 26.6092C73.9994 26.8692 74.4394 27.1292 74.8594 27.3992C74.5794 27.8892 74.2594 28.3792 73.9594 28.8592L73.9994 28.8892ZM75.3794 31.0092C74.9794 31.7492 74.5594 32.4692 74.1094 33.1692C74.6028 31.4359 75.1294 29.7092 75.6894 27.9892L76.5894 28.5992C76.1594 29.3792 75.7694 30.2192 75.3394 30.9792L75.3794 31.0092ZM76.8894 27.9492C76.5694 27.7192 76.2494 27.4992 75.8894 27.2892L76.0294 26.8692L76.3594 26.1992C77.6794 23.4592 78.6594 20.5692 79.7194 17.7292C80.0194 16.9192 80.3394 16.1192 80.6594 15.3292C80.9594 15.6292 81.2794 15.9192 81.5894 16.2092C79.9394 20.0692 78.5794 24.0792 76.8494 27.9192L76.8894 27.9492ZM77.2894 34.1892C76.7424 35.2574 76.0962 36.2719 75.3594 37.2192C76.6794 31.2192 79.7094 25.7092 81.6894 19.8892C82.0161 18.9425 82.3061 17.9825 82.5594 17.0092C83.0294 17.4192 83.5594 17.8092 83.9894 18.1992C80.5794 22.9592 79.7694 28.9792 77.2494 34.1592L77.2894 34.1892ZM84.5794 17.5292L84.2194 17.2192L82.8294 15.9492C82.9194 15.5392 83.0094 15.1192 83.0894 14.7092C83.0894 14.7092 83.0894 14.6392 83.0894 14.6092C83.0894 14.3792 82.8894 14.2892 82.7094 14.2992C82.594 14.3106 82.4841 14.3541 82.3922 14.4248C82.3003 14.4955 82.23 14.5906 82.1894 14.6992C82.1094 14.8692 82.0394 15.0392 81.9694 15.2092L80.9694 14.3792C81.0594 14.1892 81.1294 13.9992 81.2194 13.8092C81.242 13.7507 81.2687 13.6939 81.2994 13.6392C82.5617 14.259 83.8813 14.7547 85.2394 15.1192L85.6894 15.4392C85.6702 15.4745 85.6601 15.514 85.6601 15.5542C85.6601 15.5944 85.6702 15.6339 85.6894 15.6692C86.3932 17.1557 87.2729 18.5523 88.3094 19.8292L87.8394 19.4792C87.7337 19.4254 87.6123 19.4109 87.4969 19.4384C87.3815 19.4659 87.2796 19.5335 87.2094 19.6292C86.6194 19.2392 86.0394 18.8292 85.4594 18.4092C85.5494 17.9392 85.6494 17.4692 85.7294 16.9992C85.8094 16.5292 85.1594 16.6992 84.9894 16.8892C84.8194 17.0792 84.6894 17.3192 84.5794 17.5292ZM81.8494 42.2192C81.1894 42.8992 80.5494 43.5992 79.9494 44.3292C81.5994 41.1392 82.8194 37.4892 85.3694 34.9692C84.3892 37.4749 83.2122 39.8992 81.8494 42.2192ZM91.7294 28.5192C91.0327 27.3938 90.0061 26.5103 88.7894 25.9892C88.7092 25.9734 88.6266 25.9738 88.5466 25.9906C88.4665 26.0073 88.3907 26.04 88.3235 26.0866C88.2563 26.1333 88.1992 26.1929 88.1556 26.2621C88.1119 26.3313 88.0826 26.4085 88.0694 26.4892C87.6894 29.6992 89.5294 32.4392 90.6294 35.3192C89.4368 36.0126 88.2849 36.7739 87.1794 37.5992C86.0294 38.4392 84.9194 39.3592 83.8394 40.3192C84.9843 38.1604 85.9864 35.929 86.8394 33.6392C87.0094 33.1892 86.4294 33.1192 86.1594 33.3092C82.9494 35.6292 81.5094 39.3092 79.8194 42.8292C81.4694 36.4892 84.4494 30.5492 85.9194 24.1392C86.0394 23.6192 85.4194 23.6592 85.1494 23.9192C84.5551 24.5021 84.0192 25.1419 83.5494 25.8292C84.2602 23.7015 84.861 21.5386 85.3494 19.3492L86.9194 20.9092L88.5094 22.4992C89.5794 24.4892 90.7394 26.4692 91.7294 28.5192ZM90.7894 23.8192C90.3694 23.3092 89.9194 22.8192 89.4694 22.3392L89.1494 21.7792L89.2694 21.8492C90.9896 23.5714 92.5462 25.4494 93.9194 27.4592C92.7694 26.3392 91.7894 24.9992 90.7894 23.8192ZM98.3194 31.5092C97.6494 30.7792 97.0194 30.0092 96.4094 29.2192C95.4318 27.1345 94.1401 25.2121 92.5794 23.5192L93.3894 23.8592C95.0494 26.2692 96.6094 28.7692 98.4594 30.9892C98.3894 31.1592 98.3594 31.3392 98.3194 31.5092Z" fill="#FF6845"/>
<path id="Vector_20" d="M99.0194 48.7294C97.2194 50.4794 95.2294 52.0294 93.4294 53.7294C91.8094 55.3094 89.9594 57.2194 89.4294 59.5094C89.4148 59.5683 89.4185 59.6303 89.4399 59.6871C89.4613 59.7439 89.4995 59.7929 89.5493 59.8276C89.5992 59.8623 89.6584 59.881 89.7191 59.8813C89.7798 59.8816 89.8392 59.8635 89.8894 59.8294C90.2894 59.6194 90.6694 59.3994 91.0394 59.1594L90.4994 60.0894C90.1794 60.6494 90.9294 60.8094 91.2594 60.4394C93.1194 58.4394 95.1294 56.5394 97.0894 54.6094C96.4494 56.4294 94.5094 57.7894 93.1594 58.9994C92.7494 59.3694 93.2694 59.8194 93.6594 59.4994C95.5994 57.8994 98.2694 55.9894 98.3294 53.1994C98.3294 52.8694 98.0594 52.8194 97.8094 52.8894C97.8694 52.6794 97.5494 52.5594 97.3594 52.7694C96.1394 54.0394 94.9194 55.3694 93.5894 56.5494C95.269 53.8302 97.2849 51.3339 99.5894 49.1194C100.109 48.6794 99.4194 48.3394 99.0194 48.7294ZM91.7294 58.0794C91.3194 58.3594 90.8994 58.6094 90.4694 58.8494C91.3929 56.9798 92.6976 55.3243 94.2994 53.9894L94.8194 53.5094C93.712 54.9789 92.6806 56.5042 91.7294 58.0794Z" fill="#FF6845"/>
<path id="Vector_21" d="M32.5794 39.4792C33.2562 31.0341 36.9596 23.1173 43.0083 17.1851C49.0571 11.253 57.0444 7.70438 65.5011 7.19211C73.9578 6.67984 82.3151 9.23834 89.0357 14.397C95.7563 19.5556 100.388 26.9675 102.079 35.2692L103.359 33.9492C101.976 28.0508 99.1526 22.5868 95.1425 18.0453C91.1325 13.5037 86.0602 10.0259 80.3785 7.92225C74.6969 5.81865 68.5827 5.15477 62.582 5.98988C56.5812 6.825 50.8807 9.13313 45.9893 12.7082C41.098 16.2832 37.168 21.0139 34.5504 26.4778C31.9328 31.9418 30.7091 37.9689 30.9884 44.021C31.2676 50.0731 33.0413 55.9619 36.151 61.1615C39.2607 66.3612 43.6096 70.7098 48.8094 73.8192C49.2594 73.4692 49.7194 73.1492 50.1894 72.8192C44.3921 69.5067 39.6575 64.6124 36.5391 58.7085C33.4206 52.8045 32.0472 46.1349 32.5794 39.4792Z" fill="white"/>
<path id="Vector_22" d="M102.579 45.1293C101.825 54.4164 97.4146 63.0241 90.3176 69.0616C83.2207 75.0992 74.0174 78.0728 64.7295 77.3293C62.5998 77.1539 60.4909 76.7824 58.4295 76.2193C58.1695 76.4193 57.9195 76.6293 57.6595 76.8193L56.8495 77.3693C62.1903 79.0057 67.8344 79.4003 73.351 78.523C78.8676 77.6457 84.1108 75.5197 88.6806 72.3073C93.2503 69.0949 97.0258 64.8809 99.7188 59.9871C102.412 55.0932 103.951 49.6488 104.219 44.0693C103.711 44.4784 103.161 44.8336 102.579 45.1293Z" fill="white"/>
<path id="Vector_23" d="M129.65 0.709265C127.38 1.45272 125.162 2.34464 123.009 3.37926C120.63 4.44927 118.18 5.37926 115.79 6.37926C110.58 8.63927 105.58 11.2193 100.58 13.9093C98.2024 15.1633 95.9107 16.573 93.7195 18.1293C93.2895 18.4493 93.7195 19.1793 94.1495 18.8593L94.3995 18.6793C94.3777 18.8375 94.3993 18.9987 94.4621 19.1456C94.5249 19.2924 94.6265 19.4194 94.756 19.5129C94.8855 19.6065 95.038 19.663 95.1972 19.6764C95.3563 19.6899 95.5162 19.6597 95.6595 19.5893C102.591 15.7905 109.79 12.5018 117.2 9.74927C118.2 9.38927 121.98 7.89926 121.66 10.1093C121.288 11.6308 120.641 13.0713 119.75 14.3593C118.863 15.8618 117.885 17.3079 116.82 18.6893C112.54 24.2693 107.23 29.0993 102.07 33.8493C96.5795 38.8893 90.8895 43.6593 84.9695 48.2193C73.2097 57.0084 60.9527 65.1119 48.2595 72.4893C41.6695 76.3993 35.0395 80.2393 28.2595 83.8393C24.9295 85.6093 21.5795 87.3193 18.2595 89.0593C17.3295 89.5393 12.6295 92.0593 12.2595 89.7893C11.9995 88.1093 13.3195 86.0093 14.0895 84.6193C15.0295 82.9193 16.0895 81.2593 17.0895 79.6193C21.0591 73.3352 25.6996 67.5009 30.9295 62.2193C32.1795 60.9293 33.4595 59.6793 34.7695 58.4493C35.5195 57.7493 34.4895 56.6593 33.7095 57.1893C33.6523 57.1172 33.5696 57.0697 33.4784 57.0567C33.3873 57.0437 33.2946 57.0661 33.2195 57.1193C31.0395 58.4993 29.2195 60.5593 27.3695 62.3093C25.2362 64.3093 23.1395 66.3459 21.0795 68.4193C17.4895 72.0393 13.9495 75.7193 10.6795 79.6393C7.38651 83.432 4.59063 87.6292 2.3595 92.1293C1.36163 94.1613 0.625745 96.3119 0.169503 98.5293C-0.109288 99.6292 -0.0429547 100.788 0.359503 101.849C1.2295 103.699 3.4995 103.739 5.2495 103.479C7.92863 102.968 10.5235 102.086 12.9595 100.859C15.2895 99.7993 17.5595 98.5993 19.8095 97.3893C23.3295 95.4893 26.9695 93.7993 30.5295 91.9793C40.8995 86.6993 51.1295 81.1293 61.0195 74.9793C70.3195 69.2193 79.4795 63.2193 88.3595 56.7693C97.1849 50.4499 105.608 43.5866 113.58 36.2193C117.652 32.5331 121.492 28.5989 125.08 24.4393C128.575 20.2575 131.751 15.8182 134.579 11.1593C135.331 9.96326 135.999 8.71699 136.579 7.42926C137.259 6.06774 137.648 4.57937 137.719 3.05927C137.579 -1.09073 132.25 -0.0707352 129.65 0.709265ZM135.089 8.47927C133.04 12.2881 130.679 15.9205 128.029 19.3393C124.786 23.6569 121.215 27.7188 117.35 31.4893C109.819 38.8852 101.801 45.7673 93.3495 52.0893C84.9395 58.4293 76.2195 64.3293 67.3495 70.0193C58.0162 76.0193 48.4362 81.6326 38.6095 86.8593C31.4995 90.6293 24.2595 94.1393 17.1395 97.8593C14.7476 99.1468 12.2836 100.295 9.7595 101.299C7.7095 102.079 5.2095 103.049 2.9695 102.679C0.729503 102.309 0.659503 100.219 1.0595 98.3593C2.0595 93.6993 4.4995 89.4293 7.1995 85.5493C10.0455 81.5802 13.1807 77.8267 16.5795 74.3193C20.2495 70.4093 24.0495 66.5993 27.9695 62.9293C24.4076 66.7196 21.1257 70.7636 18.1495 75.0293C16.5495 77.3293 15.0995 79.7193 13.6595 82.1093C12.4732 83.8963 11.5378 85.8378 10.8795 87.8793C10.4495 89.4593 10.4695 91.4693 12.3095 92.0993C15.2295 93.0993 18.6495 90.7493 21.0995 89.4493C24.7795 87.4493 28.5195 85.6593 32.1795 83.6593C35.8395 81.6593 39.4995 79.5693 43.1195 77.4693C56.8716 69.6486 70.1757 61.0652 82.9695 51.7593C89.3095 47.0493 95.4595 42.0893 101.33 36.8093C106.94 31.8093 112.67 26.5793 117.4 20.6893C118.92 18.7993 127.56 7.62926 120.86 7.28926C119.643 7.29237 118.437 7.51599 117.3 7.94926C115.46 8.54926 113.67 9.29926 111.88 10.0293C108.03 11.6193 104.25 13.3793 100.51 15.2293C99.1495 15.9093 97.8095 16.6093 96.4595 17.3093C100.18 14.9193 104.19 12.9793 108.11 10.9493C110.57 9.67926 113.11 8.48926 115.62 7.37926C117.99 6.37926 120.42 5.44927 122.78 4.37926C124.923 3.35737 127.12 2.44944 129.359 1.65926C130.48 1.28081 131.636 1.01614 132.809 0.869265C133.731 0.720163 134.674 0.778237 135.57 1.03926C136.87 1.52926 136.919 2.96927 136.699 4.14927C136.372 5.66194 135.83 7.12003 135.089 8.47927Z" fill="white"/>
<path id="Vector_24" d="M91.0695 47.5293C88.4057 50.1178 85.4569 52.3957 82.2795 54.3193C78.9795 56.4693 75.7095 58.6593 72.5495 61.0193C70.6495 62.4393 68.7761 63.886 66.9295 65.3593C66.5095 65.6893 67.0995 66.2793 67.5195 65.9493C70.8595 63.3093 74.2395 60.7293 77.7495 58.3193C80.8095 56.2093 84.0095 54.3193 87.0095 52.0993C88.6704 50.9007 90.2261 49.5625 91.6595 48.0993C92.0395 47.7393 91.4395 47.1393 91.0695 47.5293Z" fill="white"/>
<path id="Vector_25" d="M82.6295 57.8294C82.6016 57.7811 82.5643 57.7388 82.52 57.7051C82.4756 57.6713 82.4249 57.6467 82.3709 57.6328C82.3169 57.6188 82.2607 57.6157 82.2055 57.6237C82.1503 57.6317 82.0973 57.6506 82.0495 57.6794C80.9395 58.5194 79.6395 59.0594 78.5295 59.9094C78.4346 59.9657 78.3657 60.057 78.3377 60.1636C78.3096 60.2703 78.3246 60.3837 78.3795 60.4794C78.4064 60.5273 78.4427 60.5694 78.4862 60.603C78.5297 60.6367 78.5795 60.6612 78.6327 60.6752C78.6858 60.6892 78.7413 60.6923 78.7957 60.6845C78.8501 60.6766 78.9024 60.6579 78.9495 60.6294C80.0595 59.7894 81.3695 59.2494 82.4795 58.4094C82.5713 58.348 82.6373 58.2549 82.665 58.1479C82.6927 58.041 82.68 57.9276 82.6295 57.8294Z" fill="white"/>
<path id="Vector_26" d="M52.4895 18.9592C52.3045 18.3995 51.9633 17.9045 51.5062 17.5324C51.0491 17.1603 50.495 16.9267 49.9095 16.8592C48.0474 16.606 46.152 16.7839 44.3695 17.3792C42.7628 17.8079 41.2046 18.4011 39.7195 19.1492C39.2395 19.3992 39.7195 20.1492 40.1495 19.8792C41.4319 19.2398 42.771 18.7209 44.1495 18.3292C45.7051 17.8064 47.3385 17.5527 48.9795 17.5792C49.9795 17.6292 51.4895 17.9792 51.7195 19.1592C51.7291 19.6232 51.6456 20.0844 51.4738 20.5155C51.302 20.9467 51.0455 21.339 50.7195 21.6692C48.8702 23.8158 46.7215 25.685 44.3395 27.2192L41.4795 29.2192C40.4795 29.9392 39.5395 30.7492 38.5895 31.5392C35.4195 34.1692 31.7395 37.4392 31.5895 41.8792C31.5895 42.4192 32.4095 42.4192 32.4295 41.8792C32.5795 37.7492 36.1495 34.6692 39.0895 32.2292C40.0895 31.3992 41.0895 30.5592 42.0895 29.8292C43.0895 29.0992 44.1495 28.3792 45.1695 27.6392C47.4895 25.9492 49.9895 24.1292 51.6495 21.7392C52.2836 20.9587 52.5853 19.9602 52.4895 18.9592Z" fill="white"/>
<path id="Vector_27" d="M67.1694 15.1493C66.5794 13.4093 64.6794 12.6593 63.0294 12.2193C60.1273 11.5306 57.1209 11.3982 54.1694 11.8293C51.1811 12.1888 48.2568 12.9594 45.4794 14.1193C44.8494 14.3793 44.2294 14.6693 43.6194 14.9793C43.0094 15.2893 43.5594 15.9793 44.0394 15.6993C46.6214 14.4131 49.3718 13.4974 52.2094 12.9793C55.1354 12.3834 58.1409 12.2854 61.0994 12.6893C62.7994 12.9493 65.2794 13.3893 66.2094 15.0593C66.8894 16.2693 66.3694 17.7393 65.7794 18.8693C64.8706 20.4922 63.7434 21.9828 62.4294 23.2993C61.1794 24.6293 59.8394 25.8793 58.4294 27.0893C54.5594 30.4893 50.6194 33.7993 46.8794 37.3593C44.4217 39.6653 42.1043 42.1164 39.9394 44.6993C38.8598 45.971 37.8579 47.3067 36.9394 48.6993C36.0329 50.1403 35.2437 51.6518 34.5794 53.2193C34.2594 53.9493 33.9594 54.6893 33.6694 55.4293C33.4694 55.9293 34.2794 56.1493 34.4794 55.6493C35.1049 54.0116 35.8261 52.4122 36.6394 50.8593C37.5034 49.2666 38.5073 47.754 39.6394 46.3393C41.8035 43.6394 44.1418 41.084 46.6394 38.6893C50.5494 34.8893 54.7294 31.3793 58.8294 27.7893C60.2494 26.5493 61.6294 25.2693 62.9194 23.8993C64.2707 22.534 65.4372 20.9976 66.3894 19.3293C66.7983 18.7229 67.0784 18.0391 67.2126 17.3201C67.3467 16.6012 67.332 15.8624 67.1694 15.1493Z" fill="white"/>
<path id="Vector_28" d="M85.3294 11.0193C85.218 11.0193 85.1112 11.0635 85.0324 11.1423C84.9537 11.2211 84.9094 11.3279 84.9094 11.4393C84.9094 11.5507 84.9537 11.6575 85.0324 11.7363C85.1112 11.815 85.218 11.8593 85.3294 11.8593C88.1894 11.8593 86.3294 16.7493 85.5394 18.0693C84.2185 20.2019 82.6437 22.1662 80.8494 23.9193C79.0194 25.8193 77.0394 27.5593 75.0494 29.2793C70.6994 33.0393 66.3094 36.7093 61.7394 40.2193C57.3794 43.5393 53.0394 46.8893 48.9094 50.4793C46.5594 52.4793 44.2794 54.6293 42.1194 56.8493C41.1773 57.7594 40.3753 58.8041 39.7394 59.9493C39.2139 61.0315 38.7693 62.1513 38.4094 63.2993C38.2394 63.8093 39.0494 64.0293 39.2194 63.5193C39.5578 62.4399 39.9756 61.387 40.4694 60.3693C41.0699 59.2891 41.8245 58.302 42.7094 57.4393C44.7094 55.4393 46.7794 53.4393 48.9194 51.5793C53.2194 47.7993 57.7594 44.2993 62.3194 40.8293C66.8794 37.3593 71.4494 33.5393 75.8694 29.7093C77.9651 27.9584 79.9678 26.0992 81.8694 24.1393C82.7994 23.1393 83.6894 22.1393 84.5194 21.0593C85.2056 20.2266 85.8243 19.3405 86.3694 18.4093C87.3794 16.4593 89.1294 11.0393 85.3294 11.0193Z" fill="white"/>
<path id="Vector_29" d="M69.8995 47.7893C68.6295 46.7893 66.6295 47.3393 65.2195 47.6593C60.3914 48.9003 55.8209 50.9858 51.7195 53.8193C49.3495 55.3493 46.9895 56.9293 44.7195 58.6593C43.5495 59.5593 42.4295 60.4993 41.3495 61.4993C40.4595 62.3193 39.2795 63.1793 38.9195 64.3793C38.889 64.4867 38.9024 64.6018 38.9568 64.6993C39.0111 64.7969 39.102 64.8688 39.2095 64.8993C39.3169 64.9298 39.432 64.9164 39.5295 64.862C39.627 64.8076 39.699 64.7167 39.7295 64.6093C40.0195 63.6093 41.1395 62.8393 41.8695 62.1593C42.7995 61.2893 43.7695 60.4593 44.7695 59.6693C46.6695 58.1593 48.6995 56.7993 50.7195 55.4493C54.52 52.7443 58.6892 50.5991 63.0995 49.0793C64.1527 48.7493 65.2246 48.4822 66.3095 48.2793C67.0526 48.104 67.8197 48.0533 68.5795 48.1293C68.9344 48.1442 69.2707 48.2926 69.521 48.5447C69.7713 48.7969 69.9172 49.1342 69.9295 49.4893C69.8931 50.3306 69.5921 51.139 69.0695 51.7993C67.9308 53.3346 66.6299 54.7428 65.1895 55.9993C63.4095 57.6893 61.5495 59.2793 59.6795 60.8593C57.5595 62.6493 55.4495 64.4293 53.3795 66.2793C52.3795 67.1793 51.3195 67.9993 50.3795 68.9393C49.4395 69.8793 49.0895 70.9393 48.2095 71.7193C47.8095 72.0793 48.3995 72.7193 48.7995 72.3093C49.6495 71.5593 50.0595 70.4693 50.7995 69.6693C51.5395 68.8693 52.7195 67.9693 53.6795 67.1293C55.6795 65.3893 57.6795 63.6493 59.6795 61.9493C61.6795 60.2493 63.6795 58.5393 65.6795 56.7193C67.2046 55.3877 68.5855 53.8996 69.7995 52.2793C70.5795 51.0293 71.3895 48.9293 69.8995 47.7893Z" fill="white"/>
<path id="Vector_30" d="M48.6694 62.2192C48.1191 62.1833 47.5679 62.2757 47.0594 62.4892C46.4829 62.7366 45.9277 63.0309 45.3994 63.3692C43.9294 64.3092 43.0294 65.8392 41.7294 66.9592C41.3094 67.3192 41.9094 67.9092 42.3194 67.5592C43.3794 66.6392 44.1494 65.4392 45.2194 64.5592C45.6622 64.2079 46.1378 63.8998 46.6394 63.6392C47.0993 63.3404 47.6174 63.1427 48.1594 63.0592H48.4594C48.4128 63.5057 48.2839 63.9396 48.0794 64.3392C47.4888 65.2082 46.7746 65.9863 45.9594 66.6492C45.0272 67.3862 44.3317 68.3807 43.9594 69.5092C43.8394 70.0292 44.6494 70.2592 44.7694 69.7292C45.1547 68.6541 45.8508 67.7178 46.7694 67.0392C47.6649 66.316 48.412 65.4263 48.9694 64.4192C49.149 63.9389 49.2699 63.4386 49.3294 62.9292C49.4194 62.4692 49.1194 62.2192 48.6694 62.2192Z" fill="white"/>
<path id="Vector_31" d="M100.849 30.2892C99.8514 31.0001 98.9086 31.7857 98.0294 32.6392C96.8794 33.5492 95.6494 34.3492 94.4294 35.1592C92.0694 36.7392 89.7494 38.3692 87.3194 39.8392C85.4094 40.9992 83.4794 42.2192 81.4794 43.1592C80.2694 43.7692 77.6394 45.0392 76.6494 43.4392C76.4737 43.0388 76.383 42.6064 76.383 42.1692C76.383 41.732 76.4737 41.2995 76.6494 40.8992C76.9462 40.0127 77.3314 39.1584 77.7994 38.3492C79.1028 36.1024 80.5631 33.9504 82.1694 31.9092C84.2694 29.1392 86.4694 26.4592 88.4994 23.6392C89.626 22.1689 90.5758 20.5712 91.3294 18.8792C91.8094 17.7292 92.2394 16.2292 91.3294 15.1792C90.9694 14.7692 90.3294 15.3692 90.7294 15.7692C91.4594 16.6192 90.7294 18.1792 90.3494 19.0192C89.6015 20.5285 88.7143 21.9647 87.6994 23.3092C85.5394 26.3092 83.1794 29.1492 80.9594 32.1092C79.4318 34.0739 78.0577 36.1534 76.8494 38.3292C76.0494 39.8192 75.0194 41.9392 75.7894 43.6192C76.5594 45.2992 78.7894 45.1392 80.2694 44.6192C82.0893 43.8759 83.8395 42.9724 85.4994 41.9192C88.3794 40.2592 91.1394 38.4492 93.8694 36.5692C95.2094 35.6492 96.5994 34.7792 97.8694 33.8092C98.4294 33.3792 98.9894 32.9392 99.4994 32.4592C100.018 31.9219 100.599 31.4485 101.229 31.0492C101.749 30.7492 101.319 30.0292 100.849 30.2892Z" fill="white"/>
<path id="Vector_32" d="M102.859 49.0193C100.669 51.0193 98.7494 53.2993 96.4894 55.2293C94.0294 57.3393 91.3794 59.2293 88.8194 61.2293C86.2594 63.2293 83.6694 65.2293 81.0594 67.1093C78.4494 68.9893 76.1194 70.8093 73.5394 72.4793C72.115 73.4107 70.6088 74.2106 69.0394 74.8693C67.4782 75.4133 65.9633 76.0821 64.5094 76.8693C64.0494 77.1493 64.5094 77.8693 64.9294 77.5993C66.2928 76.8418 67.7139 76.1931 69.1794 75.6593C70.5349 75.0999 71.8426 74.431 73.0894 73.6593C75.7194 72.0693 78.1794 70.1693 80.6594 68.3493C85.9294 64.4993 91.0794 60.4693 96.2094 56.4293C98.8494 54.3593 100.989 51.7593 103.449 49.4993C103.849 49.2193 103.259 48.6493 102.859 49.0193Z" fill="white"/>
<path id="Vector_33" d="M96.3995 62.8792C92.6651 65.3077 88.7992 67.5278 84.8195 69.5292C80.7295 71.6092 76.6095 73.6292 72.4295 75.5292C71.3121 76.0339 70.1669 76.4746 68.9995 76.8492C67.8907 77.1788 66.8077 77.5899 65.7595 78.0792C65.2795 78.3192 65.6995 79.0792 66.1895 78.7992C68.0495 77.8792 70.1095 77.4692 72.0095 76.6392C74.1295 75.6392 76.2395 74.6992 78.3295 73.6392C82.3295 71.6392 86.4395 69.6992 90.3295 67.4892C92.5295 66.2592 94.6895 64.9592 96.7895 63.5692C97.2695 63.3092 96.8495 62.5792 96.3995 62.8792Z" fill="white"/>
</g>
</g>
</svg>
