<svg width="1440" height="277" viewBox="0 0 1440 277" fill="none" xmlns="http://www.w3.org/2000/svg">
<g id="Mask group">
<mask id="mask0_10_3058" style="mask-type:alpha" maskUnits="userSpaceOnUse" x="0" y="0" width="1440" height="277">
<rect id="Rectangle 147977" width="1440" height="276.75" fill="url(#paint0_linear_10_3058)"/>
</mask>
<g mask="url(#mask0_10_3058)">
<path id="Union" fill-rule="evenodd" clip-rule="evenodd" d="M365.374 276.75H-0.000358582V258.501C-40.1507 248.663 -67.7124 211.008 -62.975 169.79C-59.3755 138.472 -38.0722 113.41 -9.91928 102.958C-11.2261 95.531 -11.5174 87.8159 -10.6149 79.9638C-5.4681 35.1835 35.8592 3.14854 81.6803 8.41501C95.6197 10.0171 108.36 14.9023 119.21 22.1641C129.403 10.0309 145.505 3.06838 162.697 5.04429C186.585 7.78995 204.519 26.8684 206.159 49.5143C215.61 43.0842 227.416 39.8713 239.789 41.2935C266.724 44.3893 286.11 68.2348 283.085 94.5574C282.843 96.6622 282.45 98.7149 281.947 100.716C289.862 99.3187 298.126 99.0194 306.539 99.9864C339.298 103.751 365.491 125.56 375.885 154.049C380.613 126.121 405.379 104.824 435.215 104.824C445.319 104.824 454.835 107.278 463.194 111.593C469.488 102.048 480.435 95.7246 492.896 95.7246C510.211 95.7246 524.61 107.934 527.645 124.046C533.877 118.653 542.059 115.375 551.027 115.375C570.551 115.375 586.38 130.884 586.38 150.019C586.38 151.549 586.268 153.054 586.072 154.531C591.62 152.876 597.507 151.98 603.605 151.98C625.887 151.98 645.339 163.855 655.731 181.5H657.053C656.315 168.042 659.923 154.342 668.276 142.619C682.195 123.083 705.603 114.226 728.196 117.619C730.058 112.192 732.703 106.946 736.193 102.048C756.095 74.1145 795.403 67.9778 823.979 88.3388C832.673 94.5329 839.36 102.473 843.914 111.3C855.166 106.968 868.45 108.253 879.172 115.892C887.451 121.791 892.65 130.373 894.393 139.526C904.856 118.852 926.681 104.631 951.906 104.631C962.675 104.631 972.818 107.236 981.728 111.816C988.437 101.685 1000.11 94.9746 1013.39 94.9746C1031.84 94.9746 1047.19 107.932 1050.43 125.032C1057.07 119.309 1065.79 115.829 1075.35 115.829C1091.73 115.829 1105.68 126.033 1110.87 140.284C1125.11 128.827 1143.36 121.947 1163.25 121.947C1171.62 121.947 1179.69 123.172 1187.3 125.436C1187.04 123.416 1186.88 121.357 1186.88 119.264C1186.88 93.0916 1208.6 71.8775 1235.38 71.8775C1247.68 71.8775 1258.9 76.362 1267.45 83.7381C1271.62 61.6997 1291.37 45 1315.12 45C1332.21 45 1347.23 53.6488 1355.86 66.7053C1367.33 60.8027 1380.39 57.4457 1394.25 57.4457C1439.81 57.4457 1476.75 93.5443 1476.75 138.07C1476.75 145.877 1475.59 153.415 1473.47 160.557C1499.92 173.989 1518 200.986 1518 232.126C1518 276.651 1481.06 312.75 1435.5 312.75C1406.82 312.75 1381.57 298.448 1366.79 276.75H1347.16C1335.75 282.581 1322.77 285.881 1309 285.881C1295.23 285.881 1282.25 282.582 1270.85 276.75H1195.61C1185.67 280.896 1174.74 283.19 1163.25 283.19C1154.55 283.19 1146.16 281.873 1138.28 279.431C1136.02 279.668 1133.72 279.789 1131.39 279.789C1124.48 279.789 1117.83 278.723 1111.6 276.75H1043.59C1035.79 280.048 1027.19 281.877 1018.14 281.877C1009.1 281.877 1000.5 280.048 992.695 276.75H971.849C970.363 278.759 968.757 280.679 967.042 282.499C967.355 295.343 963.704 308.312 955.743 319.485C935.841 347.418 896.535 353.552 867.958 333.191C849.039 319.711 839.57 297.995 841.101 276.75H837.309C821.903 283.304 804.016 283.529 787.889 276.75H444.903C434.305 285.914 420.387 291.475 405.143 291.475C389.896 291.475 375.975 285.914 365.374 276.75Z" fill="black"/>
</g>
</g>
<defs>
<linearGradient id="paint0_linear_10_3058" x1="1357.75" y1="37.6458" x2="641.914" y2="741.191" gradientUnits="userSpaceOnUse">
<stop stop-color="#142B60"/>
<stop offset="1" stop-color="#187FC4"/>
</linearGradient>
</defs>
</svg>
